/* XPM */
static char *result[] = {
/* columns rows colors chars-per-pixel */
"50 50 198 2 ",
"   c #040B0B",
".  c #0C0D0E",
"X  c #050608",
"o  c #05110F",
"O  c #0F0F13",
"+  c #1E0F1A",
"@  c #0B1315",
"#  c #091819",
"$  c #121313",
"%  c #121F1F",
"&  c #1B1C1D",
"*  c #191618",
"=  c #23171E",
"-  c #15211D",
";  c #19221F",
":  c #2D2016",
">  c #36241D",
",  c #0E1E20",
"<  c #151F21",
"1  c #1C1D26",
"2  c #2A1C22",
"3  c #2A1C25",
"4  c #092020",
"5  c #172021",
"6  c #1C2121",
"7  c #1A2D2E",
"8  c #222222",
"9  c #2B2226",
"0  c #2B2128",
"q  c #2C2C2B",
"w  c #222B2B",
"e  c #34232A",
"r  c #3B232B",
"t  c #362824",
"y  c #28302D",
"u  c #293535",
"i  c #3D3F3E",
"p  c #323432",
"a  c #5A1817",
"s  c #70161D",
"d  c #661F16",
"f  c #682217",
"g  c #7D2B19",
"h  c #4D0F25",
"j  c #570E28",
"k  c #491B2A",
"l  c #58112B",
"z  c #4D1D33",
"x  c #531934",
"c  c #482C26",
"v  c #452829",
"b  c #462231",
"n  c #4A2332",
"m  c #552434",
"M  c #592235",
"N  c #5E2339",
"B  c #453C39",
"V  c #433A37",
"C  c #552E29",
"Z  c #75252D",
"A  c #673529",
"S  c #71372A",
"D  c #743829",
"F  c #77392A",
"G  c #62253A",
"H  c #6A2A38",
"J  c #75293D",
"K  c #74253D",
"L  c #7A3433",
"P  c #642B26",
"I  c #3B433E",
"U  c #7A483E",
"Y  c #463D40",
"T  c #5B3345",
"R  c #792546",
"E  c #693746",
"W  c #3D4542",
"Q  c #484745",
"!  c #4E4A4A",
"~  c #444746",
"^  c #41514F",
"/  c #52514F",
"(  c #575555",
")  c #534D47",
"_  c #635759",
"`  c #63605E",
"'  c #6D6B67",
"]  c #7F6166",
"[  c #6F736C",
"{  c #72706C",
"}  c #787773",
"|  c #833B2D",
" . c #8D3E2E",
".. c #933927",
"X. c #803532",
"o. c #913C31",
"O. c #8C2930",
"+. c #A23626",
"@. c #A83924",
"#. c #A33D3D",
"$. c #CD321C",
"%. c #D53C26",
"&. c #E03E24",
"*. c #8B4236",
"=. c #9A432C",
"-. c #A74736",
";. c #C34A34",
":. c #CD4B35",
">. c #CD463D",
",. c #C4433D",
"<. c #DC4E37",
"1. c #D54B3A",
"2. c #DB4E38",
"3. c #DE5037",
"4. c #DF5039",
"5. c #E9442B",
"6. c #E0572E",
"7. c #E04D35",
"8. c #EE4D33",
"9. c #E34E3C",
"0. c #EB4F3F",
"q. c #E25335",
"w. c #ED5636",
"e. c #E35139",
"r. c #EB5339",
"t. c #F15236",
"y. c #F6543A",
"u. c #F55938",
"i. c #842546",
"p. c #882746",
"a. c #8B2847",
"s. c #8D2749",
"d. c #8F2849",
"f. c #812D4C",
"g. c #9A274E",
"h. c #92284A",
"j. c #9D294E",
"k. c #94294A",
"l. c #962451",
"z. c #9B2650",
"x. c #A42C4C",
"c. c #A92F4A",
"v. c #B22F4F",
"b. c #AB3149",
"n. c #A83445",
"m. c #B23445",
"M. c #B83449",
"N. c #A52654",
"B. c #A92656",
"V. c #A42950",
"C. c #AE2A53",
"Z. c #B22A55",
"A. c #BC3252",
"S. c #C53C43",
"D. c #CA3453",
"F. c #804F46",
"G. c #865346",
"H. c #B64D73",
"J. c #A14866",
"K. c #806167",
"L. c #8D7176",
"P. c #917D7F",
"I. c #C44041",
"U. c #CF4343",
"Y. c #D84346",
"T. c #D24F53",
"R. c #D25053",
"E. c #E4504E",
"W. c #85817E",
"Q. c #DE907F",
"!. c #8B8882",
"~. c #918C87",
"^. c #9A9794",
"/. c #9A918D",
"(. c #9FA099",
"). c #A2A19B",
"_. c #A7A9A4",
"`. c #B5AAA6",
"'. c #B2B7B2",
"]. c #DE9080",
"[. c #F09B8D",
"{. c #EAA394",
"}. c #C2BFB8",
"|. c #FFADA4",
" X c #FBBAA7",
".X c #CAC6BF",
"XX c #CACBC8",
"oX c #D7D4CB",
"OX c #CFCFD0",
"+X c #FFD1C3",
"@X c #E4E2DB",
"#X c #F6DDE5",
"$X c #EEEEEC",
"%X c #F0ECE3",
"&X c #E3FFFF",
"*X c #FFFFFD",
"=X c #F7F7F6",
"-X c None",
/* pixels */
"-X-X-X-X-X-X-X-X-X-X-X-X-X-X-X-X-X-X-X-X-X-X-X-X-X-X-X8 8 -X-X-X-X-X-X-X-X-X-X-X-X-X-X-X-X-X-X-X-X-X",
"-X-X-X-X-X-X-X-X-X-X-X-X-X-X-X-X-X-X-X-X-X-X-X-X-X-X8 8 -X-X-X-X-X8 -X-X-X-X-X-X-X-X-X-X-X-X-X-X-X-X",
"-X-X-X-X-X-X-X-X-X-X-X-X-X-X-X-X-X-X-X-X-X-X6 5 -X; 6 -X-X-X-X-X-X8 8 -X-X-X-X-X-X-X-X-X-X-X-X-X-X-X",
"-X-X-X-X-X-X-X-X-X-X-X-X-X-X8 8 6 6 8 -X-X8 6 5 5 1 ; & ; 1 5 ; & -X-X-X-X-X-X-X-X-X-X-X-X-X-X-X-X-X",
"-X-X-X-X-X-X-X-X-X-X-X-X-X8 6 6 n N 9 ; - % C o.o.Z l l Z  . .Z l 2 -X; 6 8 -X-X-X-X-X-X-X-X-X-X-X-X",
"-X-X-X-X-X-X-X-X-X-X-X-X8 8 ; - J c.e 1 9 1 | y.t.T.H.H.T.w.t.E.J.q & e 8 8 8 -X-X-X-X-X-X-X-X-X-X-X",
"-X-X-X-X-X-X-X-X-X-X-X8 8 8 5 - o.;.t n R 0 F 8.5.[.#X#X[.%.5.|.OXW h p.r 6 8 8 -X-X-X-X-X-X-X-X-X-X",
"-X-X-X-X-X-X-X-X-X8 8 -X-X; 3 G ,.6.=.c.k.3 S 7.:. X*X*X X$.%.+X&X^ s M.v - -X8 8 -X-X-X-X-X-X-X-X-X",
"-X-X-X-X-X-X-X-X-X8 -X-X-X; e R m.1.y.S.R 1 F t.5.Q.XXXX].5.5.{.'.u g :.c -X-X8 -X-X-X-X-X-X-X-X-X-X",
"-X-X-X-X-X-X-X-X-X-X-X-X8 8 6 8 G M.0.Y.R 1 S r.y.*.y u  .E.y.*.7 % *.;.c 5 8 -X-X-X-X-X-X-X-X-X-X-X",
"-X-X-X-X-X-X-X-X-X-X-X8 8 ; 9 N b.Y.<.2.m.K H S S > . X > | D : O x >.3.c 4 5 8 -X-X-X-X-X-X-X-X-X-X",
"-X-X-X-X-X-X-X-X-X-X8 8 8 ; 9 R #.;.q.t.E.D.x o 3 2 * r = @ 0 & = g.S...> 5 8 8 8 -X-X-X-X-X-X-X-X-X",
"-X-X-X-X-X-X-X-X-X8 8 8 8 8 8 9 3 c :.u.9.A.z & p.M = a.M = i.M 9 d.K & ; -X-X8 8 -X-X-X-X-X-X-X-X-X",
"-X-X-X-X-X-X-X-X-X8 8 8 -X8 8 ; % 5 A F P k P.`.E K./.E L.`.E ] ^.H L._.I -X-X-X-X-X-X-X-X-X-X-X-X-X",
"-X-X-X-X-X-X-X-X-X8 8 8 -X-X8 8 8 1 < , # o !..Xy ).$XI { }.p ^.$XI { XXQ -X-X-X-X-X-X-X-X-X-X-X-X-X",
"-X-X-X-X-X-X-X-X-X8 8 -X-X8 8 8 8 8 8 6 5 : w q * ).%XQ $ w & _.%X! $ q -X-X-X-X-X-X-X-X-X-X-X-X-X-X",
"-X-X-X-X-X-X-X-X-X-X-X-X-X-X-X8 8 8 8 8 8 8 & $ & / ' p . $ & ( ' p O $ -X-X-X-X-X-X-X-X-X-X-X-X-X-X",
"-X-X-X-X-X-X-X-X-X-X-X-X-X-X-X8 8 8 8 8 8 8 8 8 8 $ . 1 8 8 8 $ . & 9 8 -X-X-X-X-X-X-X-X-X-X-X-X-X-X",
"-X-X-X-X-X-X-X-X-X-X-X-X-X-X-X8 8 -X8 8 8 8 8 8 8 : 6 8 8 8 8 8 8 8 8 -X-X-X-X-X-X-X-X-X-X-X-X-X-X-X",
"-X-X-X-X-X-X-X-X-X-X-X-X-X-X-X8 8 -X8 8 8 8 8 8 8 8 6 8 8 8 8 8 8 8 -X-X-X-X-X-X-X-X-X-X-X-X-X-X-X-X",
"-X-X-X-X-X-X-X-X-X-X-X-X-X-X-X8 -X-X8 8 8 8 8 8 8 8 8 8 8 8 8 8 8 8 8 -X-X-X-X-X-X-X-X-X-X-X-X-X-X-X",
"-X-X-X-X-X-X-X-X-X-X-X-X-X-X-X-X-X-X8 8 -X8 8 8 8 8 8 8 -X-X8 8 -X8 8 -X-X-X-X-X-X-X-X-X-X-X-X-X-X-X",
"-X-X-X-X-X-X-X-X-X-X-X-X-X-X-X-X-X-X8 -X-X8 8 -X8 8 8 -X-X-X-X-X-X-X-X-X-X-X-X-X-X-X-X-X-X-X-X-X-X-X",
"-X-X-X-X-X-X-X-X-X-X-X-X-X-X-X-X-X-X8 -X-X8 -X-X8 8 8 -X-X-X-X-X-X-X-X-X-X-X-X-X-X-X-X-X-X-X-X-X-X-X",
"-X-X-X-X-X-X-X-X-X-X-X-X-X-X-X-X-X-X-X-X-X-X-X-X8 8 8 -X-X-X-X-X-X8 8 -X-X-X-X-X-X-X-X-X-X-X-X-X-X-X",
"-X-X-X-X-X-X-X-X-X-X-X-X-X-X-X-X-X-X8 -X-X-X-X8 8 8 8 8 -X-X8 -X-X-X-X-X-X-X-X-X-X-X-X-X-X-X-X-X-X-X",
"-X-X-X-X-X-X-X-X-X-X-X-X-X-X-X-X-X-X8 8 -X-X8 8 8 8 8 8 8 -X8 8 -X-X-X-X-X-X-X-X-X-X-X-X-X-X-X-X-X-X",
"-X-X-X-X-X-X-X-X-X-X-X-X-X-X-X8 8 -X8 8 8 8 8 8 8 8 8 8 8 8 8 -X-X8 8 -X-X-X-X-X-X-X-X-X-X-X-X-X-X-X",
"-X-X-X-X-X-X-X-X-X-X-X8 -X-X-X8 8 8 8 8 8 8 8 6 8 8 8 8 8 8 8 8 8 8 -X-X-X-X-X8 -X-X-X-X-X-X-X-X-X-X",
"-X-X-X-X-X-X-X-X-X-X8 8 8 -X-X8 8 8 8 8 8 8 8 : * * 8 8 8 8 8 8 ; $ & -X-X-X-X8 8 -X-X-X-X-X-X-X-X-X",
"-X-X-X-X-X-X-X-X-X-X-X8 8 -X-X8 8 8 8 8 8 & : 8 q q 8 1 6 6 8 = 9 q q ; 8 -X-X8 8 -X-X-X-X-X-X-X-X-X",
"-X-X-X-X-X-X-X-X-X-X-X-X8 8 8 8 8 8 8 8 1 @   B '.W.$ . & : @   Y '.!.* X * 8 8 8 -X-X-X-X-X-X-X-X-X",
"-X-X-X-X-X-X-X-X-X-X-X-X8 8 8 8 6 5 8 @ p W.W W =X_.< } ( w } i ~ *X_.8 [ ` ; & 8 -X-X-X-X-X-X-X-X-X",
"-X-X-X-X-X-X-X-X-X-X8 8 8 8 6 8 8 0 6 O ! @X!.B oX!.B oX~.V oX~.B XXP.Q oX(.& & -X-X-X-X-X-X-X-X-X-X",
"-X-X-X-X-X-X-X-X-X-X8 8 8 5 ; 5 N R 6 k R ( G.-.T _ -.( G.-.( G.-.) T R _ I & -X-X-X-X-X-X-X-X-X-X-X",
"-X-X-X-X-X-X-X-X-X-X-X8 8 v b 5 L S.| #.m.a @.4.f @.7.f ..e.f +.q.f O.M.j + 8 -X-X-X-X-X-X-X-X-X-X-X",
"-X-X-X-X-X-X-X-X-X-X-X-X5 R k.r S e.9.2.3.e.3.2.w.q.2.4.4.2.4.4.2.4.q.2.A.G ; -X-X-X-X-X-X-X-X-X-X-X",
"-X-X-X-X-X-X-X-X-X-X-X-X; K Z.h.k.v.v.I.q.r.4.2.w.q.2.r.4.4.q.3.2.e.q.r.E.X.1 6 8 8 -X-X-X-X-X-X-X-X",
"-X-X-X-X-X-X-X-X-X8 -X8 6 e K V.N.l.n.>.q.3.q.2.%.U.q.3.2.1.2.<.q.3.2.e.t.| ; 6 8 8 -X-X-X-X-X-X-X-X",
"-X-X-X-X-X-X-X-X-X8 8 8 6 6 r d.N.c.1.3.1.1.2.I.l.b.2.1.2.3.3.2.1.1.2.q.w.| % 6 -X-X-X-X-X-X-X-X-X-X",
"-X-X-X-X-X-X-X-X-X-X8 8 6 n a.j.V.x.b.b.b.b.b.c.j.j.c.c.I.q.q.I.x.j.S.w.w.| 1 -X-X-X-X-X-X-X-X-X-X-X",
"-X-X-X-X-X-X-X-X-X-X-X6 ; R D.b.g.j.l.l.z.N.B.B.C.B.N.N.A.U.I.b.l.l.n.U.Y.L ; -X-X-X-X-X-X-X-X-X-X-X",
"-X-X-X-X-X-X-X-X-X-X-X-X6 M z.N.x.z.j.x.j.h.a.h.d.d.d.d.p.h.j.V.g.j.N.N.g.m ; -X-X-X-X-X-X-X-X-X-X-X",
"-X-X-X-X-X-X-X-X-X-X-X-X-X8 n g.Z.j.j.Z.g.n 9 e e r r e 9 b g.Z.j.j.C.g.b 8 -X-X-X-X-X-X-X-X-X-X-X-X",
"-X-X-X-X-X-X-X-X-X-X-X-X-X-X6 m p.x.V.d.m 8 -X; ; ; ; ; -X8 m a.V.V.a.m 8 -X-X-X-X-X-X-X-X-X-X-X-X-X",
"-X-X-X-X-X-X-X-X-X-X-X-X-X-X-X6 G Z.Z.G 5 -X-X-X-X-X-X-X-X-X6 G Z.C.N 6 -X-X-X-X-X-X-X-X-X-X-X-X-X-X",
"-X-X-X-X-X-X-X-X-X-X-X-X-X-X-X-X-X-X-X-X-X-X-X-X-X-X-X-X-X-X-X-X-X-X-X-X-X-X-X-X-X-X-X-X-X-X-X-X-X-X",
"-X-X-X-X-X-X-X-X-X-X-X-X-X-X-X-X-X-X-X-X-X-X-X-X-X-X-X-X-X-X-X-X-X-X-X-X-X-X-X-X-X-X-X-X-X-X-X-X-X-X",
"-X-X-X-X-X-X-X-X-X-X-X-X-X-X-X-X-X-X-X-X-X-X-X-X-X-X-X-X-X-X-X-X-X-X-X-X-X-X-X-X-X-X-X-X-X-X-X-X-X-X",
"-X-X-X-X-X-X-X-X-X-X-X-X-X-X-X-X-X-X-X-X-X-X-X-X-X-X-X-X-X-X-X-X-X-X-X-X-X-X-X-X-X-X-X-X-X-X-X-X-X-X"
};
