/* XPM */
static char *result[] = {
/* columns rows colors chars-per-pixel */
"50 50 202 2 ",
"   c #060A0C",
".  c #0C0D0E",
"X  c #0E0F10",
"o  c #0F1213",
"O  c #05171A",
"+  c #131414",
"@  c #1C1C1C",
"#  c #161A1A",
"$  c #07140F",
"%  c #29111F",
"&  c #391519",
"*  c #14221E",
"=  c #1A221F",
"-  c #2B241E",
";  c #3F2316",
":  c #0F1D20",
">  c #141F21",
",  c #1B1E23",
"<  c #2E1B26",
"1  c #1D2121",
"2  c #1C2A2C",
"3  c #222222",
"4  c #2C2226",
"5  c #292929",
"6  c #312327",
"7  c #372A23",
"8  c #34222A",
"9  c #3D232C",
"0  c #3A2824",
"q  c #2E302E",
"w  c #252F30",
"e  c #2C3735",
"r  c #333331",
"t  c #3B3A38",
"y  c #373A3B",
"u  c #411D19",
"i  c #4B201A",
"p  c #571729",
"a  c #4A1E38",
"s  c #451B33",
"d  c #52152B",
"f  c #4C2A24",
"g  c #442929",
"h  c #562C2A",
"j  c #5B2E2C",
"k  c #512E27",
"l  c #452331",
"z  c #4B2431",
"x  c #542534",
"c  c #592536",
"v  c #5C233A",
"b  c #512138",
"n  c #403F3D",
"m  c #6E2F2B",
"M  c #712F2B",
"N  c #6A332B",
"B  c #7E3A2E",
"V  c #75342C",
"C  c #64263A",
"Z  c #6B263D",
"A  c #632935",
"S  c #75293C",
"D  c #663D33",
"F  c #6A4338",
"G  c #6C1E46",
"H  c #5F2A42",
"J  c #5C3445",
"K  c #7B2543",
"L  c #7B2841",
"P  c #3F4B4A",
"I  c #51504D",
"U  c #535C5B",
"Y  c #5B5A57",
"T  c #4A4E4A",
"R  c #7C4A41",
"E  c #6D4055",
"W  c #625F5B",
"Q  c #78554F",
"!  c #42615F",
"~  c #5A605F",
"^  c #63615E",
"/  c #7D665D",
"(  c #676966",
")  c #6F6C73",
"_  c #737775",
"`  c #833B2D",
"'  c #893B29",
"]  c #93392C",
"[  c #8A2E3F",
"{  c #863339",
"}  c #9A3F31",
"|  c #96373A",
" . c #AA3D2B",
".. c #A73039",
"X. c #CB1F08",
"o. c #D72E12",
"O. c #C03D3B",
"+. c #EE3D21",
"@. c #82463C",
"#. c #9D4030",
"$. c #914327",
"%. c #A5412D",
"&. c #AA4332",
"*. c #BB4631",
"=. c #CA452F",
"-. c #C7432F",
";. c #C44A34",
":. c #CB4A36",
">. c #C9463B",
",. c #D34934",
"<. c #DA4D36",
"1. c #D54B3A",
"2. c #DB4E39",
"3. c #DE5136",
"4. c #DD523A",
"5. c #EB482E",
"6. c #F0522E",
"7. c #E34F3B",
"8. c #E25236",
"9. c #EC5934",
"0. c #E2513A",
"q. c #EB533B",
"w. c #F3563A",
"e. c #FD593B",
"r. c #FB5538",
"t. c #871F40",
"y. c #822744",
"u. c #8A2344",
"i. c #842943",
"p. c #8B254A",
"a. c #892748",
"s. c #94264D",
"d. c #962A49",
"f. c #9E294E",
"g. c #982644",
"h. c #963042",
"j. c #9A2650",
"k. c #9A2551",
"l. c #A32A4E",
"z. c #AA2E4B",
"x. c #B22E49",
"c. c #AC3445",
"v. c #A33148",
"b. c #AB314A",
"n. c #A33246",
"m. c #B9334C",
"M. c #B73845",
"N. c #A52654",
"B. c #A52951",
"V. c #AB2A53",
"C. c #A92754",
"Z. c #B52C54",
"A. c #BC2A58",
"S. c #C43F42",
"D. c #C93C48",
"F. c #D43D4C",
"G. c #8A6157",
"H. c #B64D71",
"J. c #886861",
"K. c #CB4240",
"L. c #D04244",
"P. c #DA4445",
"I. c #DE5143",
"U. c #C44E5F",
"Y. c #E94847",
"T. c #E75245",
"R. c #E0624E",
"E. c #E86B57",
"W. c #C4516A",
"Q. c #ED7963",
"!. c #79837D",
"~. c #948479",
"^. c #86837F",
"/. c #7C9793",
"(. c #8B8F8C",
"). c #918081",
"_. c #8D908C",
"`. c #97928A",
"'. c #969894",
"]. c #9FA099",
"[. c #AAA399",
"{. c #B6ABA5",
"}. c #B5B3AC",
"|. c #B7B4AB",
" X c #BDBEB6",
".X c #A9BCBE",
"XX c #C3948A",
"oX c #C3ADA4",
"OX c #F0B9B1",
"+X c #C5C0B8",
"@X c #CBCAC3",
"#X c #D6D3CD",
"$X c #DEDED4",
"%X c #FFDBCC",
"&X c #F8D8D5",
"*X c #E9E7DE",
"=X c #EEEEED",
"-X c #F8F2EB",
";X c #FDFDFD",
":X c #FFFBF6",
">X c #F8EFF6",
",X c None",
/* pixels */
",X,X,X,X,X,X,X,X,X,X,X,X,X,X,X,X,X,X,X,X,X,X,X,X,X,X,X,X,X,X,X,X,X,X,X,X,X,X,X,X,X,X,X,X,X,X,X,X,X,X",
",X,X,X,X,X,X,X,X,X,X,X,X,X,X,X,X,X,X,X,X,X,X,X,X,X,X,X,X,X,X,X,X,X,X,X,X,X,X,X,X,X,X,X,X,X,X,X,X,X,X",
",X,X,X,X,X,X,X,X,X,X,X,X,X,X,X,X,X,X,X,X,X,X,X,X,X,X,X,X,X,X,X,X,X,X,X,X,X,X,X,X,X,X,X,X,X,X,X,X,X,X",
",X,X,X,X,X,X,X,X,X,X,X,X,X,X,X,X,X,X,X,X,X,X,X,X,X,X,X,X3 ,X,X,X,X,X,X,X,X,X,X,X,X,X,X,X,X,X,X,X,X,X",
",X,X,X,X,X,X,X,X,X,X,X,X,X,X,X,X,X,X,X,X,X,X,X,X,X,X,X1 ,X,X,X,X,X,X3 ,X,X,X,X,X,X,X,X,X,X,X,X,X,X,X",
",X,X,X,X,X,X,X,X,X,X,X,X,X,X,X,X,X,X,X,X,X,X,X3 3 ,X3 1 ,X,X,X,X,X3 3 ,X,X,X,X,X,X,X,X,X,X,X,X,X,X,X",
",X,X,X,X,X,X,X,X,X,X,X,X,X,X,X,X,X,X,X,X,X,X3 1 1 ,X1 1 ,X1 1 ,X1 1 ,X,X,X,X,X,X,X,X,X,X,X,X,X,X,X,X",
",X,X,X,X,X,X,X,X,X,X,X,X,X3 3 3 3 3 3 3 ,X,X3 , : 1 * 1 1 1 : # = ,X,X,X,X,X,X,X,X,X,X,X,X,X,X,X,X,X",
",X,X,X,X,X,X,X,X,X,X,X,X,X,X3 3 1 1 1 1 1 ,X1 h B V p d d m B m p < ,X,X,X,X,X,X,X,X,X,X,X,X,X,X,X,X",
",X,X,X,X,X,X,X,X,X,X,X,X,X,X,X1 1 4 8 1 4 4 1 #.w.0.W.H.H.2.6.T.W.J @ 8 4 1 3 ,X,X,X,X,X,X,X,X,X,X,X",
",X,X,X,X,X,X,X,X,X,X,X,X3 3 3 = 1 b y.4 v K 4 ` 5.0.OX>X&XE.o.E.&X!.& u.z : 1 3 ,X,X,X,X,X,X,X,X,X,X",
",X,X,X,X,X,X,X,X,X3 3 3 3 @ g Z , j L.&.b.a.4 ` 5.I.%X;X-XQ.X.Q.:X/.& S.v.s 1 ,X,X,X,X,X,X,X,X,X,X,X",
",X,X,X,X,X,X,X,X,X3 3 3 1 * x Z.S $.9.e.F.G > ' r.9.XX.X{.R.+.E.oX! ; <.Y.i.3 ,X,X,X,X,X,X,X,X,X,X,X",
",X,X,X,X,X,X,X,X,X,X,X,X,X* l d.L.4.1.8.D.K < B 3.;.f O - &.9.&.3 O h 1.e.} 1 > 3 ,X,X,X,X,X,X,X,X,X",
",X,X,X,X,X,X,X,X,X,X,X,X3 3 * 8 h.Z.b.1.3.>.u.z 7 7 # . o 4 f - $ s b.1.r.} 1 > 3 3 ,X,X,X,X,X,X,X,X",
",X,X,X,X,X,X,X,X,X,X,X,X3 1 6 C p.V.K.1.9.w.F.[ a a C Z v v b s Z v.P.w.e.&.3 > 3 3 ,X,X,X,X,X,X,X,X",
",X,X,X,X,X,X,X,X,X,X,X,X3 * 9 d.B.c.*.8.:.*.q...u.m.g.g.m.t.l.x.y...9.&.*.` 3 ,X,X,X,X,X,X,X,X,X,X,X",
",X,X,X,X,X,X,X,X,X,X,X,X3 3 = 8 p.Z g ;.` g :.D j 1.h m :.g { ;.8 #.;.0 3 4 3 ,X,X,X,X,X,X,X,X,X,X,X",
",X,X,X,X,X,X,X,X,X,X,X,X3 3 = = 9 8 = k 7 + f [.[.D `.~.F |.~.F ]./ Q oXU   1 ,X,X,X,X,X,X,X,X,X,X,X",
",X,X,X,X,X,X,X,X,X,X,X,X3 3 3 3 * * 1 1 1 # o _._.2 *X@X2 '.^ P ;X(.y }.W X , ,X,X,X,X,X,X,X,X,X,X,X",
",X,X,X,X,X,X,X,X,X,X,X,X3 ,X,X,X3 3 3 3 3 3 3 @ X 5 +X{.# .   T #X^.. # @ 3 ,X,X,X,X,X,X,X,X,X,X,X,X",
",X,X,X,X,X,X,X,X,X,X,X,X,X,X,X,X3 3 3 3 3 3 3 # + 3 y t = + + 4 n r # + ,X,X,X,X,X,X,X,X,X,X,X,X,X,X",
",X,X,X,X,X,X,X,X,X,X,X,X,X,X,X,X3 3 ,X3 3 3 3 3 3 3 o + 3 3 4 = + # 3 ,X,X,X,X,X,X,X,X,X,X,X,X,X,X,X",
",X,X,X,X,X,X,X,X,X,X,X,X,X,X,X,X3 ,X,X3 3 3 3 3 3 3 3 3 3 3 3 - 3 3 3 ,X,X,X,X,X,X,X,X,X,X,X,X,X,X,X",
",X,X,X,X,X,X,X,X,X,X,X,X,X,X,X,X,X,X,X3 ,X,X3 3 3 3 3 3 3 3 3 3 ,X3 3 ,X,X,X,X,X,X,X,X,X,X,X,X,X,X,X",
",X,X,X,X,X,X,X,X,X,X,X,X,X,X,X,X,X,X,X3 3 ,X,X3 3 3 3 3 3 3 3 ,X,X,X,X,X,X,X,X,X,X,X,X,X,X,X,X,X,X,X",
",X,X,X,X,X,X,X,X,X,X,X,X,X,X,X,X,X,X,X3 ,X,X,X3 3 3 3 3 3 3 3 ,X,X,X,X,X,X,X,X,X,X,X,X,X,X,X,X,X,X,X",
",X,X,X,X,X,X,X,X,X,X,X,X,X,X,X,X,X,X,X3 3 ,X3 3 3 3 3 1 3 3 3 3 ,X3 3 ,X,X,X,X,X,X,X,X,X,X,X,X,X,X,X",
",X,X,X,X,X,X,X,X,X,X,X,X3 ,X,X,X3 3 ,X3 3 3 3 1 3 3 3 3 3 3 3 3 3 3 3 3 ,X,X,X,X,X3 ,X,X,X,X,X,X,X,X",
",X,X,X,X,X,X,X,X,X,X,X,X3 3 ,X,X3 3 3 3 3 1 3 5 # . @ 3 3 3 3 3 3 + X , 3 ,X,X,X3 3 ,X,X,X,X,X,X,X,X",
",X,X,X,X,X,X,X,X,X,X,X,X3 3 3 ,X3 3 3 3 3 % + + t W t + + = @ + @ I Y 3 + + ,X3 3 3 ,X,X,X,X,X,X,X,X",
",X,X,X,X,X,X,X,X,X,X,X,X,X3 3 3 3 3 1 3 @ 5 r + ( =X( + r 3 5 5 @ |.$Xr @ r 3 3 3 ,X,X,X,X,X,X,X,X,X",
",X,X,X,X,X,X,X,X,X,X,X,X3 3 3 3 3 1 1 1   T #XU ~ =X~ ~ @Xy _  Xw }.$Xq ].}.3 + 3 ,X,X,X,X,X,X,X,X,X",
",X,X,X,X,X,X,X,X,X,X,X,X3 3 = * 1 9 b > % E '.G.F ).R G.'.@.J._.@./ ) H ).!.3 # ,X,X,X,X,X,X,X,X,X,X",
",X,X,X,X,X,X,X,X,X,X,X,X3 1 4 8 # A c.j L h.& %.*.; *. .u :.] i ,.' i z.p + 1 ,X,X,X,X,X,X,X,X,X,X,X",
",X,X,X,X,X,X,X,X,X,X,X,X,X* x d.8 N 7.3.4.1.-.<.2.-.<.,.-.<.,.-.<.1.=.2.x.v 1 ,X,X,X,X,X,X,X,X,X,X,X",
",X,X,X,X,X,X,X,X,X,X,X,X,X* x Z.u.i.M.m.K.8.q.2.2.w.3.2.q.2.0.q.1.7.q.8.Y.| 1 > ,X,X,X,X,X,X,X,X,X,X",
",X,X,X,X,X,X,X,X,X,X,X,X,X= 6 Z l.C.f.b.>.8.8.8.1.>.1.8.3.3.2.<.<.8.3.2.9.%.1 > 4 ,X,X,X,X,X,X,X,X,X",
",X,X,X,X,X,X,X,X,X,X,X,X3 3 = 6 y.N.l.>.4.1.1.2.S.l.S.2.1.2.4.<.1.1.1.7.q.#.1 1 3 3 ,X,X,X,X,X,X,X,X",
",X,X,X,X,X,X,X,X,X,X,X3 3 * 9 a.f.l.l.b.b.z.b.z.l.f.l.z.b.1.9.1.x.l.M.2.r.#.1 ,X,X,X,X,X,X,X,X,X,X,X",
",X,X,X,X,X,X,X,X,X,X,X3 ,X* x Z.V.f.l.k.s.j.N.N.C.C.N.N.C.m.K.M.f.k.l.M.F.[ 1 ,X,X,X,X,X,X,X,X,X,X,X",
",X,X,X,X,X,X,X,X,X,X,X,X,X,X9 i.l.C.f.f.C.B.i.i.i.y.y.i.y.K p.C.f.f.l.N.s.c 3 ,X,X,X,X,X,X,X,X,X,X,X",
",X,X,X,X,X,X,X,X,X,X,X,X,X,X,X4 K V.j.B.V.a.6 = 3 3 3 4 3 1 v B.B.B.B.f.z 1 ,X,X,X,X,X,X,X,X,X,X,X,X",
",X,X,X,X,X,X,X,X,X,X,X,X,X,X,X,X4 L Z.Z.K 8 ,X,X,X,X,X,X,X,X3 x B.A.d.l 1 ,X,X,X,X,X,X,X,X,X,X,X,X,X",
",X,X,X,X,X,X,X,X,X,X,X,X,X,X,X,X: 0 L L g ,X,X,X,X,X,X,X,X,X,X3 C K x = ,X,X,X,X,X,X,X,X,X,X,X,X,X,X",
",X,X,X,X,X,X,X,X,X,X,X,X,X,X,X,X3 3 3 3 ,X,X,X,X,X,X,X,X,X,X,X3 3 3 3 ,X,X,X,X,X,X,X,X,X,X,X,X,X,X,X",
",X,X,X,X,X,X,X,X,X,X,X,X,X,X,X,X,X,X,X,X,X,X,X,X,X,X,X,X,X,X,X,X,X,X,X,X,X,X,X,X,X,X,X,X,X,X,X,X,X,X",
",X,X,X,X,X,X,X,X,X,X,X,X,X,X,X,X,X,X,X,X,X,X,X,X,X,X,X,X,X,X,X,X,X,X,X,X,X,X,X,X,X,X,X,X,X,X,X,X,X,X",
",X,X,X,X,X,X,X,X,X,X,X,X,X,X,X,X,X,X,X,X,X,X,X,X,X,X,X,X,X,X,X,X,X,X,X,X,X,X,X,X,X,X,X,X,X,X,X,X,X,X",
",X,X,X,X,X,X,X,X,X,X,X,X,X,X,X,X,X,X,X,X,X,X,X,X,X,X,X,X,X,X,X,X,X,X,X,X,X,X,X,X,X,X,X,X,X,X,X,X,X,X"
};
