/* XPM */
static char *result[] = {
/* columns rows colors chars-per-pixel */
"50 50 207 2 ",
"   c #000100",
".  c #0B0909",
"X  c #060806",
"o  c #140C0C",
"O  c #190D0E",
"+  c #150606",
"@  c #00110E",
"#  c #151515",
"$  c #1C1413",
"%  c #141C1B",
"&  c #1D1C1D",
"*  c #1B1818",
"=  c #061C14",
"-  c #211E1E",
";  c #2B1318",
":  c #220A11",
">  c #1A201E",
",  c #14201B",
"<  c #1D1E20",
"1  c #241E20",
"2  c #222322",
"3  c #24272B",
"4  c #26292B",
"5  c #2C2C2C",
"6  c #2D2427",
"7  c #312E2E",
"8  c #37272B",
"9  c #2A332F",
"0  c #30302D",
"q  c #252E34",
"w  c #3B2B30",
"e  c #2A3738",
"r  c #5F182F",
"t  c #4C2B36",
"y  c #422830",
"u  c #582D3C",
"i  c #4C3639",
"p  c #483337",
"a  c #682036",
"s  c #283642",
"d  c #632E40",
"f  c #6A3144",
"g  c #733348",
"h  c #2F4142",
"j  c #314546",
"k  c #294859",
"l  c #344A5A",
"z  c #37555C",
"x  c #335168",
"c  c #315670",
"v  c #377469",
"b  c #2A637E",
"n  c #3B637B",
"m  c #4F4C4A",
"M  c #444342",
"N  c #50504D",
"B  c #5B5955",
"V  c #6A444A",
"C  c #794951",
"Z  c #445A66",
"A  c #416B69",
"S  c #46706D",
"D  c #477571",
"F  c #4A7A74",
"G  c #487974",
"H  c #416D7B",
"J  c #787978",
"K  c #706C6C",
"L  c #8A2445",
"P  c #923A57",
"I  c #A93A61",
"U  c #BA3D69",
"Y  c #92565F",
"T  c #965861",
"R  c #BA456B",
"E  c #B35B6F",
"W  c #807973",
"Q  c #BA6B75",
"!  c #BC6D7A",
"~  c #BB7278",
"^  c #C4446F",
"/  c #C84371",
"(  c #D94879",
")  c #E3457C",
"_  c #C4717E",
"`  c #75837C",
"'  c #3C6682",
"]  c #396D86",
"[  c #406D86",
"{  c #416F88",
"}  c #42738B",
"|  c #46798F",
" . c #4C758E",
".. c #457A91",
"X. c #487992",
"o. c #557D96",
"O. c #587981",
"+. c #E85A84",
"@. c #F95189",
"#. c #F34F88",
"$. c #CF7483",
"%. c #DD7D8D",
"&. c #EA6B8A",
"*. c #FD6997",
"=. c #F47791",
"-. c #F6658D",
";. c #3D8798",
":. c #598987",
">. c #54948D",
",. c #4A8396",
"<. c #4C8698",
"1. c #4E8C9C",
"2. c #448898",
"3. c #588D9D",
"4. c #559691",
"5. c #52929F",
"6. c #579A96",
"7. c #7F8082",
"8. c #70928A",
"9. c #4A8CA2",
"0. c #5C87A0",
"q. c #5294A1",
"w. c #559AA6",
"e. c #589AA6",
"r. c #5897B1",
"t. c #4F9AA6",
"y. c #6894A5",
"u. c #4AA3AA",
"i. c #56A2AB",
"p. c #5AA4AC",
"a. c #59ABAE",
"s. c #5EACB1",
"d. c #59A4B1",
"f. c #5DB3B8",
"g. c #63ADB3",
"h. c #61B2B6",
"j. c #65BABC",
"k. c #65B7BA",
"l. c #6BC4BE",
"z. c #64BAC1",
"x. c #6BBCC1",
"c. c #5CC8C4",
"v. c #66C2C1",
"b. c #6AC5C3",
"n. c #63CCC6",
"m. c #6DCCC6",
"M. c #6ECDC9",
"N. c #6CD0C6",
"B. c #65D1C9",
"V. c #6ED2CB",
"C. c #70D1C7",
"Z. c #71D3CC",
"A. c #78D6CC",
"S. c #74DBD3",
"D. c #76D8D1",
"F. c #69D1D1",
"G. c #76E1D6",
"H. c #78E1D5",
"J. c #77E2D8",
"K. c #79E4DB",
"L. c #7BE9DC",
"P. c #6BE8DA",
"I. c #7DEFE2",
"U. c #7FF2E6",
"Y. c #7EF0E8",
"T. c #97928E",
"R. c #8B8E88",
"E. c #A59B96",
"W. c #B19E97",
"Q. c #BDA099",
"!. c #869AAC",
"~. c #8FA2B2",
"^. c #A9A6A0",
"/. c #FA8B9C",
"(. c #F88599",
"). c #EC889C",
"_. c #FB8DA1",
"`. c #FD97A7",
"'. c #FFA6B8",
"]. c #CFC4B9",
"[. c #D1C6BC",
"{. c #B1B8C4",
"}. c #93C8CD",
"|. c #A7D7D6",
" X c #AEC9CE",
".X c #9EE0DD",
"XX c #81E4D8",
"oX c #A4E3DC",
"OX c #84F7E9",
"+X c #85FFF6",
"@X c #BDF0E5",
"#X c #CED0D0",
"$X c #C5E5DB",
"%X c #E6E4DB",
"&X c #D0DCE9",
"*X c #D5E5E6",
"=X c #D4FCF5",
"-X c #CCF6F1",
";X c #E7E6E2",
":X c #F0ECE9",
">X c #F5F4ED",
",X c #FBF4ED",
"<X c #E2FFFE",
"1X c #FBFAF5",
"2X c #FDFEFF",
"3X c #F9F5F6",
"4X c None",
/* pixels */
"4X4X4X4X4X4X4X4X4X4X4X4X4X4X4X4X4X4X4X4X4X4X4X4X4X4X4X4X4X4X4X4X4X4X4X4X4X4X4X4X4X4X4X4X4X4X4X4X4X4X",
"4X4X4X4X4X4X4X4X4X4X4X4X4X4X4X4X4X4X4X4X4X4X4X4X4X4X4X4X4X4X4X4X4X4X4X4X4X4X4X4X4X4X4X4X4X4X4X4X4X4X",
"4X4X4X4X4X4X4X4X4X4X4X4X4X4X4X4X4X4X4X4X4X4X4X4X4X4X4X4X4X4X4X4X4X4X4X4X4X4X4X4X4X4X4X4X4X4X4X4X4X4X",
"4X4X4X4X4X4X4X4X4X4X4X4X4X4X4X4X4X4X4X4X4X4X4X4X4X4X4X4X4X4X4X4X4X4X4X4X4X4X4X4X4X4X4X4X4X4X4X4X4X4X",
"4X4X4X4X4X4X4X4X4X4X4X2 2 1 2 2 2 2 2 2 2 2 1 2 2 < 4X4X4X4X4X4X4X4X4X4X4X4X4X4X4X4X4X4X4X4X4X4X4X4X",
"4X4X4X4X4X4X4X4X4X4X4Xw t t t t t t i i i i i i i p 4X4X4X4X4X4X4X4X4X4X4X4X4X4X4X4X4X4X4X4X4X4X4X4X",
"4X4X4X4X4X4X4X4X4X2 y P / / R U R E Q ~ ! Q Q ! _ T 7 @ 4X4X4X4X4X4X4X4X4X4X4X4X4X4X4X4X4X4X4X4X4X4X",
"4X4X4X4X4X4X4X4X4X1 y Y ( ( ( / ( &.(._./././.`.`.%.C 6 4X4X4X4X4X4X4X4X4X4X4X4X4X4X4X4X4X4X4X4X4X4X",
"4X4X4X4X4X4X4X4X4X4X6 u g g g u g R *.*.-.=._.`.`.(._ Y p > 4X4X4X4X4X4X4X4X4X4X4X4X4X4X4X4X4X4X4X4X",
"4X4X4X4X4X4X4X4X4X4X4X> > > % = > f ^ ) ) &.=./.(._.`.).V , 4X4X4X4X4X4X4X4X4X4X4X4X4X4X4X4X4X4X4X4X",
"4X4X4X4X4X4X4X4X4X4X4X4X4X4X4X4X4X6 d I ) @.+.&.(.`.'.).C % 4X4X4X4X4X4X4X4X4X4X4X4X4X4X4X4X4X4X4X4X",
"4X4X4X4X4X4X4X4X4X4X4X4X4X4X4X4X4X4X& u / ) ) +.=./._._ V % 4X4X4X4X4X4X4X4X4X4X4X4X4X4X4X4X4X4X4X4X",
"4X4X4X4X4X4X4X4X4X4X4X4X4X4X4X4X4X4X4X6 f I ) @.*.&.E V 7 4X4X4X4X4X4X4X4X4X4X4X4X4X4X4X4X4X4X4X4X4X",
"4X4X4X4X4X4X4X4X4X4X4X4X4X4X4X4X4X4X4X4X, u R @.#.R i , 4X4X4X4X4X4X4X4X4X4X4X4X4X4X4X4X4X4X4X4X4X4X",
"4X4X4X4X4X4X4X4X4X4X4X4X4X4X4X4X4X4X4X. X ; a L L r :   . 4X4X4X4X4X4X4X4X4X4X4X4X4X4X4X4X4X4X4X4X4X",
"4X4X4X4X4X4X4X4X4X4X4X4X4X4X4X2 2 2 - & & - 1 1 - & & & - - & - & & < 2 2 4X4X4X4X4X4X4X4X4X4X4X4X4X",
"4X4X4X4X4X4X4X4X4X4X4X4X4X4X4X- 2 j A F S S v v v v D D D F ` T.T.R.B 3 # 4X4X4X4X4X4X4X4X4X4X4X4X4X",
"4X4X4X4X4X4X4X4X4X4X4X4X4X4X4XO 2 S l.S.M.M.m.N.N.N.N.B.n.A.$X,X3X:XT.7 . 4X4X4X4X4X4X4X4X4X4X4X4X4X",
"4X4X4X4X4X4X4X4X4X4X4X4X4X4X4XO 3 F J.+XY.S.M.v.z.z.z.z.f.x. X#X&X#XJ &   4X4X4X4X4X4X4X4X4X4X4X4X4X",
"4X4X4X4X4X4X4X4X4X4X4X4X4X4X4XO 2 D Z.OXL.j.1.} } ..} ..] ..X.o.0.o.l % . # * < 2 4X4X4X4X4X4X4X4X4X",
"4X4X4X4X4X4X4X4X4X4X4X4X4X4X4XO 2 D m.U.H.s.} n | 1.1.1.q.<.2.;.;.;.F K K K m 5 2 4X4X4X4X4X4X4X4X4X",
"4X4X4X4X4X4X4X4X4X4X4X4X4X4X4XO 2 D m.U.K.s.} } s.Z.Z.m.M.v.M.n.c.v. X;X%X%XE.M 2 4X4X4X4X4X4X4X4X4X",
"4X4X4X4X4X4X4X4X4X4X4X4X4X4X4XO 2 D C.U.J.s.} <.m.K.Z.b.S.J.M.v.B.K.oX*X2X2X#Xm 2 4X4X4X4X4X4X4X4X4X",
"4X4X4X4X4X4X4X4X4X4X4X4X4X4X4XO 2 D C.OXJ.s.} <.m.Z.e.1.v.Z.a.1.h.D.j.y. X3X[.m 2 4X4X4X4X4X4X4X4X4X",
"4X4X4X4X4X4X4X4X4X4X4X4X4X4X4XO 2 D m.U.G.s.} <.b.b.X.} h.V.1.' e.Z.u.' y.,X].m 2 4X4X4X4X4X4X4X4X4X",
"4X4X4X4X4X4X4X4X4X4X4X4X4X4X4XO 2 D m.U.G.s.| <.m.b.X.} j.V.q.{ a.Z.u.] ~.,X].m 2 4X4X4X4X4X4X4X4X4X",
"4X4X4X4X4X4X4X4X4X4X4X4X4X4X4XO 2 D m.OXJ.s.} ,.b.b.,.} k.Z.q.{ a.Z.u.] ~.>X[.m 2 4X4X4X4X4X4X4X4X4X",
"4X4X4X4X4X4X4X4X4X4X4X4X4X4X4XO 2 D C.U.J.s.} 1.m.b.X.[ h.V.5.' e.V.u.b !.>X].m 2 4X4X4X4X4X4X4X4X4X",
"4X4X4X4X4X4X4X4X4X4X4X4X4X4X4XO 2 D C.OXJ.s.} <.m.M.q.1.l.Z.a.,.s.S.k.3.{.1X#Xm 2 4X4X4X4X4X4X4X4X4X",
"4X4X4X4X4X4X4X4X4X4X4X4X4X4X4XO 2 F m.U.J.s.} <.m.K.M.v.Z.G.V.z.B.G.oX*X3X2X].m 2 4X4X4X4X4X4X4X4X4X",
"4X4X4X4X4X4X4X4X4X4X4X4X4X4X4XO 2 D C.U.J.s.} X.h.Z.Z.M.m.m.M.V.c.m.|.;X:X*X^.M 2 4X4X4X4X4X4X4X4X4X",
"4X4X4X4X4X4X4X4X4X4X4X4X4X4X4XO 2 D m.U.J.s.} n X.q.q.q.1.1.5.q.1.2.:.W J J B 7 2 4X4X4X4X4X4X4X4X4X",
"4X4X4X4X4X4X4X4X4X4X4X4X4X4X4XO 2 F Z.U.K.j.,.{ { } } } } } } } X. .l - o * & 2 2 4X4X4X4X4X4X4X4X4X",
"4X4X4X4X4X4X4X4X4X4X4X4X4X4X4XO 2 F Z.OXL.Z.j.h.s.s.s.s.s.s.a.h.}.{.K $   4X4X4X4X4X4X4X4X4X4X4X4X4X",
"4X4X4X4X4X4X4X4X4X4X4X4X4X4X4XO 2 D m.K.S.N.Z.Z.S.Z.Z.Z.Z.V.B.D.=X3XE.8 . 4X4X4X4X4X4X4X4X4X4X4X4X4X",
"4X4X4X4X4X4X4X4X4X4X4X4X4X4X4X: 2 z q.d.w.w.p.p.i.p.p.p.a.i.w.g..X@XR.5 . 4X4X4X4X4X4X4X4X4X4X4X4X4X",
"4X4X4X4X4X4X4X4X4X4X4X4X4X4X4X> 2 l [ X.} { { { { { { { } { n ..z.S.>.4 o 4X4X4X4X4X4X4X4X4X4X4X4X4X",
"4X4X4X4X4X4X4X4X4X4X4X4X4X4X4X; 2 z 1.i.w.q.q.q.5.5.5.5.5.5.2.e.}..X8.5 o 4X4X4X4X4X4X4X4X4X4X4X4X4X",
"4X4X4X4X4X4X4X4X4X4X4X4X4X4X4XO 2 D m.L.Z.M.M.Z.Z.Z.Z.Z.Z.V.n.A.-X>XE.7 . 4X4X4X4X4X4X4X4X4X4X4X4X4X",
"4X4X4X4X4X4X4X4X4X4X4X4X4X4X4XO 3 F S.OXI.I.I.OXU.I.I.I.U.L.P.OX=X1XQ.7 X 4X4X4X4X4X4X4X4X4X4X4X4X4X",
"4X4X4X4X4X4X4X4X4X4X4X4X4X4X4XO 2 G Z.OXS.S.S.K.S.J.K.K.G.G.S.XX=X>XW.7 X 4X4X4X4X4X4X4X4X4X4X4X4X4X",
"4X4X4X4X4X4X4X4X4X4X4X4X4X4X4X$ 2 A h.F.z.g.6.>.4.4.4.4.>.6.i.j.|.#X` 5 o 4X4X4X4X4X4X4X4X4X4X4X4X4X",
"4X4X4X4X4X4X4X4X4X4X4X4X4X4X4X* 2 l X.r.9.[ j 5 e e e e 9 h n 9.r.0.x 5 * 4X4X4X4X4X4X4X4X4X4X4X4X4X",
"4X4X4X4X4X4X4X4X4X4X4X4X4X4X4X- 2 e x c x s - + O $ O o + # e x c k s 3 4X4X4X4X4X4X4X4X4X4X4X4X4X4X",
"4X4X4X4X4X4X4X4X4X4X4X4X4X4X4X2 2 3 q q q 4 4X4X4X4X4X4X- - 3 q q q 3 4X4X4X4X4X4X4X4X4X4X4X4X4X4X4X",
"4X4X4X4X4X4X4X4X4X4X4X4X4X4X4X2 2 2 2 2 2 2 4X4X4X4X4X4X2 2 2 2 < 3 2 4X4X4X4X4X4X4X4X4X4X4X4X4X4X4X",
"4X4X4X4X4X4X4X4X4X4X4X4X4X4X4X4X4X4X4X4X4X4X4X4X4X4X4X4X4X4X4X4X4X4X4X4X4X4X4X4X4X4X4X4X4X4X4X4X4X4X",
"4X4X4X4X4X4X4X4X4X4X4X4X4X4X4X4X4X4X4X4X4X4X4X4X4X4X4X4X4X4X4X4X4X4X4X4X4X4X4X4X4X4X4X4X4X4X4X4X4X4X",
"4X4X4X4X4X4X4X4X4X4X4X4X4X4X4X4X4X4X4X4X4X4X4X4X4X4X4X4X4X4X4X4X4X4X4X4X4X4X4X4X4X4X4X4X4X4X4X4X4X4X",
"4X4X4X4X4X4X4X4X4X4X4X4X4X4X4X4X4X4X4X4X4X4X4X4X4X4X4X4X4X4X4X4X4X4X4X4X4X4X4X4X4X4X4X4X4X4X4X4X4X4X"
};
