/* XPM */
static char *result[] = {
/* columns rows colors chars-per-pixel */
"50 50 204 2 ",
"   c #010000",
".  c #0C0D0C",
"X  c #050805",
"o  c #190E0E",
"O  c #110A0A",
"+  c #00120F",
"@  c #1A0F10",
"#  c #0A1715",
"$  c #041C14",
"%  c #0D1B18",
"&  c #1A1111",
"*  c #141A19",
"=  c #1D1A1A",
"-  c #141516",
";  c #221C1C",
":  c #2B131B",
">  c #1A201E",
",  c #15201C",
"<  c #2B1C20",
"1  c #1C2327",
"2  c #222323",
"3  c #262C2D",
"4  c #2D2C2B",
"5  c #282629",
"6  c #34252A",
"7  c #382A2D",
"8  c #2C302F",
"9  c #30302F",
"0  c #252E33",
"q  c #3F2830",
"w  c #293539",
"e  c #273037",
"r  c #393332",
"t  c #651D35",
"y  c #432A32",
"u  c #4E2C37",
"i  c #572E3C",
"p  c #413133",
"a  c #483437",
"s  c #70263C",
"d  c #41413F",
"f  c #6A3145",
"g  c #7C354D",
"h  c #723148",
"j  c #6B2E44",
"k  c #2F434E",
"l  c #314442",
"z  c #324D5A",
"x  c #344A56",
"c  c #39575C",
"v  c #305366",
"b  c #2F6C61",
"n  c #396D65",
"m  c #28627F",
"M  c #3B627A",
"N  c #3C727A",
"B  c #4E4C4A",
"V  c #474644",
"C  c #595652",
"Z  c #6C454B",
"A  c #72494F",
"S  c #7B4B53",
"D  c #416A66",
"F  c #46716C",
"G  c #4B726C",
"H  c #497975",
"J  c #497A74",
"K  c #4A717B",
"L  c #676564",
"P  c #6C7973",
"I  c #92294C",
"U  c #883853",
"Y  c #9E3D5D",
"T  c #B33C66",
"R  c #AF3D65",
"E  c #89525B",
"W  c #B44268",
"Q  c #AE4B68",
"!  c #AE656F",
"~  c #AF6272",
"^  c #B16B72",
"/  c #B46975",
"(  c #CA4572",
")  c #DB4379",
"_  c #D74A79",
"`  c #C15072",
"'  c #C3456F",
"]  c #E4467D",
"[  c #E04B7D",
"{  c #4D837E",
"}  c #87817A",
"|  c #3C6782",
" . c #3D6D86",
".. c #326984",
"X. c #3A7F93",
"o. c #416F88",
"O. c #416E87",
"+. c #43738B",
"@. c #45788F",
"#. c #4A7F88",
"$. c #467B92",
"%. c #497C93",
"&. c #577D95",
"*. c #E65C84",
"=. c #FC528B",
"-. c #F75389",
";. c #ED4A82",
":. c #D77786",
">. c #C37280",
",. c #EB6A8B",
"<. c #E6788C",
"1. c #FF6B97",
"2. c #F57892",
"3. c #F8678F",
"4. c #3B8597",
"5. c #4A8396",
"6. c #4B8698",
"7. c #4F8D9D",
"8. c #448496",
"9. c #508F9F",
"0. c #43909E",
"q. c #51909E",
"w. c #589C98",
"e. c #549088",
"r. c #738D8C",
"t. c #5BA19C",
"y. c #5294A1",
"u. c #569BA6",
"i. c #579EAA",
"p. c #528FA3",
"a. c #6992A5",
"s. c #4CA4AB",
"d. c #46A0A9",
"f. c #5AA3AB",
"g. c #58A6AA",
"h. c #5DACB2",
"j. c #5FB4B6",
"k. c #62B5BA",
"l. c #65BBBB",
"z. c #67B8BB",
"x. c #61ACAB",
"c. c #5FC8BF",
"v. c #65C0BF",
"b. c #6BC6BF",
"n. c #5BBEC3",
"m. c #70BAC1",
"M. c #5CC5C2",
"N. c #67C0C5",
"B. c #69C5C3",
"V. c #6CCAC5",
"C. c #6FCFC8",
"Z. c #65CBC5",
"A. c #74CAC7",
"S. c #64D2CA",
"D. c #6ED0CA",
"F. c #71D4CD",
"G. c #74D8CF",
"H. c #75DDD3",
"J. c #76DFD9",
"K. c #76E0D5",
"L. c #7AE6DC",
"P. c #7BE9DF",
"I. c #77E2DA",
"U. c #7CECE1",
"Y. c #7EF1E6",
"T. c #79F2E5",
"R. c #8B8885",
"E. c #969597",
"W. c #8F9890",
"Q. c #A89C94",
"!. c #879EAE",
"~. c #9FB2BE",
"^. c #8FA5B3",
"/. c #ACAEB0",
"(. c #F58596",
"). c #FD8B9C",
"_. c #FF869C",
"`. c #FF8EA0",
"'. c #FE94A5",
"]. c #FF97A9",
"[. c #FFA4B8",
"{. c #CEC5BA",
"}. c #D0C6BA",
"|. c #91B8C2",
" X c #96D4D0",
".X c #B1D4D3",
"XX c #A5E5DF",
"oX c #83FCF1",
"OX c #AFECE4",
"+X c #C8D5D8",
"@X c #D7DAD9",
"#X c #D0CAC1",
"$X c #E0DDDB",
"%X c #D9E7EC",
"&X c #CDFBF1",
"*X c #C7F5E8",
"=X c #F4EDE2",
"-X c #F6F5EF",
";X c #FDF7EE",
":X c #F6F5F2",
">X c #FFFFFE",
",X c #FBFCF3",
"<X c #ECF5FB",
"1X c None",
/* pixels */
"1X1X1X1X1X1X1X1X1X1X1X1X1X1X1X1X1X1X1X1X1X1X1X1X1X1X1X1X1X1X1X1X1X1X1X1X1X1X1X1X1X1X1X1X1X1X1X1X1X1X",
"1X1X1X1X1X1X1X1X1X1X1X1X1X1X1X1X1X1X1X1X1X1X1X1X1X1X1X1X1X1X1X1X1X1X1X1X1X1X1X1X1X1X1X1X1X1X1X1X1X1X",
"1X1X1X1X1X1X1X1X1X1X1X1X1X1X1X1X1X1X1X1X1X1X1X1X1X1X1X1X1X1X1X1X1X1X1X1X1X1X1X1X1X1X1X1X1X1X1X1X1X1X",
"1X1X1X1X1X1X1X1X1X1X1X1X1X1X1X1X1X1X1X1X1X1X1X1X1X1X1X1X1X1X1X1X1X1X1X1X1X1X1X1X1X1X1X1X1X1X1X1X1X1X",
"1X1X1X1X1X1X1X1X1X1X1X2 2 1X1X1X1X1X1X1X1X1X1X1X1X1X1X1X1X1X1X1X1X1X1X1X1X1X1X1X1X1X1X1X1X1X1X1X1X1X",
"1X1X1X1X1X1X1X1X1X1X1Xy y 6 1X1X1X1X1X1X1X1X1X1X1X1X1X1X1X1X1X1X1X1X1X1X1X1X1X1X1X1X1X1X1X1X1X1X1X1X",
"1X1X1X1X1X1X1X1X1X2 q Y W i $ $ % % # # # # # # # * 1X1X1X1X1X1X1X1X1X1X1X1X1X1X1X1X1X1X1X1X1X1X1X1X",
"1X1X1X1X1X1X1X1X1X2 y W ( U 7 7 q y r p p p p p p 7 1X1X1X1X1X1X1X1X1X1X1X1X1X1X1X1X1X1X1X1X1X1X1X1X",
"1X1X1X1X1X1X1X1X1X1X6 u g Y T T W Q ^ ^ ^ ~ ! / / E 7 + 1X1X1X1X1X1X1X1X1X1X1X1X1X1X1X1X1X1X1X1X1X1X",
"1X1X1X1X1X1X1X1X1X1X1X$ 5 U [ ] _ ,.).`.).).).'.].:.A 1 1X1X1X1X1X1X1X1X1X1X1X1X1X1X1X1X1X1X1X1X1X1X",
"1X1X1X1X1X1X1X1X1X1X1X1X1Xi g h g ` 1.1.3.2.).].].(.>.E a > 1X1X1X1X1X1X1X1X1X1X1X1X1X1X1X1X1X1X1X1X",
"1X1X1X1X1X1X1X1X1X1X1X1X1X> 1 $ 1 h ( ] ) *.2.).).).].<.A * 1X1X1X1X1X1X1X1X1X1X1X1X1X1X1X1X1X1X1X1X",
"1X1X1X1X1X1X1X1X1X1X1X1X1X1X1X1X1X7 j T ] -.*.<.(.'.[.).S # 1X1X1X1X1X1X1X1X1X1X1X1X1X1X1X1X1X1X1X1X",
"1X1X1X1X1X1X1X1X1X1X1X1X1X1X1X1X1X1X= j ' ;.) *.2.).'.:.Z * 1X1X1X1X1X1X1X1X1X1X1X1X1X1X1X1X1X1X1X1X",
"1X1X1X1X1X1X1X1X1X1X1X1X1X1X1X1X1X1X1X6 f W ) =.3.,.~ A r 1X1X1X1X1X1X1X1X1X1X1X1X1X1X1X1X1X1X1X1X1X",
"1X1X1X1X1X1X1X1X1X1X1X1X1X1X1X1X1X1X1X1X> f ' =.-.W i > 1X1X1X1X1X1X1X1X1X1X1X1X1X1X1X1X1X1X1X1X1X1X",
"1X1X1X1X1X1X1X1X1X1X1X1X1X1X1X1X1X1X1X. X : s I I t : X . 1X1X1X1X1X1X1X1X1X1X1X1X1X1X1X1X1X1X1X1X1X",
"1X1X1X1X1X1X1X1X1X1X1X1X1X1X1X2 2 ; = = = ; < < < ; ; = = = = * % $ 1 2 2 1X1X1X1X1X1X1X1X1X1X1X1X1X",
"1X1X1X1X1X1X1X1X1X1X1X1X1X1X1X= 2 l D F D n n b b n n G n F P } } ^ C 5 * 1X1X1X1X1X1X1X1X1X1X1X1X1X",
"1X1X1X1X1X1X1X1X1X1X1X1X1X1X1X& 2 F l.F.b.b.V.Z.V.V.C.b.c. X.X=X:X=XE.0 . 1X1X1X1X1X1X1X1X1X1X1X1X1X",
"1X1X1X1X1X1X1X1X1X1X1X1X1X1X1Xo 2 { K.oXU.I.C.m.N.N.N.N.c.V..X+X%X@XR.<   1X1X1X1X1X1X1X1X1X1X1X1X1X",
"1X1X1X1X1X1X1X1X1X1X1X1X1X1X1X& 5 J D.oXI.l.9.@.@.@.$.$.+.@.&.&.7.&.x - X . - 2 2 1X1X1X1X1X1X1X1X1X",
"1X1X1X1X1X1X1X1X1X1X1X1X1X1X1X& 2 J D.Y.J.h.+.M @.6.6.6.5.8.8.4.4.X.G L L L B 6 2 1X1X1X1X1X1X1X1X1X",
"1X1X1X1X1X1X1X1X1X1X1X1X1X1X1X& 2 J D.Y.H.h.@.@.h.C.V.V.B.m.B.V.c.l..X@X$X@XE.d 2 1X1X1X1X1X1X1X1X1X",
"1X1X1X1X1X1X1X1X1X1X1X1X1X1X1X& 2 J C.Y.K.h.@.6.B.L.F.V.H.K.F.V.S.J.XX%X>X>X{.B 2 1X1X1X1X1X1X1X1X1X",
"1X1X1X1X1X1X1X1X1X1X1X1X1X1X1X& 2 J C.P.K.x.+.6.V.F.g.q.v.F.f.9.j.H.z.a..X>X{.B 2 1X1X1X1X1X1X1X1X1X",
"1X1X1X1X1X1X1X1X1X1X1X1X1X1X1X& 2 J C.oXH.h.+.6.B.V.@.O.k.F.q.| f.F.d...!.-X}.B 2 1X1X1X1X1X1X1X1X1X",
"1X1X1X1X1X1X1X1X1X1X1X1X1X1X1X& 5 J C.Y.K.h.@.6.V.B.5.+.k.F.y.O.g.F.d...^.-X}.B 2 1X1X1X1X1X1X1X1X1X",
"1X1X1X1X1X1X1X1X1X1X1X1X1X1X1X& 2 J F.Y.K.h.+.6.V.V.5.@.z.F.y. .f.G.s. .^.-X{.B 2 1X1X1X1X1X1X1X1X1X",
"1X1X1X1X1X1X1X1X1X1X1X1X1X1X1X& 2 J C.Y.K.h.@.6.V.B.$. .k.D.q.| f.F.d.m !.-X}.B 2 1X1X1X1X1X1X1X1X1X",
"1X1X1X1X1X1X1X1X1X1X1X1X1X1X1X& 2 J C.Y.H.h.@.6.B.C.7.5.l.D.f.@.h.F.h.%.~.,X{.B 2 1X1X1X1X1X1X1X1X1X",
"1X1X1X1X1X1X1X1X1X1X1X1X1X1X1X& 2 J C.Y.K.h.+.5.V.K.V.l.G.K.V.z.S.L. X+X<X>X#XB 2 1X1X1X1X1X1X1X1X1X",
"1X1X1X1X1X1X1X1X1X1X1X1X1X1X1X& 5 H C.Y.H.h.@.$.l.H.G.F.F.D.F.F.S.F.XX=X:X:X/.V 2 1X1X1X1X1X1X1X1X1X",
"1X1X1X1X1X1X1X1X1X1X1X1X1X1X1X& 2 H C.Y.K.h.+.M 5.u.u.u.y.y.u.u.0.0.r.R.R.R.L 9 2 1X1X1X1X1X1X1X1X1X",
"1X1X1X1X1X1X1X1X1X1X1X1X1X1X1X& 2 J C.U.K.k.5.|  .+. .+.o.o.O.O.%.+.z 5 & = 2 2 2 1X1X1X1X1X1X1X1X1X",
"1X1X1X1X1X1X1X1X1X1X1X1X1X1X1X& 2 J H.oXI.D.k.g.f.f.f.f.f.i.g.h.|.~.L *   . - > 2 1X1X1X1X1X1X1X1X1X",
"1X1X1X1X1X1X1X1X1X1X1X1X1X1X1X& 2 J F.U.G.G.F.F.F.F.F.F.F.F.S.G.&X;XQ.8 + 1X1X1X1X1X1X1X1X1X1X1X1X1X",
"1X1X1X1X1X1X1X1X1X1X1X1X1X1X1X& 5 c u.h.i.i.h.h.h.h.h.h.h.h.s.h.XX*XW.8 O 1X1X1X1X1X1X1X1X1X1X1X1X1X",
"1X1X1X1X1X1X1X1X1X1X1X1X1X1X1X; 2 x O.$.+.+.O.O.+.+.+.o.+.o.| +.m.F.6.8 & 1X1X1X1X1X1X1X1X1X1X1X1X1X",
"1X1X1X1X1X1X1X1X1X1X1X1X1X1X1X& ; c 9.i.9.9.9.9.7.7.7.7.7.7.5.y. XXXr.3 O 1X1X1X1X1X1X1X1X1X1X1X1X1X",
"1X1X1X1X1X1X1X1X1X1X1X1X1X1X1Xo < F V.U.Z.Z.b.V.C.C.C.D.V.V.v.C.&X,XQ.4 X 1X1X1X1X1X1X1X1X1X1X1X1X1X",
"1X1X1X1X1X1X1X1X1X1X1X1X1X1X1X3 k #.m.I.U.Y.oXP.P.P.P.P.T.T.T.P.OX+XE.z 1 1X1X1X1X1X1X1X1X1X1X1X1X1X",
"1X1X1X1X1X1X1X1X1X1X1X1X1X= 5 x O.@.8.j.J.oXK.P.L.L.L.L.L.L.U.L.m.a.&. .z 0 = 1X1X1X1X1X1X1X1X1X1X1X",
"1X1X1X1X1X1X1X1X1X1X1X1X1X= 5 k M v v K w.g.w.t.t.t.t.t.t.t.x.w...z v M z 3 ; 1X1X1X1X1X1X1X1X1X1X1X",
"1X1X1X1X1X1X1X1X1X1X1X1X1X2 2 3 w e 0 w l l l l l l l l l l l l w 0 0 w 3 5 ; 1X1X1X1X1X1X1X1X1X1X1X",
"1X1X1X1X1X1X1X1X1X1X1X1X1X2 2 2 2 2 2 2 2 2 2 2 2 2 ; 2 2 2 2 2 2 2 2 1 2 2 2 1X1X1X1X1X1X1X1X1X1X1X",
"1X1X1X1X1X1X1X1X1X1X1X1X1X1X1X1X1X1X1X1X1X1X1X1X1X1X1X1X1X1X1X1X1X1X1X1X1X1X1X1X1X1X1X1X1X1X1X1X1X1X",
"1X1X1X1X1X1X1X1X1X1X1X1X1X1X1X1X1X1X1X1X1X1X1X1X1X1X1X1X1X1X1X1X1X1X1X1X1X1X1X1X1X1X1X1X1X1X1X1X1X1X",
"1X1X1X1X1X1X1X1X1X1X1X1X1X1X1X1X1X1X1X1X1X1X1X1X1X1X1X1X1X1X1X1X1X1X1X1X1X1X1X1X1X1X1X1X1X1X1X1X1X1X",
"1X1X1X1X1X1X1X1X1X1X1X1X1X1X1X1X1X1X1X1X1X1X1X1X1X1X1X1X1X1X1X1X1X1X1X1X1X1X1X1X1X1X1X1X1X1X1X1X1X1X"
};
