/* XPM */
static char *c9503f065d74481ac0f2957a0b3b3addk4hWGBVX8G1v7tk9[] = {
/* columns rows colors chars-per-pixel */
"50 50 46 1 ",
"  c #1E1F1F",
". c #1E1F20",
"X c #1F2020",
"o c #242323",
"O c #292726",
"+ c #2B2827",
"@ c #332D2D",
"# c #37302F",
"$ c #38312F",
"% c #373030",
"& c #3B3332",
"* c #413736",
"= c #433837",
"- c #463A39",
"; c #493B3A",
": c #4F403E",
"> c #50403F",
", c #534340",
"< c #544341",
"1 c #554441",
"2 c #584643",
"3 c #594744",
"4 c #594843",
"5 c #5A4845",
"6 c #5E4A46",
"7 c #5F4C47",
"8 c #5F4B48",
"9 c #604C47",
"0 c #604B48",
"q c #614C48",
"w c #644F4A",
"e c #66504B",
"r c #67514C",
"t c #69524D",
"y c #6B544E",
"u c #6D554F",
"i c #6F5650",
"p c #705751",
"a c #715851",
"s c #745A53",
"d c #755A54",
"f c #775C55",
"g c #7B5F57",
"h c #7B5F58",
"j c #7C5F58",
"k c #7D6159",
/* pixels */
"ooooXXXoO#**@OoXoooooXXo+&-;;;;;-&@oo@**$OoXooXX. ",
"oooooooo+%=*#+oooooooooo@&-;;;;;;*@OO@*=%+oooooooo",
"oooO++++@&==%@++++++++++@&-;;;;;;*%@@%==&@++++@#%%",
"XoO@#%%%&*--*&%%%%%%%%%%&=-;;;;;;-&%&*--*&%%%&=:11",
"oo+%*---------------------;;;;;;;----------==;1qua",
"O+@&-;;;;;;;;;;;;;;;;;;;;;;;;;;;;;;;;;;;;;;;;;6ufj",
"%%&*;;;;;;;;;;;;;;;;;;;;;;;;;;;;;;;;;;;;;;;;;;6ufj",
"==--;;;;;;;;;;;;;;;;;;;;;;;;;;;;;;;;;;;;;;;--;5tdg",
";;;;;;;;;;;;;;;;;;;;;;;;;;;;;;;;;;;;;;;;;;;-;;5tdg",
";;;;;;;;;;;;----;;;;;;;;;;;;;;;;;;;;;;;;;;;;;;5tdg",
";;;;;;;;;;;;;;;;;;;;;;;;;;;;;;;;;;;;;;;;;;;;-;5tdg",
"**=--;;;--;;;>>;;;;;;;;;;;;;;;;;;;;;;;;;;;;--;5tdg",
"@@%*-;;----;1662:;-----;;;;;;;;;;;;;;;;;;;;--;5tdg",
"oO@&-;;;--;:6tt6>;--;;;;;;;;;;;;;;;;;;;;;;;--;5tdg",
"oO@%-;;::::16ew2;--;;;;;;;;;;;;;;;;;;;;;;;;-;;5tdg",
"@@%&-:26qqq641;=%%-163>;;----;;;;;;;;;;;;;;--;6tdg",
"***=;,6tpapw>&@+O@-6tq1;-;--;;;;;;;;;;;;;;;--;5tdg",
"===-;>6tuau9;@ooo+=6e7>--;;;;;;;;;;;;;;;;;;--;2eia",
"%%&*;;>,111:*@++@@*;>;&%=>53>;--;;;;;;;;;;;--;,5qq",
"++@&--*%##$$%&&&&&%%#@+@*2rw2;--;;;;;;;;;;;;;;;>,,",
"oo+%*&@+ooO+#*-;;=%@Ooo+&2te2;--;;;;;;;;;;;;;;;;;;",
"XoO@@$@@+++@%-;;;-&@+++@&;11>;;----;--;;;;;-;;:125",
"oooo+@@%%%%&*-;;;;=&&%&&%%%&=;;;------;;;;;--;1qtu",
"ooooO+%=;----;;;;;;;----&@+@%=;;;;;;;;;;;;;--;2eps",
"oooO+@&-;;;;;;;;;;;;;;;-*@++@%*;15531>;------;<6et",
"XoO@%&=;;;;;;;;;;;;;;;;;-*%@++&>quitw2;------;;,12",
"oo+%*-;;;;;;;;;;;;;;;;;;--=%@+%>taspt6>;;;;;;;;;;;",
"++@&-;;;;;;;;;;;;;;;;;;--**&%&=>69996521112111111<",
"%%&=;;;;;;;;;;;;;;;;;;--&#@&;11:=*&*;1qtttttttreww",
"----;;;;;;;;;;;;;;;;;;;-&++%1e9;@Oo+#:wpaapppaaaas",
";;;;;;;;;;;;;;;;;;--;;<>=@o#>w7;@ooO@-2qwwqqqwyagg",
";;;;;;;;;;;;;;;;;;--;18q:@o@-11;%@@@%&=======;4ygk",
";;;;;;;;;;;;;;;;;;--;3rt1&O+&;;;-===&%@++++++@;qag",
"&**--;;;;;;;;;;;;;;>16qq>&+@%-;;;;;;=%+OoOOoo+=5tp",
"@@%*-;;;;;;;;;;--;16q6>;*&%%*-;;;;;;-&%@@@@@@%=>50",
"oO@%-;;;;;;;;;;--;5tt2=@@%=---;;;;;;--=******=;;;>",
"oo+%-;;;;;;;;;;-;;2qq>%+@&-;;;;;;;;;;;;;;;;;;;;---",
"Xo+%-;;;;;;;;;;-;;;;;=%@%*;;;;;;;;;;;;;;;;;;;;;---",
"oo+%-;;;;;;;;;;;;-&$@#&*=-;;;;;;;;;;;;;;;;;;;;;---",
"oo+%-;;;;;;;;;;;>;&+o+&-;;;;;;;;;;;;;;;;;;;;;;;;::",
"oo+%-;;;;;;;-;;164=@o+&-;;;;;;;;;;;;;;;;;;;--;>166",
"oo+%-;;;;;;;-;;6te>@O+&-;;;;;;;;;;;;;;;;;;;--;1qyi",
"oo+%-;;;;;;;-;;5ew:@o+%-;;;;;;;;;;;;;;;;;;;--;5tsg",
" oO%=;;---;;--;;>;&+o+%-;----------;;-;;-----;5tdg",
".o+%=;;--;;;;--*%@+oo+&-;;--------;;;;-;-----;3tdg",
"O+@&;;;;;;;;;;;&@+ooO@*;;;;;;;;;;;;;;;;;;;;;;>6ydg",
"==;>25651>;;>11:-&$@@*;26555555551>;;>15555336eidg",
"69qettytq1;;2wteq5:=*;6tyttttttytq1;;2qtyttttyiafg",
"aaasddfst5:>6udfdu6>;1eadddddddfst5:>6udfddddddfff",
"hgggggggi6:>6pgkkde1>3tfgggggggggi6:>6pgggggggggff"
};
