/* XPM */
static char *_a4ac594b11b4435e9e6e62a2ddcf234cIB4vREDvRIZB3yn[] = {
/* columns rows colors chars-per-pixel */
"50 50 47 1 ",
"  c #1E1F1F",
". c #1E1F20",
"X c #1F2020",
"o c #232323",
"O c #292626",
"+ c #2A2827",
"@ c #2D2929",
"# c #322D2C",
"$ c #37302F",
"% c #38312F",
"& c #373030",
"* c #3C3332",
"= c #413635",
"- c #443837",
"; c #463A39",
": c #493B3A",
"> c #4B3D3C",
", c #4C3E3C",
"< c #4D3F3C",
"1 c #4E3F3D",
"2 c #4F413D",
"3 c #53433F",
"4 c #524240",
"5 c #544341",
"6 c #544441",
"7 c #574642",
"8 c #594743",
"9 c #5A4844",
"0 c #5C4946",
"q c #604C47",
"w c #624E48",
"e c #644F4A",
"r c #66504B",
"t c #67514C",
"y c #6A534D",
"u c #6B544E",
"i c #6C544F",
"p c #6F5650",
"a c #705751",
"s c #725952",
"d c #745A53",
"f c #755A54",
"g c #775C55",
"h c #795E56",
"j c #7B5F58",
"k c #7C5F58",
"l c #7C6058",
/* pixels */
"hhhlgw-@#2ihlhhhhhhhhhhhjlf0*@#3phlhhhhhhhhkks7*O ",
"fffhs0=@#,yfhfffffffffffggs9*@#3ufgffffffffggi7*O.",
"yyuiy7*+#;0yiyyyyyyyyyyyuir7*+#,wuiyyyyyyyyiie2$OX",
"99908,$O@*39099999999999008,#O@=59099999999007;#OX",
",,,,>=#OO*;,,,,,>>,,,,,,,,,*#O@*;,,,,,,,,,,,,;*@oo",
";;::;*#OO#=:,:;=**=;;::;::;*@O+$-:::;;;;::;;=*#Ooo",
":::,;*#OO#=:,:;*##*=;::::,;*@O+$-:,:::::::;*##OOoo",
";;::;*#OO#=:,:=$@+#*;::;::;*@O+$-:::;;;:::-*@Ooooo",
"**==**@OO@*===*#Oo@$*=**==*#+OO#*====***=**#Oooooo",
"#####@OooO@####OooO+#######+OooO@#########@OoXXooo",
"OOOOOOoooOOOOOOOoooOOOOOOOOOoooOOOOOOOOOOOOOoooooo",
"##@OoO+####@OooO@################@OooO@#######@Ooo",
"2,*@OO*,232-#OO#-222,,,,,,,22222,-#OO#-,22,22,*@oX",
"ue3*O#,qyiy9-@@*8tuyyyyyyyyyttyur8*@@-9yyyyyyw,#OX",
"di9=#%3tsfaw;@@-0pssaaaaaaaaaassp0-@@;wassassy3%O.",
"tw7-**20tye8=@@*7etreeeeeeeeeerte7*@@=8eytrtt0,#OX",
"54,;=-,3574,*+O$:4754444444444574:$O+*,4775772=#oX",
",:::;;;:,,,=#OO#=:,,,,,,,,,,,,,,:=#OO#=::;;;:;*@oX",
";;:,::::::;=#OO#*;::;;;;;;;;;;::;*#OO#=;=***--*@oo",
";;:,,,,::,:=#OO#=:,::::;:::::;:,:=#OO#=-*#@$=-*@oo",
";;;;;;;;;;;*#OO#*-;;;;;;;;;;;;;;-*#OO#**#OO#*=*@oo",
"**********&#+ooO#&**********&***&#Ooo@##@ooO#$#Ooo",
"++++++++++OOOoooOO++++@@@++OO+++OOoooOOOOooOO+OOoo",
"OOOOOOOOOOOOOOOOOOOOOOOoOOOOOOOOOOOOOOO+OOOOOooooo",
"*********************#OoO#*****************#Oooooo",
"990000000000000000007-#O#;80000000000000007-#oXooo",
"ppppappppppppppsppssy3$+%4yssppppppppppsssr2#oXooo",
"uuiiiiiiiiiiiiiiiippr2#O$3tppiiiiiiiiiiippw,#oXooo",
"000000000000900000007-#O#;80000000000900007-@oXooo",
",,,,,,,,,,>>,,,,,,,,:*@O@*,,,,,,,,,,,,,,,,;*@ooooo",
";;;;;::;;=**=;;:::::;*@O@*;::;;;;;;;;;;:::-*+ooooo",
"::::::::=*##*-::::,,;*@O@*;,,:::::::::::,:-*+ooooo",
";;;;;::;=#+@#=;::;::-*@O@*;::;;;;;;;;;;:::-*+ooooo",
"*****==**@OO@**=**==*#OOO#*==***==******=**#Oooooo",
"########@OooO@######@OoooO@###############@OoXoooo",
"OOOOOOOOOoooOOOOOOOOOOoooOOOOOOOOOOOOOOOOOOOoooooo",
"#####@OoOO@###################@OoOO@#########@+Ooo",
",,22,=#OO%;222,,,,,,,22222,22,=#OO$;222,,,,22,*@oo",
"yyyyr7*+@-0yuytyytyyyyyyyyyyyr7*+@-0yyyyyyyyyw,#OX",
"aassp9*@#,esssaaaaaaaaaaaaassp9*@#,esssaaaassy3%O.",
"eertw4*+@-9eteeeeeeeeerrreertw4*+@-9rytreeett0,#OX",
"44574;#O@*,5744444444455544574;#O@*,5755444772=#oX",
",,,,:*#OO#-,,,,,::,,:;;;;;:,,:*#OO#-::;;;:,,,;*@oo",
";;::;*#OO#=:::;;;;::;=***=;:,;*#OO#=;=***-;,:;*@oX",
"::,,;*#OO#=:,:::::,,;*#@#*;,>;*#OO$=-*#@$=:>,;*@oX",
";;;;-*@OO#*;;;;;;;;;=$@O@*=;;-*@OO#**#OO#*;;;=$+oo",
"*****#+OO@#*********$@OoO#****#+OO@##@Oo+#***$#Ooo",
"@@@@@OOooO+@@@@@@@@@@OooOO@@@@OOooO++OooOO@@@@OOoo",
"oooooooooooooooooooooooooooooooooooooooooooooooooo",
"XXoXoooooooooXXoooXooooooooooXoooooooooooooooXoooo"
};
