/* XPM */
static char *_b100842e6874f8bf7f46dcfea225cf5jgK4Jg5xwpkxpOn5[] = {
/* columns rows colors chars-per-pixel */
"50 50 155 2 ",
"   c None",
".  c #010C1F",
"X  c #140A24",
"o  c #1B0B24",
"O  c #0C1820",
"+  c #1B1427",
"@  c #111921",
"#  c #1C1822",
"$  c #250F25",
"%  c #2E0F27",
"&  c #261226",
"*  c #211A23",
"=  c #2B1B27",
"-  c #2F1628",
";  c #2F1C28",
":  c #222222",
">  c #242B22",
",  c #2D2C23",
"<  c #332126",
"1  c #3C2425",
"2  c #312823",
"3  c #2C3D23",
"4  c #343325",
"5  c #3D3726",
"6  c #393A25",
"7  c #461A2C",
"8  c #531F2E",
"9  c #5A1E30",
"0  c #681C2B",
"q  c #412A25",
"w  c #4C2E22",
"e  c #402229",
"r  c #522B26",
"t  c #55212D",
"y  c #5C222F",
"u  c #562C29",
"i  c #58282B",
"p  c #4D3122",
"a  c #5C3327",
"s  c #563C25",
"d  c #5A3B24",
"f  c #57342C",
"g  c #5E2130",
"h  c #63232F",
"j  c #68272E",
"k  c #6B2B2E",
"l  c #742D2E",
"z  c #7B2E2D",
"x  c #6B3A25",
"c  c #6B312A",
"v  c #77322C",
"b  c #7D322D",
"n  c #652330",
"m  c #672830",
"M  c #752631",
"N  c #712D31",
"B  c #6E3B32",
"V  c #713032",
"C  c #763C32",
"Z  c #4B4628",
"A  c #56452A",
"S  c #5D532A",
"D  c #6F4F26",
"F  c #704D27",
"G  c #625029",
"H  c #615A2B",
"J  c #744335",
"K  c #843E27",
"L  c #84342C",
"P  c #8A342E",
"I  c #863B2B",
"U  c #8C3D2A",
"Y  c #983E26",
"T  c #933D28",
"R  c #803131",
"E  c #823C34",
"W  c #864B26",
"Q  c #8F4029",
"!  c #9B4827",
"~  c #954329",
"^  c #994628",
"/  c #975B27",
"(  c #995B27",
")  c #8A5932",
"_  c #955232",
"`  c #A44721",
"'  c #A44B25",
"]  c #A94E22",
"[  c #A04E2A",
"{  c #AA5224",
"}  c #A6542A",
"|  c #AA512B",
" . c #B45426",
".. c #BB5624",
"X. c #BD5B26",
"o. c #B05D2B",
"O. c #86672B",
"+. c #8E7531",
"@. c #BB6D2A",
"#. c #A9722A",
"$. c #A96834",
"%. c #AE7435",
"&. c #B87532",
"*. c #B17B37",
"=. c #C05522",
"-. c #C95721",
";. c #C25D24",
":. c #C56025",
">. c #CC6424",
",. c #C36D2D",
"<. c #D06724",
"1. c #C77B2C",
"2. c #D1752A",
"3. c #D87E2B",
"4. c #C47731",
"5. c #C37D35",
"6. c #D97730",
"7. c #EB7B29",
"8. c #B4842F",
"9. c #BD8236",
"0. c #B38138",
"q. c #B98A3B",
"w. c #A49135",
"e. c #A99031",
"r. c #B69A38",
"t. c #BDBF3A",
"y. c #C08A3A",
"u. c #DC9837",
"i. c #ED852B",
"p. c #E3892E",
"a. c #E98F2E",
"s. c #F0842B",
"d. c #F08E2D",
"f. c #F98A2B",
"g. c #F3942E",
"h. c #EE8231",
"j. c #E28F38",
"k. c #F69C31",
"l. c #C1AA38",
"z. c #DFAB3C",
"x. c #D5B53B",
"c. c #D9BB3E",
"v. c #E6AF3A",
"b. c #FFA330",
"n. c #F7AA35",
"m. c #FBAE35",
"M. c #F7B83B",
"N. c #FBB938",
"B. c #DACA3D",
"V. c #FFC135",
"C. c #FFC239",
"Z. c #FFCC3C",
"A. c #FFE33F",
"S. c #FFEF3F",
"D. c #FFFC42",
/* pixels */
"                                                                                                    ",
"                                                                                                    ",
"                                                                                                    ",
"                                                                                                    ",
"                                                                                                    ",
"                                                                                                    ",
"                                                                                                    ",
"                                                                                                    ",
"                                                                                                    ",
"                                                                                                    ",
"                                                                                                    ",
"                                                                                                    ",
"                            : : : :                             : : : :                             ",
"                          4 S A < *                             * < A S 4                           ",
"                    : @ . H x.y.y $ @ O @ @ @ @ @ @ @ @ @ @ O @ $ y y.x.H . @ :                     ",
"                    : 2 s 8.C.j.L c F D F F F F F F F F F F D F c L j.C.8.s 2 :                     ",
"                    : s 1.k.g.,.Q o.p.a.p.p.p.p.p.p.p.p.p.p.a.p.o.Q ,.g.k.1.s :                     ",
"                    : d 2.b.m.&.b | s.f.s.s.s.s.s.s.s.s.s.s.f.s.| b &.m.b.2.d :                     ",
"                    : w ] g.Z.q.n L :.>.:.:.:.:.:.:.:.:.:.:.>.:.L n q.Z.g.] w :                     ",
"                    : w ] i.n.5.b T ;.:.;.;.;.;.;.;.;.;.;.;.:.;.T b 5.n.i.] w :                     ",
"                    : p { 7.g.,.Q ' :.>.:.:.:.:.:.:.:.:.:.:.>.:.' Q ,.g.7.{ p :                     ",
"                    : w { d.N.9.l U :.>.:.>.>.>.<.<.>.>.>.:.>.:.U l 9.N.d.{ w :                     ",
"                    : w ] g.Z.q.m L ;.>.;.;.X... . ...X.;.;.>.;.L m q.Z.g.] w :                     ",
"                    : w ` 7.k.4.I Y =.-... .^ z 0 0 z ^  ...-.=.Y I 4.k.7.` w :                     ",
"                    : s @.g.k.,.U } 3.p.2.[ v C J J C v [ 2.p.3.} U ,.k.g.@.s :                     ",
"                    : G v.A.Z.%.j $.Z.A.M._ k 0.c.c.*.k _ M.A.Z.$.j %.Z.A.v.G :                     ",
"                    : Z w.B.Z.5.l ) l.t.r.B N u.S.D.z.V B r.t.l.) l 5.Z.B.w.Z :                     ",
"                    : : > O.k.h.~ a 6 3 5 7 R 6.V.A.v.E 7 5 3 6 a ~ h.k.O.> : :                     ",
"                    : # X r / ( x 1 o o $ - u W #.e.+.f % $ o o 1 x ( / r X # :                     ",
"                    : < t t 2 > : e y n t < : : , , > : < t n y e : > 2 t t < :                     ",
"                    : q v k - + ; i b P z r = = & $ & = r z P b i ; + - k v q :                     ",
"                    : q K U j 9 h v ~ ^ U l g h h h h g l U ^ ~ v h 9 j U K q :                     ",
"                    : 1 c P L L L U ^ ! ^ U L L L L L L U ^ ! ^ U L L L P c 1 :                     ",
"                    : < 8 z U ~ Q U U U U U Q Q Q Q Q Q U U U U U Q ~ U z 8 < :                     ",
"                    : < y M z b b z z z z z b b b b b b z z z z z b b z M y < :                     ",
"                    : < t y t t t t t t t t t t t t t t t t t t t t t t y t < :                     ",
"                    : : < < < < < < < < < < < < < < < < < < < < < < < < < < : :                     ",
"                    : : : : : : : : : : : : : : : : : : : : : : : : : : : : : :                     ",
"                                                                                                    ",
"                                                                                                    ",
"                                                                                                    ",
"                                                                                                    ",
"                                                                                                    ",
"                                                                                                    ",
"                                                                                                    ",
"                                                                                                    ",
"                                                                                                    ",
"                                                                                                    ",
"                                                                                                    ",
"                                                                                                    "
};
