/* XPM */
static char *ec3f9e8401ff45b2d579a4a3f5daa851QMICVlvHcbwar1Qt[] = {
/* columns rows colors chars-per-pixel */
"50 50 215 2 ",
"   c None",
".  c #000204",
"X  c #0D0D0E",
"o  c #000B0E",
"O  c #00140E",
"+  c #19181A",
"@  c #100F10",
"#  c #30101D",
"$  c #37221E",
"%  c #2F2E1F",
"&  c #0D1922",
"*  c #021220",
"=  c #111A21",
"-  c #1A1C22",
";  c #121923",
":  c #251925",
">  c #3B1A2B",
",  c #1D2022",
"<  c #1A232A",
"1  c #19292C",
"2  c #222222",
"3  c #282A2B",
"4  c #322126",
"5  c #392525",
"6  c #312922",
"7  c #33282A",
"8  c #282B33",
"9  c #323332",
"0  c #3C393B",
"q  c #2C332F",
"w  c #6A1E1B",
"e  c #4D2D19",
"r  c #41271F",
"t  c #522E1A",
"y  c #68241B",
"u  c #702018",
"i  c #4B1626",
"p  c #531F2E",
"a  c #5C1D30",
"s  c #411A33",
"d  c #641A38",
"f  c #402A24",
"g  c #55212E",
"h  c #5B222E",
"j  c #512F2D",
"k  c #4D3123",
"l  c #553C25",
"z  c #563725",
"x  c #562E33",
"c  c #6D2524",
"v  c #63242F",
"b  c #6D2B2C",
"n  c #662B27",
"m  c #742D2E",
"M  c #792D2E",
"N  c #782724",
"B  c #673B22",
"V  c #7D302E",
"C  c #642632",
"Z  c #692833",
"A  c #762831",
"S  c #763230",
"D  c #524B19",
"F  c #69591B",
"G  c #5C4326",
"H  c #5C542C",
"J  c #5D4334",
"K  c #6D4C27",
"L  c #664328",
"P  c #724E26",
"I  c #734B2C",
"U  c #6D4C31",
"Y  c #6D7426",
"T  c #7D692F",
"R  c #354747",
"E  c #494849",
"W  c #5A5A5B",
"Q  c #505552",
"!  c #665D56",
"~  c #686159",
"^  c #7C6B45",
"/  c #5F6464",
"(  c #656867",
")  c #716E6B",
"_  c #6D706E",
"`  c #6F7C73",
"'  c #84381E",
"]  c #843C29",
"[  c #8C3D2A",
"{  c #87372D",
"}  c #B2490D",
"|  c #AD4B11",
" . c #B14C10",
".. c #8D4129",
"X. c #934329",
"o. c #9A4529",
"O. c #994A29",
"+. c #844B33",
"@. c #8E5834",
"#. c #9C5738",
"$. c #A64A2A",
"%. c #AA5126",
"&. c #AA592C",
"*. c #B85C2B",
"=. c #A1553A",
"-. c #9E6437",
";. c #817330",
":. c #AE7D2D",
">. c #B56F32",
",. c #A87838",
"<. c #C15D25",
"1. c #C4662D",
"2. c #CB6225",
"3. c #D06C27",
"4. c #C5722C",
"5. c #C8772A",
"6. c #D5792A",
"7. c #D16A36",
"8. c #D57737",
"9. c #EB7D2A",
"0. c #F07F29",
"q. c #E17E37",
"w. c #AC2B5A",
"e. c #AC365E",
"r. c #B53E66",
"t. c #C7366C",
"y. c #DD3573",
"u. c #D0326B",
"i. c #874B41",
"p. c #916D42",
"a. c #A86954",
"s. c #A96A53",
"d. c #905667",
"f. c #BE406B",
"g. c #837371",
"h. c #87767E",
"j. c #B17364",
"k. c #B57271",
"l. c #CE7D51",
"z. c #D34C6A",
"x. c #EC5172",
"c. c #DE6E6F",
"v. c #E47E7D",
"b. c #9F8D2C",
"n. c #A68C26",
"m. c #C88632",
"M. c #D98933",
"N. c #CA9639",
"B. c #E38A2D",
"V. c #F5892C",
"C. c #E59733",
"Z. c #E48E3C",
"A. c #D8B13A",
"S. c #F9A332",
"D. c #E8BA3D",
"F. c #FCB536",
"G. c #FFBB37",
"H. c #F8B437",
"J. c #E9AA2E",
"K. c #FCCE3E",
"L. c #FFD73F",
"P. c #F7CA32",
"I. c #FFF83F",
"U. c #83837F",
"Y. c #95867C",
"T. c #B58C76",
"R. c #AE8465",
"E. c #CD865B",
"W. c #FEAD40",
"Q. c #D18A71",
"!. c #E99867",
"~. c #DBA179",
"^. c #F0AA7E",
"/. c #FEE641",
"(. c #FAE841",
"). c #FB4A88",
"_. c #ED5D92",
"`. c #EB6E99",
"'. c #F47598",
"]. c #FB7BA4",
"[. c #7C8A87",
"{. c #8E9292",
"}. c #B18D85",
"|. c #B89B9C",
" X c #AA938B",
".X c #B9AA97",
"XX c #AFA49A",
"oX c #A19EA0",
"OX c #93A4AA",
"+X c #BBA9A4",
"@X c #B6B8B7",
"#X c #B4B7B5",
"$X c #FFB885",
"%X c #E4B79A",
"&X c #E1B28E",
"*X c #DA8FA8",
"=X c #F693B1",
"-X c #C6B7A7",
";X c #FFB8B8",
":X c #C8C6BF",
">X c #D4CCBF",
",X c #F9D5BB",
"<X c #F1CDAE",
"1X c #BDC1C4",
"2X c #CED5CC",
"3X c #DED7CB",
"4X c #E7DACB",
"5X c #F1CED2",
"6X c #FDE9D6",
"7X c #F8EBE1",
"8X c #FCF5EA",
"9X c #FFFFF4",
"0X c #FFFFFD",
"qX c #F6FFF3",
"wX c #EAEDE7",
/* pixels */
"                                                                                                    ",
"                                                                                                    ",
"                                                                                                    ",
"                                                                                                    ",
"                                                                                                    ",
"                                                                                                    ",
"                                                                                                    ",
"                                                                                                    ",
"                            2 2 2 2                             2 2 2 2                             ",
"                          6 l z 4 :                             : 4 z l 6                           ",
"                    2 ; * G 5.*.h : & & = = = = = = = = = = & & : h *.5.G * ; 2                     ",
"                    2 6 l :.F.M.V n K K K K P P P P P P K K K K n V M.F.:.l 6 2                     ",
"                    2 l 4.H.K.N...&.B.B.B.B.B.B.B.B.B.B.B.B.B.B.&...N.K.H.4.l 2                     ",
"                    2 z 3.S.F.m.o.*.0.V.9.9.6.1.*.*.1.6.9.9.V.0.*.o.m.F.S.3.z 2                     ",
"                    2 k %.9.V.4.X.$.2.2.<.%.] b a a b ] %.<.2.2.$.X.4.V.9.%.k 2                     ",
"                    2 G M.G.F.>.m &.S.F.C.O.b @.,.,.@.b O.C.F.S.&.m >.F.G.M.G 2                     ",
"                    2 H A./.L.,.v -.K.(.D.+.b N././.N.b +.D.(.K.-.v ,.L./.A.H 2                     ",
"                    2 % D n.G.6.u B ;.Y F g M 6.P.I.D.c i T Y F B { 6.J.b.H % 2                     ",
"                    2 , < U 6.q.=.j = ; 8 > S 7.W.P.N.i.s - & 8 j ..q.Z.I + - 2                     ",
"                    2 E {.Y.L R.,Xg.= ( oXE x %X,Xp.^ -Xh.- W @Xg.k T.<Xl.y $ 2                     ",
"                    2 ) 9X2X< ( wXU.2 #X0X_ 3 #X1X8 E qX:X3 ) 7XU., OX0X$X .t 2                     ",
"                    2 _ 0X2X8 3 ( 9 3 :X0X` O R R o W qX2X9 7 ( 9 2 @X0X$X| e 2                     ",
"                    2 ! <X.X7 . X . , {.:Xg.> # # # d.5X+X9 . X . , {.>X!.| e 2                     ",
"                    2 J l.-.+ o + @ X 1 E d.f.r.e.w.z.`.d.2 O + X X 8 Q &.} t 2                     ",
"                    2 t } *.~ R - 0 W 0 i w.).)._.].'.x.w.C : - E W < @ p.E.J 2                     ",
"                    2 e | !.4X[.- ` 3X*Xt.u.y.y.`.5X5X_.y.u.d ; [.3X/ - XX4X~ 2                     ",
"                    2 e | $X0X-XB .X0X;Xx.'.=Xz.v.9X8Xc.x.=Xk.B -X0X}.L 3X0X_ 2                     ",
"                    2 e | ^.9X<X*.&X0X^.7.<X7Xl.l.7X6X7.!.8X%X*.&X0X~.1.,XwX( 2                     ",
"                    2 r ' a.|.k.$.j.|.a.O.}.+X#.O.}.}.O.s.+XT.$.j.|.a.$.Q. XE 2                     ",
"                    2 4 h Z C C v C C C C C C C C C C v C C C v C C C v Z h 4 2                     ",
"                    2 5 b N w c b c w c b c w b b y y b c w c b c w c m N y $ 2                     ",
"                    2 f ] o.X.X.X.X...X.X.X.X.X.X.X.X.X...X.X.X.X.X.X.X.o.] f 2                     ",
"                    2 5 b [ X.o.X.X.X.X.X.X.o.o.o.X.X.X.X.X.X.X.X.X.o.X.[ b 5 2                     ",
"                    2 4 p m [ X.[ [ [ [ [ [ [ [ [ [ [ [ [ [ [ [ [ [ X.[ m p 4 2                     ",
"                    2 4 h A M M M M M M M M M M M M M M M M M M M M M M A h 4 2                     ",
"                    2 4 g h g g g g g g g g g g g g g g g g g g g g g g h g 4 2                     ",
"                    2 2 4 4 4 4 4 4 4 4 4 4 4 4 4 4 4 4 4 4 4 4 4 4 4 4 4 4 2 2                     ",
"                    2 2 2 2 2 2 2 2 2 2 2 2 2 2 2 2 2 2 2 2 2 2 2 2 2 2 2 2 2 2                     ",
"                                                                                                    ",
"                                                                                                    ",
"                                                                                                    ",
"                                                                                                    ",
"                                                                                                    ",
"                                                                                                    ",
"                                                                                                    ",
"                                                                                                    ",
"                                                                                                    ",
"                                                                                                    ",
"                                                                                                    ",
"                                                                                                    "
};
