/* XPM */
static char *result[] = {
/* columns rows colors chars-per-pixel */
"50 50 173 2 ",
"   c #EC8119",
".  c #EC8219",
"X  c #ED891D",
"o  c #EE8920",
"O  c #EC852B",
"+  c #EC852C",
"@  c #EE8B2B",
"#  c #EE8C2B",
"$  c #EE8D2B",
"%  c #EC882C",
"&  c #EE8E2D",
"*  c #EE8D2E",
"=  c #EE8E2E",
"-  c #EF9126",
";  c #EF912F",
":  c #EF932F",
">  c #EF942D",
",  c #EF952F",
"<  c #F09826",
"1  c #F1992C",
"2  c #EF9430",
"3  c #EF9530",
"4  c #F09530",
"5  c #F09630",
"6  c #F19B32",
"7  c #F19F32",
"8  c #F4A72F",
"9  c #F2A333",
"0  c #F2A532",
"q  c #F4A533",
"w  c #F2A534",
"e  c #F3A635",
"r  c #F3A735",
"t  c #F3A834",
"y  c #F3AA35",
"u  c #F3A936",
"i  c #F3AA36",
"p  c #F5B338",
"a  c #F6B239",
"s  c #F6B638",
"d  c #F6B738",
"f  c #F7B738",
"g  c #F6B639",
"h  c #F6B839",
"j  c #F6BA3A",
"k  c #F7BD3A",
"l  c #F7BE3A",
"z  c #F8BF3C",
"x  c #FAC21C",
"c  c #FAC21D",
"v  c #FAC420",
"b  c #FAC521",
"n  c #FAC620",
"m  c #FAC723",
"M  c #FAC527",
"N  c #FAC428",
"B  c #FAC72C",
"V  c #FAC62D",
"C  c #FAC72F",
"Z  c #FBCD2B",
"A  c #FCCE28",
"S  c #FAC731",
"D  c #FAC830",
"F  c #FAC831",
"G  c #FAC932",
"H  c #FAC933",
"J  c #FBCC33",
"K  c #FAC834",
"L  c #FAC835",
"P  c #FAC936",
"I  c #FAC937",
"U  c #FBCD35",
"Y  c #F9C23C",
"T  c #F9C63D",
"R  c #FAC63D",
"E  c #F9C43E",
"W  c #FAC938",
"Q  c #FAC83D",
"!  c #FACA3D",
"~  c #FACB3D",
"^  c #F9C83F",
"/  c #FACA3E",
"(  c #FACB3E",
")  c #FACB3F",
"_  c #FACE3C",
"`  c #FACF3C",
"'  c #FBCE3E",
"]  c #FBCE3F",
"[  c #FBCF3F",
"{  c #FCD339",
"}  c #FCD438",
"|  c #FBD03F",
" . c #F5B54B",
".. c #F1A457",
"X. c #F2A953",
"o. c #F8C343",
"O. c #F9C940",
"+. c #FACB40",
"@. c #FACC43",
"#. c #FACD46",
"$. c #FBCD47",
"%. c #FACA4B",
"&. c #FACE4A",
"*. c #FACF4B",
"=. c #FBD040",
"-. c #FBD140",
";. c #FBD340",
":. c #FBD341",
">. c #FCD541",
",. c #FCD641",
"<. c #FCD741",
"1. c #FCD842",
"2. c #FAD154",
"3. c #FBD158",
"4. c #FAD059",
"5. c #F8C767",
"6. c #FBD462",
"7. c #FBD465",
"8. c #FBD66F",
"9. c #FBD874",
"0. c #FBD975",
"q. c #FAD976",
"w. c #FBD977",
"e. c #FBDA79",
"r. c #F7C482",
"t. c #F6C38E",
"y. c #F6C38F",
"u. c #FAD786",
"i. c #FBDC84",
"p. c #FCDD85",
"a. c #FCE39B",
"s. c #FCE39E",
"d. c #FCE49E",
"f. c #FADEB2",
"g. c #FCE5A0",
"h. c #FCE4A3",
"j. c #FCE5A7",
"k. c #FCE5A8",
"l. c #FCE6A8",
"z. c #FCE7AB",
"x. c #FCE9B4",
"c. c #FCEBBE",
"v. c #FAE1C4",
"b. c #FAE1C5",
"n. c #FCEDC5",
"m. c #FDEFC9",
"M. c #FEF1C9",
"N. c #FDF1D5",
"B. c #FDF1D6",
"V. c #FDF2D6",
"C. c #FDF2D7",
"Z. c #FDF2D8",
"A. c #FDF2D9",
"S. c #FCF2DA",
"D. c #FDF3DB",
"F. c #FDF4DF",
"G. c #FDF6E0",
"H. c OldLace",
"J. c #FDF6ED",
"K. c #FDF7ED",
"L. c #FDF7EE",
"P. c #FDF7EF",
"I. c #FDF8EE",
"U. c #FDF8EF",
"Y. c #FEFAEF",
"T. c #FDF9F0",
"R. c #FDF9F2",
"E. c #FEFCF3",
"W. c #FDFBFA",
"Q. c #FDFDFF",
"!. c #FDFEFF",
"~. c white",
"^. c None",
/* pixels */
"^.^.^.^.^.^.^.^.^.^.^.^.^.^.^.^.^.^.^.^.^.^.^.^.^.^.^.^.^.^.^.^.^.^.^.^.^.^.^.^.^.^.^.^.^.^.^.^.^.^.",
"^.^.^.^.^.^.^.^.^.^.^.^.^.^.^.^.^.^.^.^.^.^.^.^.^.^.^.^.^.^.^.^.^.^.^.^.^.^.^.^.^.^.^.^.^.^.^.^.^.^.",
"^.^.^.^.^.^.^.^.^.^.^.^.^.^.^.^.^.^.^.^.^.^.^.^.^.^.^.^.^.^.^.^.^.^.^.^.^.^.^.^.^.^.^.^.^.^.^.^.^.^.",
"^.^.^.^.^.^.^.^.^.^.^.^.^.^.^.^.^.^.^.^.^.^.^.^.^.^.^.^.^.^.^.^.^.^.^.^.^.^.^.^.^.^.^.^.^.^.^.^.^.^.",
"^.^.^.^.^.^.^.^.^.^.^.^.^.^.^.^.^.^.^.^.^.^.^.^.^.^.^.^.^.^.^.^.^.^.^.^.^.^.^.^.^.^.^.^.^.^.^.^.^.^.",
"^.^.^.^.^.^.^.^.^.^.^.^.^.^.^.^.^.^.^.^.^.^.^.^.^.^.^.^.^.^.^.^.^.^.^.^.^.^.^.^.^.^.^.^.^.^.^.^.^.^.",
"^.^.^.^.^.^.^.^.^.^.^.^.^.^.^.^.^.^.^.^.^.^.^.^.^.^.^.^.^.^.^.^.^.^.^.^.^.^.^.^.^.^.^.^.^.^.^.^.^.^.",
"^.^.^.^.^.^.^.^.^.^.^.^.^.^.^.^.^.^.^.^.^.^.^.^.^.^.^.^.^.^.^.^.^.^.^.^.^.^.^.^.^.^.^.^.^.^.^.^.^.^.",
"^.^.^.^.^.^.^.^.^.^.^.^.^.^.^.^.^.^.^.^.^.^.^.^.^.^.^.^.^.^.^.^.^.^.^.^.^.^.^.^.^.^.^.^.^.^.^.^.^.^.",
"^.^.^.^.^.^.^.^.^.^.^.^.^.^.^.^.^.^.^.^.^.^.^.^.^.^.^.^.^.^.^.^.^.^.^.^.^.^.^.^.^.^.^.^.^.^.^.^.^.^.",
"^.^.^.^.^.^.^.^.^.^.^.^.^.^.^.^.^.^.^.^.^.^.^.^.^.^.^.^.^.^.^.^.^.^.^.^.^.^.^.^.^.^.^.^.^.^.^.^.^.^.",
"^.^.^.^.^.^.^.^.^.^.^.^.^.^.^.^.^.^.^.^.^.^.^.^.^.^.^.^.^.^.^.^.^.^.^.^.^.^.^.^.^.^.^.^.^.^.^.^.^.^.",
"^.^.^.^.^.^.^.^.^.^.^.^.^.^.^.^.^.^.^.^.^.^.. # ..t.v.T.~.^.^.^.^.^.^.^.^.^.^.^.^.^.^.^.^.^.^.^.^.^.",
"^.^.^.^.^.^.^.^.^.^.^.^.^.^.^.^.^.^.^.^.^.^.  @ ..y.b.R.~.^.^.^.^.^.^.^.^.^.^.^.^.^.^.^.^.^.^.^.^.^.",
"^.^.^.^.^.^.^.^.^.^.^.^.^.^.^.^.^.^.^.^.^.o X > X.r.f.D.Y.E.^.^.^.^.^.^.^.^.^.^.^.^.^.^.^.^.^.^.^.^.",
"^.^.^.^.^.^.^.^.^.^.^.^.^.^.^.^.^.^.^.^.$ - < 0  .5.u.z.M.G.T.^.^.^.^.^.^.^.^.^.^.^.^.^.^.^.^.^.^.^.",
"^.^.^.^.^.^.^.^.^.^.^.^.^.^.^.^.^.^.^.+ & 1 8 s o.%.4.e.g.m.I.!.^.^.^.^.^.^.^.^.^.^.^.^.^.^.^.^.^.^.",
"^.^.^.^.^.^.^.^.^.^.^.^.^.^.^.^.^.^.O % , q f T _ J H &.0.l.A.W.Q.^.^.^.^.^.^.^.^.^.^.^.^.^.^.^.^.^.",
"^.^.^.^.^.^.^.^.^.^.^.^.^.^.^.^.^.* = 2 9 a E | } A n D 2.i.x.S.J.P.^.^.^.^.^.^.^.^.^.^.^.^.^.^.^.^.",
"^.^.^.^.^.^.^.^.^.^.^.^.^.^.^.^.; 3 6 w p z O.-.{ Z m V @.6.p.k.n.V.H.^.^.^.^.^.^.^.^.^.^.^.^.^.^.^.",
"^.^.^.^.^.^.^.^.^.^.^.^.^.^.= = : 7 y d Y ^ ) ' ` U G P ~ $.3.q.a.c.F.L.K.^.^.^.^.^.^.^.^.^.^.^.^.^.",
"^.^.^.^.^.^.^.^.^.^.^.^.^.^.= * 4 e g R [ =.] ( ( ( ( ~ W C F *.w.k.A.P.K.^.^.^.^.^.^.^.^.^.^.^.^.^.",
"^.^.^.^.^.^.^.^.^.^.^.^.^.^.= * 5 i l ] 1.,.| ( / +.+.~ S v x K 7.s.N.U.K.^.^.^.^.^.^.^.^.^.^.^.^.^.",
"^.^.^.^.^.^.^.^.^.^.^.^.^.^.= * 5 u k ' <.>.| ( ( +.+.! F b c L 7.d.B.P.K.^.^.^.^.^.^.^.^.^.^.^.^.^.",
"^.^.^.^.^.^.^.^.^.^.^.^.^.^.= * 4 t j / :.;.[ ( ( ) ) ~ K M N +.8.h.C.P.K.^.^.^.^.^.^.^.^.^.^.^.^.^.",
"^.^.^.^.^.^.^.^.^.^.^.^.^.^.= * 4 r h Q -.-.] ( ( ( ( ( I B V #.9.j.Z.P.K.^.^.^.^.^.^.^.^.^.^.^.^.^.",
"^.^.^.^.^.^.^.^.^.^.^.^.^.^.= * 4 t j / :.;.[ ( ( ) ) ~ K M N +.8.h.C.P.K.^.^.^.^.^.^.^.^.^.^.^.^.^.",
"^.^.^.^.^.^.^.^.^.^.^.^.^.^.= * 5 u k ' <.>.| ( ( +.+.! F b c L 7.d.B.P.K.^.^.^.^.^.^.^.^.^.^.^.^.^.",
"^.^.^.^.^.^.^.^.^.^.^.^.^.^.= * 5 i l ] 1.,.| ( / +.+.~ S v x K 7.s.N.U.K.^.^.^.^.^.^.^.^.^.^.^.^.^.",
"^.^.^.^.^.^.^.^.^.^.^.^.^.^.= * 4 e g R [ =.] ( ( ( ( ~ W C F *.w.k.A.P.K.^.^.^.^.^.^.^.^.^.^.^.^.^.",
"^.^.^.^.^.^.^.^.^.^.^.^.^.^.= = : 7 y d Y ^ ) ' ` U G P ~ $.3.q.a.c.F.L.K.^.^.^.^.^.^.^.^.^.^.^.^.^.",
"^.^.^.^.^.^.^.^.^.^.^.^.^.^.^.^.; 3 6 w p z O.-.{ Z m V @.6.p.k.n.V.H.^.^.^.^.^.^.^.^.^.^.^.^.^.^.^.",
"^.^.^.^.^.^.^.^.^.^.^.^.^.^.^.^.^.* = 2 9 a E | } A n D 2.i.x.S.J.P.^.^.^.^.^.^.^.^.^.^.^.^.^.^.^.^.",
"^.^.^.^.^.^.^.^.^.^.^.^.^.^.^.^.^.^.O % , q f T _ J H &.0.l.A.W.Q.^.^.^.^.^.^.^.^.^.^.^.^.^.^.^.^.^.",
"^.^.^.^.^.^.^.^.^.^.^.^.^.^.^.^.^.^.^.+ & 1 8 s o.%.4.e.g.m.I.!.^.^.^.^.^.^.^.^.^.^.^.^.^.^.^.^.^.^.",
"^.^.^.^.^.^.^.^.^.^.^.^.^.^.^.^.^.^.^.^.$ - < 0  .5.u.z.M.G.T.^.^.^.^.^.^.^.^.^.^.^.^.^.^.^.^.^.^.^.",
"^.^.^.^.^.^.^.^.^.^.^.^.^.^.^.^.^.^.^.^.^.o X > X.r.f.D.Y.E.^.^.^.^.^.^.^.^.^.^.^.^.^.^.^.^.^.^.^.^.",
"^.^.^.^.^.^.^.^.^.^.^.^.^.^.^.^.^.^.^.^.^.^.  @ ..y.b.R.~.^.^.^.^.^.^.^.^.^.^.^.^.^.^.^.^.^.^.^.^.^.",
"^.^.^.^.^.^.^.^.^.^.^.^.^.^.^.^.^.^.^.^.^.^.. # ..t.v.T.~.^.^.^.^.^.^.^.^.^.^.^.^.^.^.^.^.^.^.^.^.^.",
"^.^.^.^.^.^.^.^.^.^.^.^.^.^.^.^.^.^.^.^.^.^.^.^.^.^.^.^.^.^.^.^.^.^.^.^.^.^.^.^.^.^.^.^.^.^.^.^.^.^.",
"^.^.^.^.^.^.^.^.^.^.^.^.^.^.^.^.^.^.^.^.^.^.^.^.^.^.^.^.^.^.^.^.^.^.^.^.^.^.^.^.^.^.^.^.^.^.^.^.^.^.",
"^.^.^.^.^.^.^.^.^.^.^.^.^.^.^.^.^.^.^.^.^.^.^.^.^.^.^.^.^.^.^.^.^.^.^.^.^.^.^.^.^.^.^.^.^.^.^.^.^.^.",
"^.^.^.^.^.^.^.^.^.^.^.^.^.^.^.^.^.^.^.^.^.^.^.^.^.^.^.^.^.^.^.^.^.^.^.^.^.^.^.^.^.^.^.^.^.^.^.^.^.^.",
"^.^.^.^.^.^.^.^.^.^.^.^.^.^.^.^.^.^.^.^.^.^.^.^.^.^.^.^.^.^.^.^.^.^.^.^.^.^.^.^.^.^.^.^.^.^.^.^.^.^.",
"^.^.^.^.^.^.^.^.^.^.^.^.^.^.^.^.^.^.^.^.^.^.^.^.^.^.^.^.^.^.^.^.^.^.^.^.^.^.^.^.^.^.^.^.^.^.^.^.^.^.",
"^.^.^.^.^.^.^.^.^.^.^.^.^.^.^.^.^.^.^.^.^.^.^.^.^.^.^.^.^.^.^.^.^.^.^.^.^.^.^.^.^.^.^.^.^.^.^.^.^.^.",
"^.^.^.^.^.^.^.^.^.^.^.^.^.^.^.^.^.^.^.^.^.^.^.^.^.^.^.^.^.^.^.^.^.^.^.^.^.^.^.^.^.^.^.^.^.^.^.^.^.^.",
"^.^.^.^.^.^.^.^.^.^.^.^.^.^.^.^.^.^.^.^.^.^.^.^.^.^.^.^.^.^.^.^.^.^.^.^.^.^.^.^.^.^.^.^.^.^.^.^.^.^.",
"^.^.^.^.^.^.^.^.^.^.^.^.^.^.^.^.^.^.^.^.^.^.^.^.^.^.^.^.^.^.^.^.^.^.^.^.^.^.^.^.^.^.^.^.^.^.^.^.^.^.",
"^.^.^.^.^.^.^.^.^.^.^.^.^.^.^.^.^.^.^.^.^.^.^.^.^.^.^.^.^.^.^.^.^.^.^.^.^.^.^.^.^.^.^.^.^.^.^.^.^.^."
};
