/* XPM */
static char *result[] = {
/* columns rows colors chars-per-pixel */
"50 50 194 2 ",
"   c #010102",
".  c #090B0B",
"X  c #060A0C",
"o  c #0D120F",
"O  c #110C10",
"+  c #08191B",
"@  c #15191A",
"#  c #1C1D1D",
"$  c #161615",
"%  c #231C1C",
"&  c #0D211B",
"*  c #14211E",
"=  c #19221F",
"-  c #091B20",
";  c #111E20",
":  c #1D1E23",
">  c #241F23",
",  c #221E28",
"<  c #152122",
"1  c #1C2221",
"2  c #1B2827",
"3  c #232222",
"4  c #2C2424",
"5  c #262C2C",
"6  c #292A2A",
"7  c #2F2228",
"8  c #342526",
"9  c #3B2924",
"0  c #342329",
"q  c #362926",
"w  c #293635",
"e  c #3A3836",
"r  c #7F291D",
"t  c #4A1D3B",
"y  c #531F3C",
"u  c #5A1A3B",
"i  c #701438",
"p  c #4D2D27",
"a  c #45242F",
"s  c #48282B",
"d  c #412420",
"f  c #562C2C",
"g  c #5B312A",
"h  c #4B2432",
"j  c #58213B",
"k  c #5A2135",
"l  c #493D3B",
"z  c #533730",
"x  c #742E23",
"c  c #79392E",
"v  c #62243B",
"b  c #69263B",
"n  c #74273F",
"m  c #7E2C3D",
"M  c #7E3037",
"N  c #693725",
"B  c #4D403E",
"V  c #55433E",
"C  c #7B453C",
"Z  c #7D4137",
"A  c #68423B",
"S  c #6E2946",
"D  c #732541",
"F  c #7B2643",
"G  c #7B2A44",
"H  c #663748",
"J  c #454845",
"K  c #494545",
"L  c #5A4641",
"P  c #564C49",
"I  c #4D5351",
"U  c #5D5C5A",
"Y  c #665955",
"T  c #64625E",
"R  c #6E6D6A",
"E  c #76716D",
"W  c #852C1F",
"Q  c #831B39",
"!  c #8C2D20",
"~  c #893A29",
"^  c #973626",
"/  c #8F3A32",
"(  c #983A33",
")  c #92273A",
"_  c #AB3A29",
"`  c #B53F2D",
"'  c #AF3538",
"]  c #D1260E",
"[  c #D12911",
"{  c #CC250C",
"}  c #E9371C",
"|  c #904229",
" . c #BB402D",
".. c #AB4534",
"X. c #AB4838",
"o. c #A44838",
"O. c #BC4933",
"+. c #B64437",
"@. c #DF4027",
"#. c #C24B34",
"$. c #CC4B36",
"%. c #CA453E",
"&. c #C64334",
"*. c #D44934",
"=. c #DB4E37",
"-. c #D44A3B",
";. c #DC4E38",
":. c #DD5136",
">. c #DE5038",
",. c #E24129",
"<. c #E74125",
"1. c #F54A2F",
"2. c #E14F39",
"3. c #F84E30",
"4. c #E25336",
"5. c #EB5537",
"6. c #E55139",
"7. c #EC533A",
"8. c #E95832",
"9. c #F9563C",
"0. c #8D254C",
"q. c #8D2848",
"w. c #872A42",
"e. c #9A264F",
"r. c #9E294E",
"t. c #912849",
"y. c #962551",
"u. c #9B2651",
"i. c #A22A4E",
"p. c #A92E4C",
"a. c #AB3149",
"s. c #A53344",
"d. c #BC3B44",
"f. c #BC354B",
"g. c #B53548",
"h. c #A32653",
"j. c #A82756",
"k. c #A32950",
"l. c #AB2952",
"z. c #BD2B59",
"x. c #B72D54",
"c. c #C63D44",
"v. c #CA3E47",
"b. c #C6394B",
"n. c #C93B4A",
"m. c #D53D4C",
"M. c #C53450",
"N. c #9B4D42",
"B. c #807677",
"V. c #C94142",
"C. c #D44443",
"Z. c #D9414A",
"A. c #E95C47",
"S. c #F85241",
"D. c #E44844",
"F. c #DE614B",
"G. c #E0644D",
"H. c #E57772",
"J. c #7E827E",
"K. c #89827D",
"L. c #DE8F7F",
"P. c #F6807A",
"I. c #96918B",
"U. c #AA8F95",
"Y. c #9EA09B",
"T. c #A3A39E",
"R. c #AEA7A0",
"E. c #B4AFA9",
"W. c #B2B1AA",
"Q. c #BEBFBA",
"!. c #A4B1AA",
"~. c #EC9B8A",
"^. c #EDA394",
"/. c #F2AB9A",
"(. c #F9B09F",
"). c #E096A2",
"_. c #DCA2BA",
"`. c #D0BFBB",
"'. c #F9B2A1",
"]. c #FCBAA8",
"[. c #C6C5BE",
"{. c #CCC9C1",
"}. c #C6CECF",
"|. c #D0CCC5",
" X c #CDD6CE",
".X c #CDD9D0",
"XX c #DDDCD7",
"oX c #D6E5DB",
"OX c #E6E5DE",
"+X c #EEEBE2",
"@X c #FBEAE3",
"#X c white",
"$X c #FAF4F1",
"%X c None",
/* pixels */
"%X%X%X%X%X%X%X%X%X%X%X%X%X%X%X%X%X%X%X%X%X%X%X%X%X%X%X%X%X%X%X%X%X%X%X%X%X%X%X%X%X%X%X%X%X%X%X%X%X%X",
"%X%X%X%X%X%X%X%X%X%X%X%X%X%X%X%X%X%X%X%X%X%X%X%X%X%X%X%X%X%X%X%X%X%X%X%X%X%X%X%X%X%X%X%X%X%X%X%X%X%X",
"%X%X%X%X%X%X%X%X%X%X%X%X%X%X%X%X%X%X%X%X%X%X%X%X%X%X%X%X%X%X%X%X%X%X%X%X%X%X%X%X%X%X%X%X%X%X%X%X%X%X",
"%X%X%X%X%X%X%X%X%X%X%X%X%X%X%X%X%X%X%X%X%X%X%X%X%X%X%X%X%X%X%X%X%X%X%X%X%X%X%X%X%X%X%X%X%X%X%X%X%X%X",
"%X%X%X%X%X%X%X%X%X%X%X%X%X%X%X%X%X%X%X%X%X%X%X%X%X%X%X%X%X%X%X%X%X%X%X%X%X%X%X%X%X%X%X%X%X%X%X%X%X%X",
"%X%X%X%X%X%X%X%X%X%X%X%X%X%X%X%X%X%X%X%X%X%X%X%X%X%X%X%X%X%X%X%X%X%X%X%X%X%X%X%X%X%X%X%X%X%X%X%X%X%X",
"%X%X%X%X%X%X%X%X%X%X%X%X%X%X%X%X%X%X%X%X%X%X%X%X%X%X%X%X%X%X%X%X%X%X%X%X%X%X%X%X%X%X%X%X%X%X%X%X%X%X",
"%X%X%X%X%X%X%X%X%X%X%X%X%X%X%X%X%X%X%X%X%X%X%X%X%X%X%X%X%X%X%X%X%X%X%X%X%X%X%X%X%X%X%X%X%X%X%X%X%X%X",
"%X%X%X%X%X%X%X%X%X%X%X%X%X%X%X%X%X%X%X%X%X%X%X%X%X%X%X%X%X%X%X%X%X%X%X%X%X%X%X%X%X%X%X%X%X%X%X%X%X%X",
"%X%X%X%X%X%X%X%X%X%X%X%X%X%X%X%X%X%X%X%X%X%X%X%X%X%X%X%X%X%X%X%X%X%X%X%X%X%X%X%X%X%X%X%X%X%X%X%X%X%X",
"%X%X%X%X%X%X%X%X%X%X%X%X%X%X%X%X%X%X%X%X%X%X%X%X%X3 3 %X%X%X%X%X%X%X%X%X%X%X%X%X%X%X%X%X%X%X%X%X%X%X",
"%X%X%X%X%X%X%X%X%X%X%X%X%X%X%X%X%X%X%X%X%X%X%X3 %X3 3 %X%X%X%X3 %X%X%X%X%X%X%X%X%X%X%X%X%X%X%X%X%X%X",
"%X%X%X%X%X%X%X%X%X%X%X%X%X%X%X%X%X%X%X%X%X%X3 3 %X%X3 %X%X%X3 3 %X%X%X%X%X%X%X%X%X%X%X%X%X%X%X%X%X%X",
"%X%X%X%X%X%X%X%X%X%X%X%X%X%X%X%X%X%X%X%X%X%X3 ; %X< = %X< - & 1 %X%X%X%X%X%X%X%X%X%X%X%X%X%X%X%X%X%X",
"%X%X%X%X%X%X%X%X%X%X%X%X%X%X%X%X%X%X%X%X%X%X> 4 4 % % % 3 3 > % %X%X%X%X%X%X%X%X%X%X%X%X%X%X%X%X%X%X",
"%X%X%X%X%X%X%X%X%X%X%X%X%X%X%X%X%X%X%X%X%X%X8 ..#.( i Q +.O.' i 3 %X%X%X%X%X%X%X%X%X%X%X%X%X%X%X%X%X",
"%X%X%X%X%X%X%X%X%X%X%X%X%X%X%X%X%X%X%X%X%X%X9 =.3.H._.).A.<.P.U.3 %X%X%X%X%X%X%X%X%X%X%X%X%X%X%X%X%X",
"%X%X%X%X%X%X%X%X%X%X%X%X%X%X%X%X%X%X%X%X%X%X9 -.,./.#X@XF.] ].oX6 %X%X%X%X%X%X%X%X%X%X%X%X%X%X%X%X%X",
"%X%X%X%X%X%X%X%X%X%X%X%X%X%X%X%X%X%X%X%X%X%Xq $.,.^.#X@XG.[ (. X5 %X%X%X%X%X%X%X%X%X%X%X%X%X%X%X%X%X",
"%X%X%X%X%X%X%X%X%X%X%X3 3 %X%X%X%X3 %X%X%X%X9 $.,.^.#X@XF.] (. X5 %X%X%X%X%X%X%X%X%X%X%X%X%X%X%X%X%X",
"%X%X%X%X%X%X%X%X%X%X%X3 3 3 %X%X%X3 3 %X%X%Xq *.,.^.#X@XF.[ '. X5 %X%X%X3 %X%X%X%X%X%X%X%X%X%X%X%X%X",
"%X%X%X%X%X%X%X%X%X%X%X%X3 3 3 %X%X3 3 3 %X; q $.@./.#X$XA.{ ].oX5 %X%X3 3 %X%X%X%X%X%X%X%X%X%X%X%X%X",
"%X%X%X%X%X%X%X%X%X%X%X%X%X3 4 %X%X1 * 3 1 + 4 ;.1.~.}.[.A.} ~.!.2 %X1 3 3 %X%X%X%X%X%X%X%X%X%X%X%X%X",
"%X%X%X%X%X%X%X%X%X%X%X%X%X3 = 1 3 3 3 : 3 : q #.2.x 2 q O.7.~ 2 3 3 3 1 1 %X%X%X%X%X%X%X%X%X%X%X%X%X",
"%X%X%X%X%X%X%X%X%X%X%X%X%X3 1 * h 0.F , N d.F 9 9 % X . q p $ # F 0.a < 1 %X3 %X%X%X%X%X%X%X%X%X%X%X",
"%X%X%X%X%X%X%X%X%X%X%X%X%X4 v : h Z.v./ O.S.d.y t j S v h t t m v.Z.w.j j 3 1 3 %X%X%X%X%X%X%X%X%X%X",
"%X%X%X%X%X%X%X%X%X%X3 3 %X0 h.m | 8.5.6.2.:.=.b.f.f.f.f.f.f.f.b.4.4.V.M.s.4 # %X%X%X%X%X%X%X%X%X%X%X",
"%X%X%X%X%X%X%X%X%X%X3 3 = 3 F c.2.-.-.;.=.=.=.2.:.>.>.2.=.2.=.=.;.;.2.7.#.8 ; %X%X%X%X%X%X%X%X%X%X%X",
"%X%X%X%X%X%X%X%X%X%X%X3 3 = 4 G x.i.p.-.4.;.;.2.;.4.;.;.4.;.>.;.;.>.>.7.#.4 ; %X%X%X%X%X%X%X%X%X%X%X",
"%X%X%X%X%X%X%X%X%X%X%X%X= 3 b 0.g.C.C.-.2.2.;.2.;.2.2.;.2.2.2.6.;.6.7.9.*.4 ; %X%X%X%X%X%X%X%X%X%X%X",
"%X%X%X%X%X%X%X%X%X%X%X3 1 4 b r.s.| ( :.+...*.! $._ ^ ;.! +.` ! 4.! x ( c 3 %X%X%X%X%X%X%X%X%X%X%X%X",
"%X%X%X%X%X%X%X%X%X%X%X%X3 = * b j + 1 ( g 9 o.Y N.C L o.U N.| L X.Y w + < 3 %X%X%X%X%X%X%X%X%X%X%X%X",
"%X%X%X%X%X%X%X%X%X%X%X%X%X3 1 3 > # < 4 1 X K XXI I.Q.e [.T K.{.w [.J.X 1 3 %X%X%X%X%X%X%X%X%X%X%X%X",
"%X%X%X%X%X%X%X%X%X%X3 3 3 %X%X1 = 4 3 * 1 # 5 U o T.OX2 J : Y.+X: J K @ 3 %X%X%X%X%X%X%X%X%X%X%X%X%X",
"%X%X%X%X%X%X%X%X%X%X%X3 3 3 %X3 3 3 3 4 3 @   . E T.U X X   e I.I.6   o 4 %X%X%X%X%X%X%X%X%X%X%X%X%X",
"%X%X%X%X%X%X%X%X%X%X%X%X3 3 3 3 3 * * 1 @ J T 2 XXY.$ R 5 U e I $XI J T # %X%X%X%X%X%X%X%X%X%X%X%X%X",
"%X%X%X%X%X%X%X%X%X%X%X3 3 1 3 1 4 7 7 # $ B.[.B E.B.Y |.L R.I.P {.K U.W.o @ %X%X3 3 %X%X%X%X%X%X%X%X",
"%X%X%X%X%X%X%X%X%X3 3 3 3 = 1 * h r.0.4 k S V +.V | o.l o.c C ..l G H w = = 3 3 3 3 %X%X%X%X%X%X%X%X",
"%X%X%X%X%X%X%X%X%X%X3 * 0 F w., g D.-.+.#.' ^ 2._ ` *.^ -._ ` *.^ V.) u F D 0 = 3 %X%X%X%X%X%X%X%X%X",
"%X%X%X%X%X%X%X%X%X%X%X* t z.M.b M V.V.v.-.7.7.:.A.2.2.7.>.A.2.;.7.6.C.b.m.b.s * %X%X%X%X%X%X%X%X%X%X",
"%X%X%X%X%X%X%X%X%X%X%X%X0 F r.l.k.u.y.i.%.4.:.:.-.-.4.:.:.-.:.:.:.;.=.=.5.:.p %X%X3 %X%X%X%X%X%X%X%X",
"%X%X%X%X%X%X%X%X%X3 %X%X* 0 q.l.i.e.r.V.:.=.:.-.a.d.:.-.:.:.=.=.;.=.:.:.7.:.p ; 3 3 %X%X%X%X%X%X%X%X",
"%X%X%X%X%X%X%X%X%X3 3 = 8 F i.i.r.i.i.a.a.a.a.a.e.r.p.a.-.8.V.i.a.-.4.:.5.:.p ; 3 %X%X%X%X%X%X%X%X%X",
"%X%X%X%X%X%X%X%X%X%X3 * a x.z.i.r.r.r.e.y.r.j.j.l.l.h.l.b.V.a.y.e.g.d.d.m.n.s * %X%X%X%X%X%X%X%X%X%X",
"%X%X%X%X%X%X%X%X%X%X%X= 0 D F q.k.r.r.r.i.t.n n n n n n D 0.r.r.r.u.u.0.D D 0 %X%X%X%X%X%X%X%X%X%X%X",
"%X%X%X%X%X%X%X%X%X%X%X%X4 1 % n l.i.r.i.l.F 3 3 3 4 3 3 1 G l.i.r.r.l.n 3 1 > %X%X%X%X%X%X%X%X%X%X%X",
"%X%X%X%X%X%X%X%X%X%X%X%X%X%X%X%X%X%X%X%X%X%X%X%X%X%X%X%X%X%X%X%X%X%X%X%X%X%X%X%X%X%X%X%X%X%X%X%X%X%X",
"%X%X%X%X%X%X%X%X%X%X%X%X%X%X%X%X%X%X%X%X%X%X%X%X%X%X%X%X%X%X%X%X%X%X%X%X%X%X%X%X%X%X%X%X%X%X%X%X%X%X",
"%X%X%X%X%X%X%X%X%X%X%X%X%X%X%X%X%X%X%X%X%X%X%X%X%X%X%X%X%X%X%X%X%X%X%X%X%X%X%X%X%X%X%X%X%X%X%X%X%X%X",
"%X%X%X%X%X%X%X%X%X%X%X%X%X%X%X%X%X%X%X%X%X%X%X%X%X%X%X%X%X%X%X%X%X%X%X%X%X%X%X%X%X%X%X%X%X%X%X%X%X%X"
};
