/* XPM */
static char *result[] = {
/* columns rows colors chars-per-pixel */
"50 50 203 2 ",
"   c #040506",
".  c #0A0B0C",
"X  c #070D0A",
"o  c #07100D",
"O  c #0F0F13",
"+  c #0E1111",
"@  c #0C1E1F",
"#  c #141415",
"$  c #161719",
"%  c #141B1B",
"&  c #1C1C1D",
"*  c #1D1916",
"=  c #201D1F",
"-  c #0E211B",
";  c #14211E",
":  c #1A221F",
">  c #33251E",
",  c #0D1D20",
"<  c #1B1F21",
"1  c #131E22",
"2  c #3C0C20",
"3  c #241B25",
"4  c #381C34",
"5  c #2C1932",
"6  c #0E2123",
"7  c #1D2221",
"8  c #1A2627",
"9  c #222222",
"0  c #2A2324",
"q  c #2B2328",
"w  c #232C2B",
"e  c #2B2B2B",
"r  c #3B2925",
"t  c #33242A",
"y  c #3C232C",
"u  c #332623",
"i  c #273432",
"p  c #393939",
"a  c #582019",
"s  c #6A2617",
"d  c #73291A",
"f  c #471023",
"g  c #411E34",
"h  c #451B38",
"j  c #511E3A",
"k  c #511226",
"l  c #452A26",
"z  c #48252E",
"x  c #592F2A",
"c  c #582A27",
"v  c #4B3125",
"b  c #533127",
"n  c #5B3029",
"m  c #442131",
"M  c #4C2433",
"N  c #542434",
"B  c #5C2537",
"V  c #542238",
"C  c #5C2339",
"Z  c #483935",
"A  c #443835",
"S  c #563D37",
"D  c #62282A",
"F  c #67342C",
"G  c #75382C",
"H  c #622639",
"J  c #6A263C",
"K  c #602637",
"L  c #75273F",
"P  c #752130",
"I  c #723936",
"U  c #4F413E",
"Y  c #6F463D",
"T  c #7D473E",
"R  c #383F40",
"E  c #671E40",
"W  c #7B2543",
"Q  c #772740",
"!  c #623049",
"~  c #3E4542",
"^  c #3D5355",
"/  c #474847",
"(  c #504E4C",
")  c #564741",
"_  c #5B4F54",
"`  c #5C5956",
"'  c #595754",
"]  c #604641",
"[  c #7C4B42",
"{  c #60615E",
"}  c #656563",
"|  c #6C6B66",
" . c #6B6D6A",
".. c #716B6B",
"X. c #73736F",
"o. c #7F7E7A",
"O. c #882C1D",
"+. c #933526",
"@. c #89303D",
"#. c #9A3A37",
"$. c #8E322E",
"%. c #A23526",
"&. c #AE3C28",
"*. c #A63A36",
"=. c #DE3A1F",
"-. c #D22E16",
";. c #D53C26",
":. c #E73D25",
">. c #90473A",
",. c #9D4435",
"<. c #AA452F",
"1. c #BC442B",
"2. c #A64837",
"3. c #B74834",
"4. c #B84936",
"5. c #DF442B",
"6. c #CB4933",
"7. c #C5423F",
"8. c #CC463C",
"9. c #C14A32",
"0. c #D34C34",
"q. c #DC4E35",
"w. c #D44A3B",
"e. c #DC4D3A",
"r. c #DE5137",
"t. c #DE5038",
"y. c #D65230",
"u. c #CC482F",
"i. c #EB462C",
"p. c #E24F3A",
"a. c #E44F37",
"s. c #E35335",
"d. c #EA5436",
"f. c #E45139",
"g. c #EA533A",
"h. c #F2543A",
"j. c #F8492F",
"k. c #832744",
"l. c #8F2848",
"z. c #872949",
"x. c #9C274F",
"c. c #922949",
"v. c #9D294D",
"b. c #95284A",
"n. c #962451",
"m. c #9D2651",
"M. c #983F5F",
"N. c #A22A4E",
"B. c #AD2E4E",
"V. c #B12F4E",
"C. c #AC314A",
"Z. c #A63246",
"A. c #BC3B43",
"S. c #B4324C",
"D. c #BB354C",
"F. c #B73242",
"G. c #A12651",
"H. c #A42951",
"J. c #AB2A52",
"K. c #AC2755",
"L. c #B42B55",
"P. c #BE3350",
"I. c #C23D43",
"U. c #8C5045",
"Y. c #895A51",
"T. c #BF4140",
"R. c #AB416C",
"E. c #B34565",
"W. c #C44041",
"Q. c #C94043",
"!. c #D84542",
"~. c #D74A44",
"^. c #D14D55",
"/. c #E24B41",
"(. c #DC6F5C",
"). c #E87766",
"_. c #EC8974",
"`. c #8C8984",
"'. c #94938D",
"]. c #9B9892",
"[. c #938D87",
"{. c #A49F9E",
"}. c #A6A29B",
"|. c #99AAA3",
" X c #ABABA5",
".X c #B9B5AF",
"XX c #CF9486",
"oX c #E19687",
"OX c #F4A89B",
"+X c #C1BAB4",
"@X c #B8C0BF",
"#X c #C8C7BF",
"$X c #F9D0BD",
"%X c #FCCBBA",
"&X c #CBCAC3",
"*X c #DEDCD3",
"=X c #D6D0CC",
"-X c #F5D8D7",
";X c #E9E5DC",
":X c #FFFFFE",
">X c #F8F8F3",
",X c #EEF0EE",
"<X c None",
/* pixels */
"<X<X<X<X<X<X<X<X<X<X<X<X<X<X<X<X<X<X<X<X<X<X<X<X<X<X<X<X<X<X<X<X<X<X<X<X<X<X<X<X<X<X<X<X<X<X<X<X<X<X",
"<X<X<X<X<X<X<X<X<X<X<X<X<X<X<X<X<X<X<X<X<X<X<X<X<X<X<X<X<X<X<X<X<X<X<X<X<X<X<X<X<X<X<X<X<X<X<X<X<X<X",
"<X<X<X<X<X<X<X<X<X<X<X<X<X<X<X<X<X<X<X<X<X<X<X<X<X<X<X<X<X<X<X<X<X<X<X<X<X<X<X<X<X<X<X<X<X<X<X<X<X<X",
"<X<X<X<X<X<X<X<X<X<X<X<X<X<X<X<X<X<X<X<X<X<X<X<X<X<X<X<X<X<X<X<X<X<X<X<X<X<X<X<X<X<X<X<X<X<X<X<X<X<X",
"<X<X<X<X<X<X<X<X<X<X<X<X<X<X<X<X<X<X<X<X<X<X<X<X<X<X9 9 <X<X<X<X<X<X<X<X<X<X<X<X<X<X<X<X<X<X<X<X<X<X",
"<X<X<X<X<X<X<X<X<X<X<X<X<X<X<X<X<X<X<X<X<X<X9 <X<X9 9 <X<X<X<X<X9 <X<X<X<X<X<X<X<X<X<X<X<X<X<X<X<X<X",
"<X<X<X<X<X<X<X<X<X<X<X<X<X<X<X<X<X<X<X<X<X9 9 <X<X9 <X<X<X<X<X<X9 <X<X<X<X<X<X<X<X<X<X<X<X<X<X<X<X<X",
"<X<X<X<X<X<X<X<X<X<X<X<X<X<X<X<X<X<X<X<X<X9 7 <X<X7 <X<X7 <X<X7 <X<X<X<X<X<X<X<X<X<X<X<X<X<X<X<X<X<X",
"<X<X<X<X<X<X<X<X<X<X<X<X<X9 9 9 9 <X<X<X9 9 ; @ % 8 : ; @ @ ; ; <X<X<X<X<X<X<X<X<X<X<X<X<X<X<X<X<X<X",
"<X<X<X<X<X<X<X<X<X<X<X<X<X<X9 9 9 9 <X<X& 0 F G D f f k G G c f <X<X<X<X<X<X<X<X<X<X<X<X<X<X<X<X<X<X",
"<X<X<X<X<X<X<X<X<X<X<X<X<X<X<X9 7 7 7 7 @ l q.h.~.E.R.^.d.j.^.M.e % <X<X9 9 9 <X<X<X<X<X<X<X<X<X<X<X",
"<X<X<X<X<X<X<X<X<X<X<X<X<X9 9 9 : 7 9 7 @ l w.i.).-X,XOXi.=.OX=XR + 7 7 9 9 <X<X<X<X<X<X<X<X<X<X<X<X",
"<X<X<X<X<X<X<X<X<X9 9 9 9 : % 0 C m < C y r 6.:._.:X:X$X;.-.%X,X~ 2 V : : 9 <X<X<X<X<X<X<X<X<X<X<X<X",
"<X<X<X<X<X<X<X<X<X9 9 7 9 y q < b.#.x v.j > 6.j.(.+X@XXXi.:.oX|.i P C.M < 9 <X<X<X<X<X<X<X<X<X<X<X<X",
"<X<X<X<X<X<X<X<X<X<X9 : 9 k.W u <.g.w.V.h r 4.g.<.w 6 F r.s.Y 6 1 $./.N.m ; <X9 9 <X<X<X<X<X<X<X<X<X",
"<X<X<X<X<X<X<X<X<X<X<X<X9 k.P.3.y.h.g.w.Z.J l v > X X * v b * O J A.h.!.x @ 7 9 9 <X<X<X<X<X<X<X<X<X",
"<X<X<X<X<X<X<X<X<X<X<X<X7 y @.!.I.I.r.s./.C.h 5 4 V C M 4 4 4 H D.w.f.s.n , 7 0 <X<X<X<X<X<X<X<X<X<X",
"<X<X<X<X<X<X<X<X<X<X9 9 7 7 N G.K.I.r.f.s.w.D.J.B.D.V.V.L.C.J.P.e.s.h.p.n , 7 <X<X<X<X<X<X<X<X<X<X<X",
"<X<X<X<X<X<X<X<X<X<X9 : 7 J x.G.Q.r.q.f.a.q.p.e.e./.e././.e.~.g.e.f.h.f.x , <X<X<X<X<X<X<X<X<X<X<X<X",
"<X<X<X<X<X<X<X<X<X9 9 7 7 z k.J.I <.r.$.3.0.s 9.6.s 6.&.s q.&.d p.%.a F r 7 <X<X<X<X<X<X<X<X<X<X<X<X",
"<X<X<X<X<X<X<X<X<X9 9 9 9 - y Q 3 x #.0 c 2.{ U.>.( >.U.{ ,.[ ' 2.Y.^ 8 & 9 <X<X<X<X<X<X<X<X<X<X<X<X",
"<X<X<X<X<X<X<X<X<X<X<X<X9 9 9 9 w 9 9 9 X ' ;X..` ;X` ..*X/ `.*Xp ].&Xe + 9 <X<X<X<X<X<X<X<X<X<X<X<X",
"<X<X<X<X<X<X<X<X<X<X<X<X<X<X7 : = < & 7 % i { 9  .>X .8 ` %  X>Xp p { 9 & <X<X<X<X<X<X<X<X<X<X<X<X<X",
"<X<X<X<X<X<X<X<X<X<X<X<X<X<X<X9 9 9 9 9 0 & . X ( ].( X   # ..[.p   . 9 <X<X<X<X<X<X<X<X<X<X<X<X<X<X",
"<X<X<X<X<X<X<X<X<X<X<X<X<X<X<X<X9 9 9 9 9 9 9 9 & $ & 9 9 9 & & 7 9 9 <X<X<X<X<X<X<X<X<X<X<X<X<X<X<X",
"<X<X<X<X<X<X<X<X<X<X<X<X<X<X<X<X9 9 7 9 9 9 9 9 & $ : 9 9 9 & $ 9 9 9 <X<X<X<X<X<X<X<X<X<X<X<X<X<X<X",
"<X<X<X<X<X<X<X<X<X<X<X<X<X<X<X<X9 9 9 9 9 9 9 9 0 9 9 9 9 9 9 0 9 9 9 <X<X<X<X<X<X<X<X<X<X<X<X<X<X<X",
"<X<X<X<X<X<X<X<X<X<X<X<X<X<X<X<X9 9 9 9 9 9 9 & $ 9 9 9 9 7 0 : $ & 9 <X<X<X<X<X<X<X<X<X<X<X<X<X<X<X",
"<X<X<X<X<X<X<X<X<X<X9 9 9 <X<X9 9 9 9 9 9 9 9 9 e : 9 9 9 9 3 9 w 0 < = <X<X<X9 9 9 <X<X<X<X<X<X<X<X",
"<X<X<X<X<X<X<X<X<X<X<X<X9 9 9 9 7 9 9 9 $   & '.}.0 . % : #   U .XX.. # & 9 9 9 9 <X<X<X<X<X<X<X<X<X",
"<X<X<X<X<X<X<X<X<X<X<X<X9 9 9 9 7 7 & % | X.8 &X;Xw | } 8 o./ ^ >X'.w `.( # 9 9 <X<X<X<X<X<X<X<X<X<X",
"<X<X<X<X<X<X<X<X<X<X9 9 9 : 7 9 q 3 $ * }.#XZ ]. XA .X}.Z #X[.U &X.._ *X .. & <X<X<X<X<X<X<X<X<X<X<X",
"<X<X<X<X<X<X<X<X<X<X9 9 9 : ; 0 W C 9 W ! ) 4.I U 3.Y Y 3.) [ <.A E z./ w = <X<X<X<X<X<X<X<X<X<X<X<X",
"<X<X<X<X<X<X<X<X<X<X<X7 9 B m : *.8.,.I.#.O.f.%.+.a.+.+.f.O.&.q.O.*.S.k 3 7 <X<X<X<X<X<X<X<X<X<X<X<X",
"<X<X<X<X<X<X<X<X<X<X<X<X9 c.x.z *.e.~.r.d.f.e.g.f.e.d.a.q.f.t.r.f.d.e.P.M ; <X<X<X<X<X<X<X<X<X<X<X<X",
"<X<X<X<X<X<X<X<X<X<X<X<X7 L K.N.v.G.C.w.a.p.q.e.p.q.p.q.e.f.e.e.f.f.f.e.x @ <X<X<X<X<X<X<X<X<X<X<X<X",
"<X<X<X<X<X<X<X<X<X<X<X<X7 9 B N.G.C.8.r.s.s.s.A.A.r.s.q.e.q.r.s.r.r.f.r.n , 7 <X<X<X<X<X<X<X<X<X<X<X",
"<X<X<X<X<X<X<X<X<X<X<X: 9 t J N.G.S.8.W.A.W.W.Z.N.A.I.8.r.s.8.A.A.w.d.f.n , 9 9 <X<X<X<X<X<X<X<X<X<X",
"<X<X<X<X<X<X<X<X<X<X9 : : k.L.N.v.v.x.x.m.G.G.G.N.G.m.D.e.e.A.n.n.A.f.w.x @ 7 9 9 <X<X<X<X<X<X<X<X<X",
"<X<X<X<X<X<X<X<X<X9 9 : 9 W L.J.v.v.m.N.G.H.H.N.H.H.G.N.B.C.N.x.x.N.S.B.M ; <X9 9 <X<X<X<X<X<X<X<X<X",
"<X<X<X<X<X<X<X<X<X9 9 <X<Xy L J.J.v.N.L.W N N N N N B m j x.K.N.v.J.n.V 0 <X<X<X<X<X<X<X<X<X<X<X<X<X",
"<X<X<X<X<X<X<X<X<X9 <X<X<X<Xt k.v.N.J.l.m - ; ; : ; : - 9 J b.N.J.x.B : <X<X<X<X<X<X<X<X<X<X<X<X<X<X",
"<X<X<X<X<X<X<X<X<X<X<X<X<X<X<X0 k.L.c.t <X<X<X<X<X<X<X<X<X: H L.H.N 7 <X<X<X<X<X<X<X<X<X<X<X<X<X<X<X",
"<X<X<X<X<X<X<X<X<X<X<X<X<X<X<X9 l.c.y <X<X<X<X<X<X<X<X<X<X- J N.N 9 <X<X<X<X<X<X<X<X<X<X<X<X<X<X<X<X",
"<X<X<X<X<X<X<X<X<X<X<X<X<X<X<X0 B M ; <X<X<X<X<X<X<X<X<X<X7 M J 9 <X<X<X<X<X<X<X<X<X<X<X<X<X<X<X<X<X",
"<X<X<X<X<X<X<X<X<X<X<X<X<X<X<X9 0 9 9 <X<X<X<X<X<X<X<X<X<X9 9 9 9 <X<X<X<X<X<X<X<X<X<X<X<X<X<X<X<X<X",
"<X<X<X<X<X<X<X<X<X<X<X<X<X<X<X<X<X<X<X<X<X<X<X<X<X<X<X<X<X<X<X<X<X<X<X<X<X<X<X<X<X<X<X<X<X<X<X<X<X<X",
"<X<X<X<X<X<X<X<X<X<X<X<X<X<X<X<X<X<X<X<X<X<X<X<X<X<X<X<X<X<X<X<X<X<X<X<X<X<X<X<X<X<X<X<X<X<X<X<X<X<X",
"<X<X<X<X<X<X<X<X<X<X<X<X<X<X<X<X<X<X<X<X<X<X<X<X<X<X<X<X<X<X<X<X<X<X<X<X<X<X<X<X<X<X<X<X<X<X<X<X<X<X",
"<X<X<X<X<X<X<X<X<X<X<X<X<X<X<X<X<X<X<X<X<X<X<X<X<X<X<X<X<X<X<X<X<X<X<X<X<X<X<X<X<X<X<X<X<X<X<X<X<X<X"
};
