/* XPM */
static char *result[] = {
/* columns rows colors chars-per-pixel */
"50 50 191 2 ",
"   c #091617",
".  c #0D1719",
"X  c #0E181B",
"o  c #121719",
"O  c #141B1C",
"+  c #1B1D1E",
"@  c #221B1E",
"#  c #2D241E",
"$  c #33241B",
"%  c #38271C",
"&  c #3A291F",
"*  c #151D21",
"=  c #1B1F21",
"-  c #231D22",
";  c #2C1D22",
":  c #3A1A25",
">  c #1D2122",
",  c #1E2428",
"<  c #232322",
"1  c #292524",
"2  c #2A2827",
"3  c #242628",
"4  c #2B2728",
"5  c #272A2C",
"6  c #2D2A29",
"7  c #332524",
"8  c #342823",
"9  c #3A2A22",
"0  c #332D2D",
"q  c #3D2C2E",
"w  c #36302E",
"e  c #38322F",
"r  c #362F30",
"t  c #353334",
"y  c #3C3333",
"u  c #373638",
"i  c #3C3639",
"p  c #3E383C",
"a  c #412B1F",
"s  c #5D351E",
"d  c #753E1C",
"f  c #441E27",
"g  c #451D28",
"h  c #531826",
"j  c #551C2A",
"k  c #5A1D2C",
"l  c #4E2726",
"z  c #422D22",
"x  c #492F20",
"c  c #4D242B",
"v  c #432E2F",
"b  c #49292D",
"n  c #532F26",
"m  c #5A2F27",
"M  c #5D202F",
"N  c #54292A",
"B  c #493327",
"V  c #543423",
"C  c #5C3525",
"Z  c #573822",
"A  c #5D3A23",
"S  c #583B2D",
"D  c #5E2C33",
"F  c #423636",
"G  c #443837",
"H  c #4F3B35",
"J  c #413738",
"K  c #453939",
"L  c #4A3C3B",
"P  c #543D35",
"I  c #583F34",
"U  c #5F3038",
"Y  c #593F3F",
"T  c #63252F",
"R  c #6E2D2C",
"E  c #712E2D",
"W  c #633426",
"Q  c #6A3527",
"!  c #6B3924",
"~  c #6A3428",
"^  c #723C25",
"/  c #713628",
"(  c #7F3B29",
")  c #612131",
"_  c #682632",
"`  c #6F2E37",
"'  c #742E39",
"]  c #6E3B3F",
"[  c #70353C",
"{  c #7C411E",
"}  c #4F403E",
"|  c #5A4137",
" . c #52413F",
".. c #59413B",
"X. c #7C4424",
"o. c #694331",
"O. c #664638",
"+. c #6B4B3C",
"@. c #764D3B",
"#. c #433E41",
"$. c #4B3F40",
"%. c #4E4141",
"&. c #544441",
"*. c #594643",
"=. c #554942",
"-. c #5C4945",
";. c #554A4A",
":. c #5B4C4C",
">. c #614140",
",. c #6D4344",
"<. c #604C47",
"1. c #6A4D42",
"2. c #634E49",
"3. c #6A4E4B",
"4. c #764446",
"5. c #7A4346",
"6. c #704C4B",
"7. c #6C5045",
"8. c #65514C",
"9. c #6B534E",
"0. c #745345",
"q. c #7D5645",
"w. c #7D594A",
"e. c #655554",
"r. c #6D5651",
"t. c #675857",
"y. c #6D5956",
"u. c #6D5B59",
"i. c #725651",
"p. c #7B5652",
"a. c #755B54",
"s. c #795D56",
"d. c #745E5A",
"f. c #7B5F58",
"g. c #7A6057",
"h. c #7C615A",
"j. c #823C27",
"k. c #843B29",
"l. c #8B3F29",
"z. c #82431D",
"x. c #844722",
"c. c #834824",
"v. c #8C4A24",
"b. c #8C4029",
"n. c #814A2D",
"m. c #974827",
"M. c #994826",
"N. c #9B4928",
"B. c #9E5224",
"V. c #96532D",
"C. c #9B552D",
"Z. c #874F32",
"A. c #855137",
"S. c #9E5A36",
"D. c #A35424",
"F. c #AB5425",
"G. c #A4592F",
"H. c #B55922",
"J. c #BC5C23",
"K. c #B55E2D",
"L. c #A55C35",
"P. c #A45E39",
"I. c #AF6134",
"U. c #AA623C",
"Y. c #B4663C",
"T. c #C55B1C",
"R. c #C25F24",
"E. c #C66125",
"W. c #CC6326",
"Q. c #C4622A",
"!. c #CB662D",
"~. c #CB682E",
"^. c #D26424",
"/. c #D16728",
"(. c #C86630",
"). c #CD6930",
"_. c #DC6E30",
"`. c #865A45",
"'. c #845B4A",
"]. c #895F4D",
"[. c #955E43",
"{. c #8A6151",
"}. c #82645C",
"|. c #88655A",
" X c #946553",
".X c #996957",
"XX c #AF6743",
"oX c #A2664C",
"OX c #B26741",
"+X c #B36943",
"@X c #BA6C43",
/* pixels */
"< < < = < @ > < 6 y K L e 2 @ > < < < < < = @ < 6 y K L L L L } L y 0 < 1 w G L y 2 > = + > < < < < ",
"> < < < < < - < 6 y K K y 2 = < < < < < < < < < 0 y L } L L L L L F 0 < 2 w G K y 2 < # # 3 3 < 1 3 ",
"< < < 1 2 2 2 2 0 y K K y 0 2 2 4 4 6 6 6 6 4 4 0 y L L L L L L L y 0 6 6 e G L y 0 4 3 2 6 0 0 e e ",
"+ + 3 0 e y y e y J L L F y w e e e t y q r e q y G L L L L L L L G F y t F L K F y y 0 w y J &.=.=.",
"> < 4 y G L L L K L K K L L K L K L L L K K L L G L K L K L L K L K L K K F L G L K K K J L *.8.i.i.",
"6 6 0 y L L %.L L L L L L L L L L L L $.$.L L L L L L K L K K L G L L L L L L L L L L K L L -.i.f.f.",
"y r y K L L L $.L L K L L L L L L L L L L L $.L L L L L K L L K K L L L } L K L L L L L L L <.i.f.}.",
"K G L L L L L L L K L L K L L L L L L L L L L L L L K L L K L L L L L K L L L L L K L K K L -.9.i.s.",
"L  .L L K K K L L L K L J K J #.J H G L K G G K J K K K K K K K K K J J J #.J L L K L K F L *.9.a.a.",
" .L $.L L K L K H K K L #.p p p J G G K K K J K K F G J K J G G K J J p p K L L L L L F L L -.9.a.s.",
"L L L L K L L L L L L G J p p J J J K K J J K K G F J F G L G K G K p i p p L L L G L F F L *.9.i.a.",
"G F G L L L K G G G G L P I ....$.$.$.$.$.$.$.#.%.} %.%.$.$.$.L  .L ..| ..P L J K G L F F L *.9.s.s.",
"0 0 0 F L L L G J i p L Q Z.Z.A.'.3.:.:.:.:.;.:.:.:.:.:.:.:.:.:.:.1.@.Z.n.o.H i y p G F G L *.9.a.s.",
"< 3 0 y G L L L i i u P n.G.K.P.].a.u.t.e.e.t.e.e.e.e.e.e.e.e.e.r.'.L.K.F.n.P u i p G F G L -.9.a.a.",
"1 1 6 r G L $.L L #.#.O.V.R.^.I.`.y.u.f.{.{.{.{.{.{.{.{.{.{.f.d.g. XY./.R.V.O.#.#.$.} L G L *.9.a.s.",
"0 0 r t J L &.-.:.:.:.q.L.W.W.C.+.*.7.[.XX@X+XXXXXXXOX+X+X+XoX|.|..XY./.R.C.1.;.:.2.2.&.K K  .9.a.s.",
"F F F y G L -.9.y.u.u.].Y.!.J.X.B e S G.(._.).!.(.(.!.!./.(.Y. X}.{.U.E.E.P.q.t.u.d.i.-.L G  .9.s.s.",
"L K L K L *.9.s.d.d.u.].U.W.H.d $ = a v.T.^.R.R.J.J.J.T.T.J.G.`.a.w.S.Q.Q.U.{.d.d.d.y.2. .} ..8.r.i.",
"y F K  .2.9.g.h.d.e.;.1.C.Q.J.X.$ + $ s d v.z.z.d { { z.z.{ ^ | %.+.C.J.Q.OX.Xh.y.:.*.*.-.2.2.2.2.:.",
"2 0 F *.i.}.|.h.8.#.t B v.J.J.x.z * * $ & z 9 & 9 & 9 & & & 8 2 6 V v.H.~.+X.Xu.;.u y L 8.a.r.-...L ",
"# 3 w  .a.}.|.h.:.u , % { H.R.v.x * * = < < < < < < # < # < > X * a z.H.~.OX{.e.J 3 < y 2.a.r.*.%.L ",
"+ > 6 G -.r.}.}.e.u O $ d J.E.v.z = < z Z A Z Z Z V Z A A V 9 > O % { J.~.U.0.K 6 * + 6 } -.8.*.&.*.",
"> < 1 2 e  .a.}.y.p , $ d J.E.c.z < z X.D.H.F.D.D.D.D.D.H.D.X.z > & X.J.E.V.| 5 , * > < 6 y  .8.9.r.",
"# > + O < t -.a.8.p , % X.H.J.X.9 < V m.R.^.E.R.J.J.E.W./.J.m.V < 9 X.J.J.c.9 * * * < + + < G <.r.s.",
"> + + . O 1 G *.%.t , & ! F.F.X.9 < z X.B.F.D.D.B.B.B.D.F.B.X.z 1 8 ^ F.F.^ $ X X * > O o + w ..9.9.",
"> + + O + 3 w y t 5 > 9 ! M.N.! 9 < < z Z A s Z V V Z Z s Z z 1 < 9 ^ N.N.Q 7 O * > < + + > w L =.*.",
"> < < # > # # > > > > 8 W b.b.Q 9 > = > < 1 1 < < < 1 1 1 < > > > 9 Q b.l.W 7 * > > # + + > 6 y K L ",
"6 2 3 < + + + O O X > 8 W b.j.W 9 > - 1 7 7 7 7 8 7 7 7 8 8 1 > > 9 W k.k.W 9 + > > = # + > 2 w F F ",
"y e 0 < O O O + * * > 9 W l.l.W 8 < 7 V ~ / ~ / ~ ~ ~ ~ / ~ n 7 < 8 W l.b.W 8 > > > > * O O # w y y ",
"L G y 6 > = + # > * * & W l.l.C 7 < z ~ l.M.l.l.l.l.l.l.M.l./ z < 7 C l.b.W 9 * X , < = * # 6 y G K ",
"L L L F t 8 < > O O O 7 m k.( m 7 < 9 W ( k.j.( ( ( ( j.b.( W 9 < 7 m ( ( m 7 O O O > < 0 w L L &.&.",
"L &.*.-.-.} 0 > .   X ; c R R N 7 < 4 z V V n V n V V V V V z 1 < 7 c E R l # X   o = w L -.8.9.3.9.",
"L L -.i.a.2.F < O   + < c T T c 7 < > < < 1 1 1 1 1 1 1 < < < > > 7 c _ T b 1 * . O < F -.a.h.g.a.a.",
"G L &.9.a.r.&.e 6 6 6 q c M k g @ + + = - @ - - = @ = # - - @ + + < g k M b q 6 6 6 e } 9.a.g.a.a.a.",
"0 0 F &.2.3.<.&.&.=.=.Y _ ) h : @ + + ; : : : : : : : : f : ; + O @ : h ) _ &.=.=.=.=.-.2.2.8.2.<.2.",
"1 2 0 y $.-.3.r.a.g.y.9.,._ h : @ + ; f k k k k j j j j k k g ; + @ : h _ ] 6.a.a.a.r.2. .} }  .&.L ",
"+ < < 0 F L 3.a.h.h.s.p.4.[ D b 0 0 v U ` ' ` ` ` ` ` ' ' ` D v 0 7 b D [ 4.p.s.h.h.a.2. .F y F J F ",
"= - 3 0 F  .-.3.9.r.8.3.3.4.,.O... ...,.5.5.5.4.4.4.4.4.5.4.,.*. ...>.,.4.6.3.9.r.9.2.*.} F y y F y ",
"< < 2 0 G L &.$.&.$.$.*.3.p.a.i.i.r.a.i.p.p.i.p.p.a.p.p.p.p.p.i.i.a.i.s.i.2.*.L &. . . .L L G G F F ",
"< < 6 y L L L G F F y L -.e.s.f.g.s.i.a.s.a.g.y.a.a.a.a.a.d.a.a.a.s.g.s.9.-.L F F y G K K L L L &.L ",
"> 1 6 t L L L K F F F L &.:.9.9.9.9.9.8.8.8.8.8.8.8.8.8.8.8.3.9.9.9.9.9.2.&.L F F F G K K L $.*.-.-.",
"< 1 6 q K L L K G G F L L  .&.=.&.&.&.&.&. .&.&.} =.%.&.%.%.&.=.&.=.&.=.%.L L K G G K K G L &.3.r.r.",
"< < 4 t L L L L L L L L L K G K K K G G F K K K K G K K J L K K G G K G K K K L L L K G J L -.r.s.s.",
"+ = 1 0 J K L J G G L G G G F F y y F F F F F y y y F y y y y y F y F G J F G G G G G y i G *.r.s.f.",
"+ + 1 r F L K K F G K L K K G G i F G G G G J J F y F F F F F F J F J G K K G G K G G y F L *.r.a.s.",
"< 3 6 y L $.L L L L L L L K L L L L L L L L L L } L L } L L L L L L L L K L L L L L L L G L *.3.a.s.",
"F F K  .*.-.-.-.=. .L K K G L  .*.-.*.L L L =.*.-.-.=.-.&.-.-.-.-.*.L L L $.&.*.-.-.*.&.=.*.3.r.a.a.",
"2.<.2.8.9.r.i.9.2.=.} G F G } *.3.9.-.L L L -.9.r.9.9.9.9.9.9.r.r.<.&.L L &.3.r.r.r.9.9.3.r.r.a.a.s.",
"a.i.a.a.a.a.s.s.r.-.L F F F } -.a.a.2.} L  .8.i.s.s.a.a.r.i.s.s.a.3.*.L L -.r.s.s.s.i.a.a.a.a.a.s.a.",
"a.a.s.a.i.g.g.s.i.-.} J y F } 8.a.i.8.} L  .7.s.h.s.s.s.s.s.g.g.s.r.*.L L -.r.s.f.s.s.s.a.a.s.a.a.s."
};
