/* XPM */
static char *result[] = {
/* columns rows colors chars-per-pixel */
"50 50 182 2 ",
"   c #222222",
".  c #212222",
"X  c gray13",
"o  c #202121",
"O  c #1F2020",
"+  c #292726",
"@  c #37302F",
"#  c #423736",
"$  c #413736",
"%  c #352F2E",
"&  c #282626",
"*  c #202021",
"=  c #232222",
"-  c #2D2929",
";  c #3B3232",
":  c #453938",
">  c #493C3B",
",  c #483B3A",
"<  c #493B3A",
"1  c #473B3A",
"2  c #3F3534",
"3  c #312C2B",
"4  c #262525",
"5  c #272525",
"6  c #342E2D",
"7  c #413636",
"8  c #202020",
"9  c #1E2020",
"0  c #1E1F20",
"q  c #1E1F1F",
"w  c #232323",
"e  c #242323",
"r  c #242423",
"t  c #2C2928",
"y  c #393130",
"u  c #433837",
"i  c #2B2827",
"p  c #232322",
"a  c #302B2B",
"s  c #3C3332",
"d  c #463938",
"f  c #403635",
"g  c #332D2D",
"h  c #292727",
"j  c #2A2727",
"k  c #362F2F",
"l  c #252424",
"z  c #262424",
"x  c #262524",
"c  c gray14",
"v  c #2C2828",
"b  c #3D3333",
"n  c #443837",
"m  c #3B3332",
"M  c #322C2C",
"N  c #2C2929",
"B  c #2E2A2A",
"V  c #362F2E",
"C  c #463A39",
"Z  c #383130",
"A  c #3A3231",
"S  c #2B2828",
"D  c #2E2A29",
"F  c #322D2C",
"G  c #36302E",
"H  c #393230",
"J  c #3B3331",
"K  c #393131",
"L  c #3A3131",
"P  c #3E3534",
"I  c #473A39",
"U  c #3F3535",
"Y  c #413635",
"T  c #383030",
"R  c #443937",
"E  c #4E403D",
"W  c #554540",
"Q  c #574742",
"!  c #443938",
"~  c #463939",
"^  c #473A3A",
"/  c #554441",
"(  c #634E49",
")  c #6D554F",
"_  c #715852",
"`  c #3E3433",
"'  c #4A3C3B",
"]  c #493C3A",
"[  c #4D3F3D",
"{  c #5C4945",
"}  c #6C544E",
"|  c #775C55",
" . c #7C5F58",
".. c #373030",
"X. c #3D3433",
"o. c #433737",
"O. c #4E3F3D",
"+. c #5C4946",
"@. c #6C544F",
"#. c #4C3E3D",
"$. c #5A4845",
"%. c #6A534E",
"&. c #755B54",
"*. c #7A5E56",
"=. c #4C3E3C",
"-. c #5A4844",
";. c #6A534D",
":. c #755A54",
">. c #795E56",
",. c #4B3D3C",
"<. c #4A3D3C",
"1. c #352E2E",
"2. c #312C2C",
"3. c #7A5E57",
"4. c #342E2E",
"5. c #5B4845",
"6. c #6B534E",
"7. c #765B55",
"8. c #7B5F57",
"9. c #765B54",
"0. c #584643",
"q. c #66504B",
"w. c #6F5751",
"e. c #735A53",
"r. c #4A3D3B",
"t. c #524240",
"y. c #614C48",
"u. c #634E4A",
"i. c #2D2A29",
"p. c #50403E",
"a. c #534340",
"s. c #4F403E",
"d. c #544441",
"f. c #554442",
"g. c #604C48",
"h. c #68524D",
"j. c #705751",
"k. c #745A53",
"l. c #5F4B47",
"z. c #564542",
"x. c #4D3E3D",
"c. c #51413F",
"v. c #544341",
"b. c #3E3434",
"n. c #4B3D3B",
"m. c #594744",
"M. c #67514C",
"N. c #715851",
"B. c #6B544E",
"V. c #5B4945",
"C. c #785C55",
"Z. c #7D6058",
"A. c #69524D",
"S. c #795D56",
"D. c #6F5650",
"F. c #50413F",
"G. c #574643",
"H. c #5A4744",
"J. c #332E2D",
"K. c #5D4A46",
"L. c #423835",
"P. c #443936",
"I. c #493D3A",
"U. c #51423F",
"Y. c #574542",
"T. c #4E3F3E",
"R. c #574543",
"E. c #65504B",
"W. c #785D56",
"Q. c #5F4B46",
"!. c #604C47",
"~. c #624E49",
"^. c #594743",
"/. c #534341",
"(. c #624D49",
"). c #735953",
"_. c #765C55",
"`. c #735952",
"'. c #5E4A47",
"]. c #7B5F58",
"[. c #6E5650",
"{. c white",
/* pixels */
"    . X o O O X + @ # $ % & o O * o o o o O O = - ; : > > , < > 1 2 3 4 5 6 7 # @ + X O 8 o O 9 0 q ",
"    = w e w = r t y u # @ i e = w e e e e w p 4 a s d > > , < > , f g h j k # u y t r   w e l z x 4 ",
"X   c & v - t - g b n u m M - v N - - - - t v B V 2 C > < , , > , # Z 3 M A u n b g - S t D F G H J ",
"O   & a @ A K L b # C d 7 s K y K K K K K y y A P u I , , , , < , : U m s Y : C # b K T Z s R E W Q ",
". l N T # : : : : I 1 1 C : : ! : : : : : ! ! : ~ I , , , , , , , ^ C : : C 1 1 I : ! u u , / ( ) _ ",
"j - 6 ` C ' ' > < , , , , ] > > > > > > > > > > < , , , , , , , , , < > ] , , , , < > , , [ { } |  .",
"..K X.o., ' ' > > , , , < > > > > > > > > > > > ] , , , , , , , , , < > > < , , , > > , , O.+.@.|  .",
"u n : C , , , , , , , , , , , , , , , , , , , , , , , , , , , , , , , , , , , , , , , I I #.$.%.&.*.",
"> > > , , , , , , , , , , , , , , , , , , , , , , , , , , , , , , , , , , , , , , , , I I =.-.;.:.>.",
",.<.' > , , , , , , , , , , , , , , , , , , , , , , , , , , , , , , , , , , , , , , , I I =.-.;.:.>.",
", , , , , , , , , , , , , , , , , , , , , , , , , , , , , , , , , , , , , , , , , , , I I =.-.;.:.>.",
"Y $ u : 1 , , , , , , , , , , , , , , , , , , , , , , , , , , , , , , , , , , , , , , I I =.-.;.:.>.",
"g 1.K f C < < , , , , , , , , , , , , , , , , , , , , , , , , , , , , , , , , , , , , I I =.-.;.:.>.",
"5 j 2.s : ] > , , , , , , , , , , , , , , , , , , , , , , , , , , , , , , , , , , , , I I =.-.;.:.>.",
"4 h 3 s : > > , , , , , , , , , , , , , , , , , , , , , , , , , , , , , , , , , , , , I I =.$.%.&.3.",
"F 4.K f C < < , , , , , , , , , , , , , , , , , , , , , , , , , , , , , , , , , , , , I I #.5.6.7.8.",
"f Y # : 1 , , , , , , , , , , , , , , , , , , , , , , , , , , , , , , , , , , , , , , I I =.5.%.9.3.",
"u u ! C , , , , , , , , , , , , , , , , , , , , , , , , , , , , , , , , , , , , , , , I I =.0.q.w.e.",
"y A ` # I , , , , , , , , , , , , , , , , , , , , , , , , , , , , , , , , , , , , , , ^ 1 r.t.5.y.u.",
"S i.6 X.: < > , , , , , , , , , , , , , , , , , , , , , , , , , , , , , , , , , , , , , , > =.p.t.a.",
". l i.A : > > , , , , , , , , , , , , , , , , , , , , , , , , , , , , , , , , , , , , , , < r.=.[ O.",
"O = v y ! > > , , , , , , , , , , , , , , , , , , , , , , , , , , , , , , , , , , , , 1 , ' s.d.0.-.",
"O w t K ! > > , , , , , , , , , , , , , , , , , , , , , , , , , , , , , , , , , , , , I ^ ,.f.g.h.} ",
"o e - K : > > , , , , , , , , , , , , , , , , , , , , , , , , , , , , , , , , , , , , I I =.0.q.j.k.",
"O w t y ! > > , , , , , , , , , , , , , , , , , , , , , , , , , , , , , , , , , , , , I ^ ,.d.l.q.;.",
"O = v y ! > > , , , , , , , , , , , , , , , , , , , , , , , , , , , , , , , , , , , , , , > O.a.z.0.",
"  z B A : > > , , , , , , , , , , , , , , , , , , , , , , , , , , , , , , , , , , , , , , , ' =.[ O.",
"v B 1.` d < > , , , , , , , , , , , , , , , , , , , , , , , , , , , , , , , , , , , , , , > x.c.v./ ",
"K ; b.o.I , , , , , , , , , , , , , , , , , , , , , , , , , , , , , , , , , , , , , , ^ 1 n.a.+.( q.",
"! : d I , , , , , , , , , , , , , , , , , , , , , , , , , , , , , , , , , , , , , , , I I =.m.M.N.&.",
"' > > < , , , , , , , , , , , , , , , , , , , , , , , , , , , , , , , , , , , , , , , I I #.5.B.| 8.",
",.<.' > , , , , , , , , , , , , , , , , , , , , , , , , , , , , , , , , , , , , , , , C I x.V.@.C.Z.",
", , , , , , , , , , , , , , , , , , , , , , , , , , , , , , , , , , , , , , , , , , , I I =.-.A.k.S.",
"U f # : 1 , , , , , , , , , , , , , , , , , , , , , , , , , , , , , , , , , , , , , , I I ,.z.( B.D.",
"F 4.K f C < < , , , , , , , , , , , , , , , , , , , , , , , , , , , , , , , , , , , , 1 1 ' F.G.+.l.",
"x h 3 m : > > , , , , , , , , , , , , , , , , , , , , , , , , , , , , , , , , , , , , , , < ,.x.s.s.",
"* e N K : > > , , , , , , , , , , , , , , , , , , , , , , , , , , , , , , , , , , , , , , , , 1 ^ I ",
"O = v y ! > > , , , , , , , , , , , , , , , , , , , , , , , , , , , , , , , , , , , , , , , I ~ : : ",
"o e N K : > > , , , , , , , , , , , , , , , , , , , , , , , , , , , , , , , , , , , , , , , , 1 ^ I ",
"o e - K : > > , , , , , , , , , , , , , , , , , , , , , , , , , , , , , , , , , , , , , , < ,.x.s.s.",
"o e - K : > > , , , , , , , , , , , , , , , , , , , , , , , , , , , , , , , , , , , , 1 1 ' F.G.+.l.",
"o e - K : > > , , , , , , , , , , , , , , , , , , , , , , , , , , , , , , , , , , , , I I ,.z.( B.D.",
"o e N K ! > > , , , , , , , , , , , , , , , , , , , , , , , , , , , , , , , , , , , , C I =.-.A.k.S.",
"q . j ..u , , I I 1 , , , , , 1 I I ^ , , , I I I I I I I I I I I I 1 , , 1 I I I I C : : ,.-.6.7.8.",
"0   S T u , , I I 1 , , , , , 1 I I 1 , , , ^ I I I I I I I I I I I , , , 1 I I I I I : ~ ,.H.%.&.3.",
"& S J.2 ] [ [ =.,.' < , , , < ' ,.=.n.> < > ,.=.#.#.=.=.=.=.=.#.=.,.' < ] ' ,.=.#.=.=.,.,.F.K.B.&.S.",
"L.P.I.U.0.5.{ -.z.F.,., I , ,.c.Y.0.a.#.r.T./ m.5.5.-.-.-.-.5.5.-.z.p.,.,.F.R.-.5.$.-.m.H.K.E.D.9.W.",
"Q.!.~.q.A.6.B.A.( G.x.1 ~ 1 [ ^.u.E.+.F.=./.l.h.B.6.;.;.;.;.%.B.A.(.z.x.O.0.u.;.B.%.;.A.A.B.D.)._.C.",
"`.).).k.:.&._.k.B.+.s.^ : ^ s.'.@.D.~.a.[ G.M.`.7.9.:.:.:.:.&._.k.6.5.s.p.K.@.:._.&.:.:.:.&.9._.| | ",
"].8.8.3.*.3.8.S.D.l.s.I : I s.g.j.).E.v.O.m.%.| 8.3.>.>.>.>.3.8.S.[.K.s.F.l.j.>.8.3.>.>.>.S.W.C.| | "
};
