/* XPM */
static char *result[] = {
/* columns rows colors chars-per-pixel */
"50 50 31 1 ",
"  c #1E1F1F",
". c #1E1F20",
"X c #1F2020",
"o c #242323",
"O c #292726",
"+ c #2B2827",
"@ c #2D2929",
"# c #332D2D",
"$ c #37302F",
"% c #38312F",
"& c #373030",
"* c #3B3332",
"= c #413736",
"- c #433837",
"; c #463A39",
": c #493B3A",
"> c #4F403E",
", c #51413F",
"< c #554542",
"1 c #594743",
"2 c #5C4945",
"3 c #5F4B48",
"4 c #604C47",
"5 c #624E49",
"6 c #66504B",
"7 c #6A534D",
"8 c #6F5650",
"9 c #705751",
"0 c #755A54",
"q c #7A5E56",
"w c #7C5F58",
/* pixels */
"ooXoXXXXO&==&OXXXXoXo..o@&;:::::;=#Oo#==&Oo Xo.X..",
"oooooooo@&-=&OoooooooooO#*-:::::;=#OO&=-*+ooooooOO",
" ooO@@@@#=--*#@@@@@@@@@@#=;::::::=$##*==&#+++@#&&*",
" oO@$*&&*---=*&&&*&**&&&*-::::::;-=**=;;==*&&*;><<",
"oo@&=;;;--::;;--;-:-;-;;;;::::::;;;;;;;;;;;--;<589",
"O##*;:::::::::::::::::::::;;:;:;::::;:::::::::18qw",
"&&*=:::::::;:::::::::::::::::;:;:;:::::::::::>47qq",
"--;;:::::;:::::::::::::::::;:::::::;::;:;::;::170q",
"::::::;;:::::::::::;::::;:;::::;::;:;:;::;:;::170q",
":::::;:::;:;::::;;::;:;;;:::;:::;:::;:::::::::170q",
":::::::::::;:::::::::::::;::::;:::;::;:::;::::179q",
"==;:;:::;:::::<::;;::;;::::;;;::;::::::;::::::270q",
"#&&=;:::;-;:<53<,::;;;:::;;::;:::;:::;;:;:;;::470q",
"oO#*;:::-:;>3775,:;;:::;:::::::;:::;:::::::;::270q",
"oO#*;:<:>>><3551:;;>:,:::;:::;:::;:::;;::::;;:27qq",
"#&&*;:<35533<<:;**;<41,::;;;;::;:;:;::::;::;::270q",
"===-:,479085,=#@O#;375<::-::;:::;:::::;::::;::470q",
"=--;:,377974:#oXO@;155,:::>:::;::::;:;::;::;::1680",
"&*=-::,,1,<>=##@##=:,:=*-,13,:::;:;:::::::;:::,455",
"O##*;;=&%%%%**=*****&@@#=1651:;;:::::;:;;;:::::<<,",
"oo+%-*$OOo+@&=:::;&#OooO=1851>;;::;::::::::;::::>>",
" oO#####@@@#*-:::;=##OO#*:<<,::;;:;;;:::;::::::<<1",
"oXoo@##%*&%==;::::=*********-:::::::;::::::;;:<477",
"Xoooo#&;::;;;::;:::;;;:-&#@#&=:::::::::::;;;;:2680",
"oXoO@#*;::::::::::::::::=##@#*=:13121:::;;;;;:<457",
"XoO#&=-::::::::;;::::::;;=*&@@*,577752::;;;;;;>,<1",
"oo#&-;:::::;:::::::::::::--&##*:690973::;::>:::>>>",
"+@#*;::::;::::;:;::::::;-==*$*;<24444311<1111<<<<<",
"**=-;:::;::::;:;:::::::;=%%%;,,,-===:<577777777665",
"---;:::::::;:::::;:;:::;%@+%,64:#OoO&>590988999908",
"::::::;::;::;:;:;:;;:,,,-@O$,64:#OoO#-1565555570qq",
":>:::;::::;;::::::;;:,44,%O@:2,:&&&&&*==;;;=;:<7qw",
":;:::;:;::::;:;::::::5671%@@*::::---=&@++@+++#:50q",
"===-;::::;;:::;:::::<454,=@#*-::::::-&#OOOOOO@=278",
"##&=;::::::::::;::,454::=*%%=-;:::::;=&######*-:15",
"oO#*;::;:;;:;::;::2761;##%;;-:::::::;---====-:::>>",
".o#&;::::::::::;::165,*@#*-::::::::::;::::;:;::;;;",
".oO*;:::;;:;:;:;:::::-&$%=:::::-::;::::::::::::;;;",
"ooO&;:::::::::::::=$$$*=-:::::::::::::::::::::::;;",
"oo@&-:::;:::::::::%+o#*-:::::::::;:;;:;:::::::::,,",
"oo@&;>>;::::;;:<41;#o@*::::;:;:;:;:;:;:;;:::;:,114",
".o@&;:;::;;:;:>366:$O+*;::::::::::::::::;::;;:1579",
".O@&=:;;::::;;>165:#O#%:::::;:::;::::;:::::;::260q",
"..O&;;;;;;:;;;:><:-@o+*-::;;;;;;;;;::;::;;;-;:180w",
"..@&;;;;;;:;:;;=&#@oo#*::;;;;;;:::::::::::;;::370q",
"O@#=;>>>>>;;>::*#@OoO#=:>>>:>>>:::::::::,::::,370q",
"=;:,<231<>:>,<<,-=&##=>1411111311<>::,11221113590q",
"355677773<>,157651,--:177777777775<>>157778667800q",
"9090000071>>3700094,><6900000000071>>47000000000q0",
"wwwqqwwq83>,49www06<>17qwqwqqqqwq94>>49qwwqqqqqq0q"
};
