/* XPM */
static char *result[] = {
/* columns rows colors chars-per-pixel */
"50 50 181 2 ",
"   c #222323",
".  c #2B2C2C",
"X  c #2F2528",
"o  c #39272D",
"O  c #30302F",
"+  c #272E32",
"@  c #2C3334",
"#  c #2F3837",
"$  c #2E3939",
"%  c #333334",
"&  c #3A3334",
"*  c #343A3A",
"=  c #3A3B3A",
"-  c #393837",
";  c #482A34",
":  c #5E2F3E",
">  c #572D3B",
",  c #41403F",
"<  c #2C3B43",
"1  c #303F46",
"2  c #593A44",
"3  c #603D45",
"4  c #7A354C",
"5  c #2F424D",
"6  c #36504E",
"7  c #3A565A",
"8  c #354852",
"9  c #395B68",
"0  c #3C5F71",
"q  c #3A6073",
"w  c #3D6267",
"e  c #4B4B4B",
"r  c #464646",
"t  c #4A5459",
"y  c #515151",
"u  c #5B5B5B",
"i  c #78424F",
"p  c #6C4F53",
"a  c #605F5C",
"s  c #725C5F",
"d  c #63484C",
"f  c #455863",
"g  c #6A5D62",
"h  c #497777",
"j  c #4C656A",
"k  c #636363",
"l  c #6B6B6B",
"z  c #676768",
"x  c #74686A",
"c  c #74726F",
"v  c #667D79",
"b  c #717171",
"n  c #7D7D7D",
"m  c #656E73",
"M  c #8D3955",
"N  c #953E5A",
"B  c #A33E60",
"V  c #844A56",
"C  c #9D405F",
"Z  c #875159",
"A  c #9E4261",
"S  c #835162",
"D  c #905362",
"F  c #B54168",
"G  c #BC436C",
"H  c #BA506E",
"J  c #A34263",
"K  c #876368",
"L  c #857379",
"P  c #B46A75",
"I  c #A66771",
"U  c #C64571",
"Y  c #CC4874",
"T  c #D64B78",
"R  c #DE4F7D",
"E  c #C05572",
"W  c #DF517E",
"Q  c #E0527F",
"!  c #C56D7B",
"~  c #D6627F",
"^  c #4C827D",
"/  c #82837E",
"(  c #487689",
")  c #467C91",
"_  c #4D7D93",
"`  c #767D81",
"'  c #8F7E84",
"]  c #E25781",
"[  c #D17482",
"{  c #E96788",
"}  c #EC6D8B",
"|  c #E66A88",
" . c #E37C8C",
".. c #E07288",
"X. c #F37C92",
"o. c #F07790",
"O. c #52908B",
"+. c #4A8295",
"@. c #4D8799",
"#. c #4C8899",
"$. c #508E9D",
"%. c #52929F",
"&. c #4F8985",
"*. c #62938E",
"=. c #658C9C",
"-. c #6D8C8F",
";. c #5CA49E",
":. c #5294A1",
">. c #5599A5",
",. c #579EA8",
"<. c #5D9EA6",
"1. c #7297A5",
"2. c #5AA4AC",
"3. c #5DA7A2",
"4. c #5DACB1",
"5. c #5FB0B4",
"6. c #61B1AF",
"7. c #65AAB1",
"8. c #6DAEB4",
"9. c #61B2B4",
"0. c #64BABB",
"q. c #64B5B8",
"w. c #70BCBD",
"e. c #63A1AB",
"r. c #67C0BE",
"t. c #6AC5BF",
"y. c #6AC5C3",
"u. c #6CCAC5",
"i. c #6ECEC9",
"p. c #7ACEC9",
"a. c #77C7C3",
"s. c #6FD0CA",
"d. c #72D5CD",
"f. c #78D4CD",
"g. c #868686",
"h. c #898681",
"j. c #8A8A8A",
"k. c #878984",
"l. c #938989",
"z. c #959595",
"x. c #9A9A9A",
"c. c #9B9892",
"v. c #919893",
"b. c #A29F9A",
"n. c #A7A49D",
"m. c #80A8B1",
"M. c #97ADB6",
"N. c #99ABB1",
"B. c #9AB0B8",
"V. c #8AAAB1",
"C. c #ABABAB",
"Z. c #A5A6A6",
"A. c #B4B4B4",
"S. c #BCBABB",
"D. c #A6B8BE",
"F. c #EF8292",
"G. c #F78597",
"H. c #AEBEC3",
"J. c #84C9C6",
"K. c #97CAC9",
"L. c #9CD0CB",
"P. c #82DAD1",
"I. c #B4C3C4",
"U. c #BFCECE",
"Y. c #A9D2CB",
"T. c #ADD7D0",
"R. c #B9DDD7",
"E. c #B7E2DA",
"W. c #C4C3C3",
"Q. c #D6D5CD",
"!. c #D5DBD5",
"~. c #DDDCD4",
"^. c #D0D0D0",
"/. c #E3DED5",
"(. c #DDE0DC",
"). c #E6E4DD",
"_. c #E8E6DF",
"`. c #C4E9E0",
"'. c #ECE9E2",
"]. c #F1ECE4",
"[. c None",
/* pixels */
"[.[.[.[.[.[.[.[.[.[.[.[.[.[.[.[.[.[.[.[.[.[.[.[.[.[.[.[.[.[.[.[.[.[.[.[.[.[.[.[.[.[.[.[.[.[.[.[.[.[.",
"[.[.[.[.[.[.[.[.[.[.[.[.[.[.[.[.[.[.[.[.[.[.[.[.[.[.[.[.[.[.[.[.[.[.[.[.[.[.[.[.[.[.[.[.[.[.[.[.[.[.",
"[.[.[.[.[.[.[.[.[.[.[.[.[.[.[.[.[.[.[.[.[.[.[.[.[.[.[.[.[.[.[.[.[.[.[.[.[.[.[.[.[.[.[.[.[.[.[.[.[.[.",
"[.[.[.[.[.[.[.[.[.[.[.[.[.[.[.[.[.[.[.[.[.[.[.[.[.[.[.[.[.[.[.[.[.[.[.[.[.[.[.[.[.[.[.[.[.[.[.[.[.[.",
"[.[.[.[.[.[.[.[.[.[.[.[.[.[.[.[.[.[.[.[.[.[.[.[.[.C.g.g.g.j.g.g.g.g.g.g.g.g.g.Z.[.[.[.[.[.[.[.[.[.[.",
"[.[.[.[.[.[.[.[.[.[.[.[.[.[.[.[.[.[.[.[.[.[.[.[.[.l & & & & & & & & & & & & & x W.[.[.[.[.[.[.[.[.[.",
"[.[.[.[.[.[.[.[.[.[.[.[.[.[.[.[.[.[.[.[.[.[.[.C.l.K Z Z Z Z Z Z V V 4 4 4 4 4 S ' x.[.[.[.[.[.[.[.[.",
"[.[.[.[.[.[.[.[.[.[.[.[.[.[.[.[.[.[.[.[.[.[.W.z d P F. . . . . . .~ Y U U U U J 2 = [.[.[.[.[.[.[.[.",
"[.[.[.[.[.[.[.[.[.[.[.[.[.[.[.[.[.[.[.[.[.A.l.K D [ G.G.G.o.} } | H C M M N M S L L [.[.[.[.[.[.[.[.",
"[.[.[.[.[.[.[.[.[.[.[.[.[.[.[.[.[.[.[.[.S.k p P  .G.G.G.G.{ Q W T N ; o o o o g S.[.[.[.[.[.[.[.[.[.",
"[.[.[.[.[.[.[.[.[.[.[.[.[.[.[.[.[.[.[.[.A.r 3 ! G.G.G.o.} ] T G N S x l l b l x.[.[.[.[.[.[.[.[.[.[.",
"[.[.[.[.[.[.[.[.[.[.[.[.[.[.[.[.[.[.[.[.A.e 3 ! G.G.X.{ Q R Y M 2 ' [.[.[.[.[.[.[.[.[.[.[.[.[.[.[.[.",
"[.[.[.[.[.[.[.[.[.[.[.[.[.[.[.[.[.[.[.[.[.n x I ! ..} ] T G J Z x C.[.[.[.[.[.[.[.[.[.[.[.[.[.[.[.[.",
"[.[.[.[.[.[.[.[.[.[.[.[.[.[.[.[.[.[.[.[.[.[.b.s 4 H ] R Y M 2 ' W.[.[.[.[.[.[.[.[.[.[.[.[.[.[.[.[.[.",
"[.[.[.[.[.[.[.[.[.[.[.[.[.[.[.[.[.[.[.[.[.^.b.e ; M B U B : % ` W.[.[.[.[.[.[.[.[.[.[.[.[.[.[.[.[.[.",
"[.[.[.[.[.[.[.[.[.[.[.[.[.[.A.b l z z z l l y % X ; : : > o X e z l x C.[.[.[.[.[.[.[.[.[.[.[.[.[.[.",
"[.[.[.[.[.[.[.[.[.[.[.[.[.[.j.. O , , , 5 * $ $ $ $ $ $ $ $ $ < $ + . / [.[.[.[.[.[.[.[.[.[.[.[.[.[.",
"[.[.[.[.[.[.[.[.[.[.[.[.[.[.j.- a c.n.n.v.*.O.O.O.O.O.O.O.O.O.O.&.7 O ^ [.[.[.[.[.[.[.[.[.[.[.[.[.[.",
"[.[.[.[.[.[.[.[.[.[.[.[.[.[./ - n Q._._.^.p.y.u.i.y.y.y.t.i.d.d.t.^ # n [.[.[.[.[.[.[.[.[.[.[.[.[.[.",
"[.[.[.[.[.[.[.[.[.[.A.g.j.n y O u V.M.M.8.e.,.,.2.,.2.,.2.r.d.d.i.^ # n [.[.[.[.[.[.[.[.[.[.[.[.[.[.",
"[.[.[.[.[.[.[.[.[.[.b % % - & - 7 ( _ _ _ ) ) ) ) ) ) ) +.4.d.d.u.^ # n [.[.[.[.[.[.[.[.[.[.[.[.[.[.",
"[.[.[.[.[.[.[.[.[.[.b . a / / k.-.<.,.2.,.2.2.,.,.,.:.+.+.4.d.d.a.^ * n [.[.[.[.[.[.[.[.[.[.[.[.[.[.",
"[.[.[.[.[.[.[.[.[.[.b - c./.).(.T.p.i.u.u.i.u.u.u.u.0.:.) 4.s.d.u.^ = / [.[.[.[.[.[.[.[.[.[.[.[.[.[.",
"[.[.[.[.[.[.[.[.[.[.b = b.'.!.I.K.f.y.5.0.i.u.0.5.u.t.:.) 4.d.d.u.^ = L [.[.[.[.[.[.[.[.[.[.[.[.[.[.",
"[.[.[.[.[.[.[.[.[.[.b = b._.D.=.4.i.5.#.,.y.0.:.:.r.y.:.) 4.s.d.t.^ * / [.[.[.[.[.[.[.[.[.[.[.[.[.[.",
"[.[.[.[.[.[.[.[.[.[.b = b._.B._ ,.u.4.) :.y.5.#.$.5.y.:.) 4.d.d.i.^ # ^ [.[.[.[.[.[.[.[.[.[.[.[.[.[.",
"[.[.[.[.[.[.[.[.[.[.b = b.).B._ ,.u.4.) :.y.0.#.#.r.y.:.) 4.d.d.u.^ ; / [.[.[.[.[.[.[.[.[.[.[.[.[.[.",
"[.[.[.[.[.[.[.[.[.[.b = b.).B._ ,.u.4.) :.y.0.#.#.5.y.:.) 4.d.d.i.^ * / [.[.[.[.[.[.[.[.[.[.[.[.[.[.",
"[.[.[.[.[.[.[.[.[.[.b = x.'.B.) ,.u.4.) :.r.0.#.#.5.y.:.) 4.s.d.t.^ * L [.[.[.[.[.[.[.[.[.[.[.[.[.[.",
"[.[.[.[.[.[.[.[.[.[.l = x.'.H.1.q.i.0.$.2.u.r.>.>.r.y.:.) 4.d.d.i.^ # ^ [.[.[.[.[.[.[.[.[.[.[.[.[.[.",
"[.[.[.[.[.[.[.[.[.[.b - b.].(.^.L.f.y.0.r.s.u.r.r.u.y.:.) 4.d.d.i.^ ; ^ [.[.[.[.[.[.[.[.[.[.[.[.[.[.",
"[.[.[.[.[.[.[.[.[.[.b - l.Q.~.^.Y.i.y.y.y.u.y.y.u.y.0.#.) 4.d.d.i.^ , L [.[.[.[.[.[.[.[.[.[.[.[.[.[.",
"[.[.[.[.[.[.[.[.[.[.b . y c c c -.%.:.:.>.>.>.>.>.>.$.) ) 4.d.d.i.h $ ` [.[.[.[.[.[.[.[.[.[.[.[.[.[.",
"[.[.[.[.[.[.[.[.[.[.n = = = % O 7 ( _ ) ) _ ) ) ) ) ) ) +.5.s.d.u.&.$ n [.[.[.[.[.[.[.[.[.[.[.[.[.[.",
"[.[.[.[.[.[.[.[.[.[.S.x.x.j.u O z N.V.7.2.4.2.2.4.2.2.4.4.r.d.d.u.&.# n [.[.[.[.[.[.[.[.[.[.[.[.[.[.",
"[.[.[.[.[.[.[.[.[.[.[.[.[.[.g.= / !.E.p.u.u.u.u.u.u.u.u.i.i.s.s.t.h # n [.[.[.[.[.[.[.[.[.[.[.[.[.[.",
"[.[.[.[.[.[.[.[.[.[.[.[.[.[.j.= v Y.K.9.2.2.2.2.2.2.2.2.2.2.2.2.>.j @ ^ [.[.[.[.[.[.[.[.[.[.[.[.[.[.",
"[.[.[.[.[.[.[.[.[.[.[.[.[.[.j.* h a.8.#._ ) ) _ ) ) ) ) ) ) ) ) ( 7 + n [.[.[.[.[.[.[.[.[.[.[.[.[.[.",
"[.[.[.[.[.[.[.[.[.[.[.[.[.[.j.* v L.J.2.>.>.>.>.>.>.>.>.,.>.>.>.:.w + n [.[.[.[.[.[.[.[.[.[.[.[.[.[.",
"[.[.[.[.[.[.[.[.[.[.[.[.[.[.j.= h.!.E.p.u.u.u.u.u.u.u.u.u.u.u.u.r.h $ n [.[.[.[.[.[.[.[.[.[.[.[.[.[.",
"[.[.[.[.[.[.[.[.[.[.[.[.[.[.j.= h.).`.P.d.d.d.d.d.d.d.d.d.f.d.d.i.^ $ n [.[.[.[.[.[.[.[.[.[.[.[.[.[.",
"[.[.[.[.[.[.[.[.[.[.[.[.[.[.j.= h.).`.P.d.d.d.d.d.d.d.d.d.d.d.d.y.^ $ h.[.[.[.[.[.[.[.[.[.[.[.[.[.[.",
"[.[.[.[.[.[.[.[.[.[.[.[.[.[.j.= b I.K.w.9.3.3.3.3.;.;.;.3.9.0.0.5.h - L [.[.[.[.[.[.[.[.[.[.[.[.[.[.",
"[.[.[.[.[.[.[.[.[.[.[.[.[.[.j.% t =.=.$.h 7 6 6 6 6 6 6 7 h #.#.+.7 - L [.[.[.[.[.[.[.[.[.[.[.[.[.[.",
"[.[.[.[.[.[.[.[.[.[.[.[.[.[.Z.u t 0 q q 8 + O r y y y y t f q q 9 5 + ^ [.[.[.[.[.[.[.[.[.[.[.[.[.[.",
"[.[.[.[.[.[.[.[.[.[.[.[.[.[.[.A.` 8 < < $   e z.S.A.S.A.Z.m 1 < < + & L [.[.[.[.[.[.[.[.[.[.[.[.[.[.",
"[.[.[.[.[.[.[.[.[.[.[.[.[.[.[.[.x.%         k [.[.[.[.[.[.n .       X / [.[.[.[.[.[.[.[.[.[.[.[.[.[.",
"[.[.[.[.[.[.[.[.[.[.[.[.[.[.[.[.[.[.[.[.[.[.[.[.[.[.[.[.[.[.[.[.[.[.[.[.[.[.[.[.[.[.[.[.[.[.[.[.[.[.",
"[.[.[.[.[.[.[.[.[.[.[.[.[.[.[.[.[.[.[.[.[.[.[.[.[.[.[.[.[.[.[.[.[.[.[.[.[.[.[.[.[.[.[.[.[.[.[.[.[.[.",
"[.[.[.[.[.[.[.[.[.[.[.[.[.[.[.[.[.[.[.[.[.[.[.[.[.[.[.[.[.[.[.[.[.[.[.[.[.[.[.[.[.[.[.[.[.[.[.[.[.[."
};
