/* XPM */
static char *_ce5c7b7f3ef468dcc69943003330fec7DGlzXWBHsnSIPOQ[] = {
/* columns rows colors chars-per-pixel */
"50 50 181 2 ",
"   c None",
".  c #222323",
"X  c #2B2C2C",
"o  c #2F2528",
"O  c #39272D",
"+  c #30302F",
"@  c #272E32",
"#  c #2C3334",
"$  c #2F3837",
"%  c #2E3939",
"&  c #333334",
"*  c #3A3334",
"=  c #343A3A",
"-  c #3A3B3A",
";  c #393837",
":  c #482A34",
">  c #5E2F3E",
",  c #572D3B",
"<  c #41403F",
"1  c #2C3B43",
"2  c #303F46",
"3  c #593A44",
"4  c #603D45",
"5  c #7A354C",
"6  c #2F424D",
"7  c #36504E",
"8  c #3A565A",
"9  c #354852",
"0  c #395B68",
"q  c #3C5F71",
"w  c #3A6073",
"e  c #3D6267",
"r  c #4B4B4B",
"t  c #464646",
"y  c #4A5459",
"u  c #515151",
"i  c #5B5B5B",
"p  c #78424F",
"a  c #6C4F53",
"s  c #605F5C",
"d  c #725C5F",
"f  c #63484C",
"g  c #455863",
"h  c #6A5D62",
"j  c #497777",
"k  c #4C656A",
"l  c #636363",
"z  c #6B6B6B",
"x  c #676768",
"c  c #74686A",
"v  c #74726F",
"b  c #667D79",
"n  c #717171",
"m  c #7D7D7D",
"M  c #656E73",
"N  c #8D3955",
"B  c #953E5A",
"V  c #A33E60",
"C  c #844A56",
"Z  c #9D405F",
"A  c #875159",
"S  c #9E4261",
"D  c #835162",
"F  c #905362",
"G  c #B54168",
"H  c #BC436C",
"J  c #BA506E",
"K  c #A34263",
"L  c #876368",
"P  c #857379",
"I  c #B46A75",
"U  c #A66771",
"Y  c #C64571",
"T  c #CC4874",
"R  c #D64B78",
"E  c #DE4F7D",
"W  c #C05572",
"Q  c #DF517E",
"!  c #E0527F",
"~  c #C56D7B",
"^  c #D6627F",
"/  c #4C827D",
"(  c #82837E",
")  c #487689",
"_  c #467C91",
"`  c #4D7D93",
"'  c #767D81",
"]  c #8F7E84",
"[  c #E25781",
"{  c #D17482",
"}  c #E96788",
"|  c #EC6D8B",
" . c #E66A88",
".. c #E37C8C",
"X. c #E07288",
"o. c #F37C92",
"O. c #F07790",
"+. c #52908B",
"@. c #4A8295",
"#. c #4D8799",
"$. c #4C8899",
"%. c #508E9D",
"&. c #52929F",
"*. c #4F8985",
"=. c #62938E",
"-. c #658C9C",
";. c #6D8C8F",
":. c #5CA49E",
">. c #5294A1",
",. c #5599A5",
"<. c #579EA8",
"1. c #5D9EA6",
"2. c #7297A5",
"3. c #5AA4AC",
"4. c #5DA7A2",
"5. c #5DACB1",
"6. c #5FB0B4",
"7. c #61B1AF",
"8. c #65AAB1",
"9. c #6DAEB4",
"0. c #61B2B4",
"q. c #64BABB",
"w. c #64B5B8",
"e. c #70BCBD",
"r. c #63A1AB",
"t. c #67C0BE",
"y. c #6AC5BF",
"u. c #6AC5C3",
"i. c #6CCAC5",
"p. c #6ECEC9",
"a. c #7ACEC9",
"s. c #77C7C3",
"d. c #6FD0CA",
"f. c #72D5CD",
"g. c #78D4CD",
"h. c #868686",
"j. c #898681",
"k. c #8A8A8A",
"l. c #878984",
"z. c #938989",
"x. c #959595",
"c. c #9A9A9A",
"v. c #9B9892",
"b. c #919893",
"n. c #A29F9A",
"m. c #A7A49D",
"M. c #80A8B1",
"N. c #97ADB6",
"B. c #99ABB1",
"V. c #9AB0B8",
"C. c #8AAAB1",
"Z. c #ABABAB",
"A. c #A5A6A6",
"S. c #B4B4B4",
"D. c #BCBABB",
"F. c #A6B8BE",
"G. c #EF8292",
"H. c #F78597",
"J. c #AEBEC3",
"K. c #84C9C6",
"L. c #97CAC9",
"P. c #9CD0CB",
"I. c #82DAD1",
"U. c #B4C3C4",
"Y. c #BFCECE",
"T. c #A9D2CB",
"R. c #ADD7D0",
"E. c #B9DDD7",
"W. c #B7E2DA",
"Q. c #C4C2C3",
"!. c #D6D5CD",
"~. c #D5DBD5",
"^. c #DDDCD4",
"/. c #D0D0D0",
"(. c #E3DED5",
"). c #DDE0DC",
"_. c #E6E4DD",
"`. c #E8E6DF",
"'. c #C4E9E0",
"]. c #ECE9E2",
"[. c #F1ECE4",
/* pixels */
"                                                                                                    ",
"                                                                                                    ",
"                                                                                                    ",
"                                                                                                    ",
"                    Z.h.h.h.h.h.h.h.h.h.h.h.h.h.Z.                                                  ",
"                  Q.z * * * * * * * * * * * * * c                                                   ",
"                x.] D 5 5 5 5 5 C A A A A A A A L z.Z.                                              ",
"                - 3 S Y Y Y Y T ^ ..............I f x Q.                                            ",
"                m P F N N N N B W  .| | O.H.H.H.{ F L z.S.                                          ",
"                  D.h O O O O : B R Q ! } o.H.H.G...I a l D.                                        ",
"                    c.z z z z c D Z H R [ | O.H.H.H.~ 4 r S.                                        ",
"                                P 3 N T E [ } o.H.H.~ 4 r S.                                        ",
"                                Z.x D K H R [ | X.~ U c m                                           ",
"                                  Q.] 4 N T E [ J p d n.                                            ",
"                                  Q.m & > V G G N : r c./.                                          ",
"                            A.z x x t X O , > > : o & u x x x x x x n S.                            ",
"                            m X X % % % % % % % % % % % = - < < - + & k.                            ",
"                            m # 8 *.+.+.+.+.+.+.+.+.+.+.=.b.m.m.v.s & k.                            ",
"                            m $ / u.f.f.p.i.i.i.i.i.i.i.K.E.`.`.!.m - j.                            ",
"                            m % / i.f.f.q.3.<.<.<.<.<.<.r.M.N.N.C.l # u m h.h.S.                    ",
"                            m % / i.f.f.5.@._ _ _ _ _ _ _ ` ` ` ) 8 & & - & X n                     ",
"                            m % / i.f.f.5._ @.,.3.3.3.3.3.3.3.3.1.;.l.j.( i X n                     ",
"                            m % / i.f.f.5._ &.q.p.i.i.p.p.i.i.i.a.R.^._.(.v.; n                     ",
"                            m % / i.f.f.5._ >.u.i.w.w.i.p.q.0.u.g.L.U.~.[.n.- n                     ",
"                            m % / i.f.f.5._ >.u.q.&.>.q.u.<.$.0.p.8.-.F.`.n.- n                     ",
"                            m % / i.f.f.5._ >.u.w.$.$.w.u.>._ 5.i.3.` V.`.n.- n                     ",
"                            m % / i.f.f.5._ >.u.w.$.$.w.u.>._ 5.i.3.` V._.n.- n                     ",
"                            m % / i.f.f.5._ >.u.w.$.$.w.u.>._ 5.i.3.` V.`.n.- n                     ",
"                            m % / i.f.f.5._ >.u.w.$.$.w.u.>._ 5.i.3.` V.`.n.- n                     ",
"                            m % / i.f.f.5._ >.u.q.,.,.q.u.3.%.w.p.9.2.J.].n.- n                     ",
"                            m % / i.f.f.5._ >.u.p.q.q.p.d.t.q.i.g.P.Y.).[.n.- n                     ",
"                            m % / i.f.f.5._ %.w.u.u.u.u.u.u.u.u.s.T.!.^.!.z.* n                     ",
"                            m % / i.f.f.5._ _ &.,.,.,.,.,.,.,.,.>.;.n n v u X n                     ",
"                            m % / i.f.f.6.@._ _ _ _ _ _ _ _ ` ` ) 8 X & - - - m                     ",
"                            m % / i.f.f.u.5.3.3.3.3.3.3.3.3.8.C.B.x & i k.c.c.D.                    ",
"                            m $ j y.p.p.p.i.i.i.i.i.i.i.i.i.a.E.~.( - h.                            ",
"                            m # k <.3.3.3.3.3.3.3.3.3.3.3.3.8.L.T.b - k.                            ",
"                            m # 8 ) _ _ _ _ _ _ _ _ _ _ _ _ $.w.s.j ; k.                            ",
"                            m # e &.,.,.,.,.,.,.,.,.,.,.,.,.3.K.P.b ; k.                            ",
"                            m # j t.i.i.i.i.i.i.i.i.i.i.i.i.a.W.~./ - k.                            ",
"                            m % / i.f.f.f.f.f.f.f.f.f.f.f.f.I.'._.j.- k.                            ",
"                            m % / i.f.f.f.f.f.f.f.f.f.f.f.f.I.'._.j.- k.                            ",
"                            m # j 0.q.q.7.4.:.:.:.:.:.:.4.0.e.L.U.n - k.                            ",
"                            m # 0 @.$.$.j 8 7 7 7 7 7 7 8 ) %.-.-.y & k.                            ",
"                            m X 6 q w q g u u u u u t X @ 9 w w q g i A.                            ",
"                            m X @ 1 1 2 M Z.S.S.S.S.x.r . # 1 1 9 ' S.                              ",
"                            m X . . . X m             l . . . . & x.                                ",
"                                                                                                    ",
"                                                                                                    ",
"                                                                                                    "
};
