/* XPM */
static char *result[] = {
/* columns rows colors chars-per-pixel */
"50 50 209 2 ",
"   c black",
".  c #0A0B0B",
"X  c #040A06",
"o  c #120D0D",
"O  c #170A09",
"+  c #00120F",
"@  c #11100F",
"#  c #1A0F11",
"$  c #0E1915",
"%  c #151515",
"&  c #1A1213",
"*  c #131D1A",
"=  c #1A1B1C",
"-  c #1E1816",
";  c #211C1B",
":  c #2C1618",
">  c #14201C",
",  c #1E2221",
"<  c #232323",
"1  c #24282C",
"2  c #2B2E2D",
"3  c #282729",
"4  c #37282D",
"5  c #30302F",
"6  c #252E34",
"7  c #282F36",
"8  c #2B3637",
"9  c #333130",
"0  c #2A342F",
"q  c #5D1D30",
"w  c #4C2B36",
"e  c #412930",
"r  c #542C39",
"t  c #4D373A",
"y  c #4E383A",
"u  c #423233",
"i  c #51323A",
"p  c #642D3F",
"a  c #633338",
"s  c #283845",
"d  c #682E42",
"f  c #6D3346",
"g  c #663844",
"h  c #7A354C",
"j  c #334747",
"k  c #344B59",
"l  c #36545F",
"z  c #375766",
"x  c #395D7A",
"c  c #2D5268",
"v  c #27627E",
"b  c #377D74",
"n  c #33716E",
"m  c #4F4D4A",
"M  c #454343",
"N  c #504E4C",
"B  c #575654",
"V  c #7D4C54",
"C  c #74484E",
"Z  c #475E6B",
"A  c #426D76",
"S  c #4A7C79",
"D  c #487975",
"F  c #557E7D",
"G  c #7B7473",
"H  c #797774",
"J  c #696560",
"K  c #883753",
"L  c #8A3652",
"P  c #A03D5E",
"I  c #A12750",
"U  c #AC3962",
"Y  c #D73169",
"T  c #A4495B",
"R  c #995A63",
"E  c #B64269",
"W  c #B64569",
"Q  c #BE6D78",
"!  c #BE747A",
"~  c #C4416E",
"^  c #D64778",
"/  c #D05376",
"(  c #E5447C",
")  c #FA427D",
"_  c #CC717F",
"`  c #4D827D",
"'  c #55867E",
"]  c #3C6A85",
"[  c #366983",
"{  c #3C7089",
"}  c #406F89",
"|  c #406E87",
" . c #42738B",
".. c #49778E",
"X. c #477C91",
"o. c #4C7993",
"O. c #757B80",
"+. c #E75983",
"@. c #FA5289",
"#. c #EB4680",
"$. c #CD7584",
"%. c #FD6A95",
"&. c #F57691",
"*. c #EE718D",
"=. c #3C8999",
"-. c #4F8782",
";. c #5B8085",
":. c #4B8497",
">. c #4B8698",
",. c #438D9C",
"<. c #4D8A9B",
"1. c #598A9E",
"2. c #579993",
"3. c #51919F",
"4. c #589B97",
"5. c #55938C",
"6. c #72978F",
"7. c #5293A1",
"8. c #579CA7",
"9. c #5999B4",
"0. c #4D92A4",
"q. c #608DA3",
"w. c #4BA4AB",
"e. c #5AA2AB",
"r. c #56A5AD",
"t. c #5DACB2",
"y. c #56A8B1",
"u. c #4AB2B3",
"i. c #5AB3B7",
"p. c #61AFB4",
"a. c #63B6BB",
"s. c #64BABB",
"d. c #63B3B8",
"f. c #68C0BF",
"g. c #67BEC2",
"h. c #5EC9C5",
"j. c #57C2C0",
"k. c #5FD1C8",
"l. c #69C4C2",
"z. c #6CCAC5",
"x. c #6ECFC9",
"c. c #66CBC6",
"v. c #6ED3CB",
"b. c #60D0CA",
"n. c #72D4CC",
"m. c #74D8CF",
"M. c #7DD8CF",
"N. c #6ADBD3",
"B. c #77DED4",
"V. c #76D7D0",
"C. c #6DCED5",
"Z. c #77E0D5",
"A. c #7AE2D6",
"S. c #79E5DB",
"D. c #7AE9DD",
"F. c #69EADC",
"G. c #7EF1E5",
"H. c #7FF4E8",
"J. c #7AE6E0",
"K. c #91908F",
"L. c #A39D97",
"P. c #83A097",
"I. c #A8A29C",
"U. c #BAA59E",
"Y. c #859DAE",
"T. c #9D94A2",
"R. c #BE97B1",
"E. c #8CA3B3",
"W. c #FF869F",
"Q. c #FC8C9E",
"!. c #F58797",
"~. c #E68192",
"^. c #C49CB5",
"/. c #FB8EA1",
"(. c #FF98A9",
"). c #FFA8BC",
"_. c #CFC5BB",
"`. c #D0C6BB",
"'. c #ABBBC8",
"]. c #BABBC2",
"[. c #9CC4CB",
"{. c #90D6D5",
"}. c #A5D6CE",
"|. c #BFD0D5",
" X c #82EEDE",
".X c #9FE2DB",
"XX c #A2E2DA",
"oX c #A5D9E0",
"OX c #80F4E8",
"+X c #81F5E9",
"@X c #88FFF6",
"#X c #BAF1E5",
"$X c #CEC8C1",
"%X c #C3CFD5",
"&X c #C5E9DE",
"*X c #EBE7DB",
"=X c #C9D8E4",
"-X c #D2E2E1",
";X c #CBF8F2",
":X c #DAFEF7",
">X c #EBEBE7",
",X c #F0EBE9",
"<X c #F4F4ED",
"1X c #FAF8EE",
"2X c #FDFBF5",
"3X c #FDFEFE",
"4X c #F6F5F0",
"5X c #E8FFFC",
"6X c None",
/* pixels */
"6X6X6X6X6X6X6X6X6X6X6X6X6X6X6X6X6X6X6X6X6X6X6X6X6X6X6X6X6X6X6X6X6X6X6X6X6X6X6X6X6X6X6X6X6X6X6X6X6X6X",
"6X6X6X6X6X6X6X6X6X6X6X6X6X6X6X6X6X6X6X6X6X6X6X6X6X6X6X6X6X6X6X6X6X6X6X6X6X6X6X6X6X6X6X6X6X6X6X6X6X6X",
"6X6X6X6X6X6X6X6X6X6X6X6X6X6X6X6X6X6X6X6X6X6X6X6X6X6X6X6X6X6X6X6X6X6X6X6X6X6X6X6X6X6X6X6X6X6X6X6X6X6X",
"6X6X6X6X6X6X6X6X6X6X6X6X6X6X6X6X6X6X6X6X6X6X6X6X6X6X6X6X6X6X6X6X6X6X6X6X6X6X6X6X6X6X6X6X6X6X6X6X6X6X",
"6X6X6X6X6X6X6X6X6X6X6X6X6X6X6X6X6X6X6X6X6X6X6X6X6X6X6X6X6X6X6X6X6X6X6X6X6X6X6X6X6X6X6X6X6X6X6X6X6X6X",
"6X6X6X6X6X6X6X6X6X6X6X6X6X6X6X< < < < , < < < < < < 6X6X6X6X6X6X6X6X6X6X6X6X6X6X6X6X6X6X6X6X6X6X6X6X",
"6X6X6X6X6X6X6X6X6X6X6X6X6X6X6X4 w y y t y y t t y u 6X6X6X6X6X6X6X6X6X6X6X6X6X6X6X6X6X6X6X6X6X6X6X6X",
"6X6X6X6X6X6X6X6X6X6X6X6X6X6X; f ~ / _ ! ! Q Q Q $.R 4 + 6X6X6X6X6X6X6X6X6X6X6X6X6X6X6X6X6X6X6X6X6X6X",
"6X6X6X6X6X6X6X6X6X6X6X6X6X< w L ^ %././.W.Q./.(.(.*.V 3 6X6X6X6X6X6X6X6X6X6X6X6X6X6X6X6X6X6X6X6X6X6X",
"6X6X6X6X6X6X6X6X6X6X6X6X, h E L f W %.%.%.&./.(.(.!.$.R y > 6X6X6X6X6X6X6X6X6X6X6X6X6X6X6X6X6X6X6X6X",
"6X6X6X6X6X6X6X6X6X6X6X, w E ^ f * r ~ ( ^ ( &.!.!./.(.~.C * 6X6X6X6X6X6X6X6X6X6X6X6X6X6X6X6X6X6X6X6X",
"6X6X6X6X6X6X6X6X6X< 4 K E P f 3 6X< a W ( @.+.*.~.(.)./.K * 6X6X6X6X6X6X6X6X6X6X6X6X6X6X6X6X6X6X6X6X",
"6X6X6X6X6X6X6X6X6X< w E ^ f * 6X6X6X* p ~ ( ^ +.&.Q./._ C $ 6X6X6X6X6X6X6X6X6X6X6X6X6X6X6X6X6X6X6X6X",
"6X6X6X6X6X6X6X6X6X< 4 h K 4 6X6X6X% X : q I Y ) ) / T a < o . . . . % < 6X6X6X6X6X6X6X6X6X6X6X6X6X6X",
"6X6X6X6X6X6X6X6X6X6X6X< , 6X6X6X< < = * > a ~ @.@.W i $ > , < < < < < < < 6X6X6X6X6X6X6X6X6X6X6X6X6X",
"6X6X6X6X6X6X6X6X6X6X6X6X6X6X6X; 3 j D b b ;.T.^.^.K.` n b ` K.L.L.L.J 2 % 6X6X6X6X6X6X6X6X6X6X6X6X6X",
"6X6X6X6X6X6X6X6X6X6X6X6X6X6X6X& < S x.S.n.n.n.m.V.n.m.v.b.M.&X4X3X1XL.5 . 6X6X6X6X6X6X6X6X6X6X6X6X6X",
"6X6X6X6X6X6X6X6X6X6X6X6X6X6X6X# < -.D.@XOXN.j.u.u.y.i.s.i.g.[.|.=X%XH =   6X6X6X6X6X6X6X6X6X6X6X6X6X",
"6X6X6X6X6X6X6X6X6X6X6X6X6X6X6X& 3 S m.+XA.s.<.] {  . . . . ...o.1...l = @ % = , < 6X6X6X6X6X6X6X6X6X",
"6X6X6X6X6X6X6X6X6X6X6X6X6X6X6X& < S x.OXZ.t. .x X.3.7.3.3.:.,.,.=.:.o.H G G B 2 < 6X6X6X6X6X6X6X6X6X",
"6X6X6X6X6X6X6X6X6X6X6X6X6X6X6X& < S n.OXZ.t. .X.i.n.n.v.z.l.z.v.h.c.}.*X>X>XI.M < 6X6X6X6X6X6X6X6X6X",
"6X6X6X6X6X6X6X6X6X6X6X6X6X6X6X& 3 S x.OXB.t. .:.z.S.z.l.m.A.x.l.b.Z..X-X3X3X$XN < 6X6X6X6X6X6X6X6X6X",
"6X6X6X6X6X6X6X6X6X6X6X6X6X6X6X& < S v.OXB.t. .:.z.n.7.<.g.n.e.>.t.V.i.1.'.2X_.m < 6X6X6X6X6X6X6X6X6X",
"6X6X6X6X6X6X6X6X6X6X6X6X6X6X6X& < S n.H.Z.t. .:.z.l.X. .d.n.3.] 8.v.w.[ Y.<X`.m < 6X6X6X6X6X6X6X6X6X",
"6X6X6X6X6X6X6X6X6X6X6X6X6X6X6X& < S n.OXB.t. .>.z.z.:. .a.x.7.} e.m.w.[ E.<X_.m < 6X6X6X6X6X6X6X6X6X",
"6X6X6X6X6X6X6X6X6X6X6X6X6X6X6X& < S x.OXA.p. .>.z.l.:. .s.n.7.| e.n.r.[ E.4X_.m < 6X6X6X6X6X6X6X6X6X",
"6X6X6X6X6X6X6X6X6X6X6X6X6X6X6X& < S x.OXB.t. .>.z.l.X. .d.n.7.] e.m.w.v Y.<X`.m < 6X6X6X6X6X6X6X6X6X",
"6X6X6X6X6X6X6X6X6X6X6X6X6X6X6X& < S n.OXB.t. .:.z.n.7.<.s.m.e.>.t.m.d.1.'.2X_.N < 6X6X6X6X6X6X6X6X6X",
"6X6X6X6X6X6X6X6X6X6X6X6X6X6X6X& 3 S v.OXB.t. .:.z.S.x.l.V.A.x.l.b.Z.XX-X3X3X$XN < 6X6X6X6X6X6X6X6X6X",
"6X6X6X6X6X6X6X6X6X6X6X6X6X6X6X& < ` x.OXB.t. .X.p.n.n.x.z.z.z.x.h.f.}.*X>X>XI.M < 6X6X6X6X6X6X6X6X6X",
"6X6X6X6X6X6X6X6X6X6X6X6X6X6X6X& < S n.OXB.t. .x X.3.3.3.<.<.3.3.3.,.o.H G G B 5 < 6X6X6X6X6X6X6X6X6X",
"6X6X6X6X6X6X6X6X6X6X6X6X6X6X6X& < S n.OXA.s.>.]  . . . . . . . .o...k = o % = , < 6X6X6X6X6X6X6X6X6X",
"6X6X6X6X6X6X6X6X6X6X6X6X6X6X6X# < ` B.@XA.n.s.p.p.t.t.p.p.t.y.p.[.].G =   6X6X6X6X6X6X6X6X6X6X6X6X6X",
"6X6X6X6X6X6X6X6X6X6X6X6X6X6X6X& < S x.S.n.n.n.m.m.n.n.n.n.v.k.B.;X2XI.5 . 6X6X6X6X6X6X6X6X6X6X6X6X6X",
"6X6X6X6X6X6X6X6X6X6X6X6X6X6X6X- < z 7.r.8.8.8.e.e.e.e.e.e.8.7.e..X#XP.5 o 6X6X6X6X6X6X6X6X6X6X6X6X6X",
"6X6X6X6X6X6X6X6X6X6X6X6X6X6X6X; , k | X.} } } } } } {  . .| ]  .a.m.5.2 & 6X6X6X6X6X6X6X6X6X6X6X6X6X",
"6X6X6X6X6X6X6X6X6X6X6X6X6X6X6X- < z 3.r.7.7.3.7.7.7.7.3.7.3.,.3.{..X6.2 # 6X6X6X6X6X6X6X6X6X6X6X6X6X",
"6X6X6X6X6X6X6X6X6X6X6X6X6X6X6X& < S z.D.n.x.x.x.x.x.x.x.x.x.c.m.;X>XI.5 . 6X6X6X6X6X6X6X6X6X6X6X6X6X",
"6X6X6X6X6X6X6X6X6X6X6X6X6X6X6X& < -.A.@XD.D.G.G.OXD.OXG.OXG.F.D.5X3XU.5 . 6X6X6X6X6X6X6X6X6X6X6X6X6X",
"6X6X6X6X6X6X6X6X6X6X6X6X6X6X6X# < ` m.H.A.S.S.J.S.S.S.S.S.Z.N.Z.:X2XU.5 . 6X6X6X6X6X6X6X6X6X6X6X6X6X",
"6X6X6X6X6X6X6X6X6X6X6X6X6X6X6X& < A d.C.g.p.4.2.2.2.4.2.2.2.e.g.oX%XK.5 @ 6X6X6X6X6X6X6X6X6X6X6X6X6X",
"6X6X6X6X6X6X6X6X6X6X6X6X6X6X6X- < l :.9.0.A j 5 8 j 8 8 0 j x <.9.1.Z 1 - 6X6X6X6X6X6X6X6X6X6X6X6X6X",
"6X6X6X6X6X6X6X6X6X6X6X6X6X6X6X; , s l x c s ; O O & & # O & s c x c s , ; 6X6X6X6X6X6X6X6X6X6X6X6X6X",
"6X6X6X6X6X6X6X6X6X6X6X6X6X6X6X< , 1 6 7 7 1 6X6X6X6X6X6X6X6X1 6 6 1 1 < < 6X6X6X6X6X6X6X6X6X6X6X6X6X",
"6X6X6X6X6X6X6X6X6X6X6X6X6X6X6X< < < < < < < 6X6X6X6X6X6X6X6X< < , < < < < 6X6X6X6X6X6X6X6X6X6X6X6X6X",
"6X6X6X6X6X6X6X6X6X6X6X6X6X6X6X6X6X6X6X6X6X6X6X6X6X6X6X6X6X6X6X6X6X6X6X6X6X6X6X6X6X6X6X6X6X6X6X6X6X6X",
"6X6X6X6X6X6X6X6X6X6X6X6X6X6X6X6X6X6X6X6X6X6X6X6X6X6X6X6X6X6X6X6X6X6X6X6X6X6X6X6X6X6X6X6X6X6X6X6X6X6X",
"6X6X6X6X6X6X6X6X6X6X6X6X6X6X6X6X6X6X6X6X6X6X6X6X6X6X6X6X6X6X6X6X6X6X6X6X6X6X6X6X6X6X6X6X6X6X6X6X6X6X",
"6X6X6X6X6X6X6X6X6X6X6X6X6X6X6X6X6X6X6X6X6X6X6X6X6X6X6X6X6X6X6X6X6X6X6X6X6X6X6X6X6X6X6X6X6X6X6X6X6X6X",
"6X6X6X6X6X6X6X6X6X6X6X6X6X6X6X6X6X6X6X6X6X6X6X6X6X6X6X6X6X6X6X6X6X6X6X6X6X6X6X6X6X6X6X6X6X6X6X6X6X6X"
};
