/* XPM */
static char *result[] = {
/* columns rows colors chars-per-pixel */
"50 50 190 2 ",
"   c #222323",
".  c #2B2C2C",
"X  c #282828",
"o  c #39272D",
"O  c #322C2D",
"+  c #292F31",
"@  c #273034",
"#  c #2D3435",
"$  c #2F3838",
"%  c #333434",
"&  c #3B3334",
"*  c #363939",
"=  c #3B3B3A",
"-  c #393837",
";  c #4D3639",
":  c #4D2B36",
">  c #303F47",
",  c #573A44",
"<  c #612F40",
"1  c #603F44",
"2  c #6A3144",
"3  c #7A364C",
"4  c #743349",
"5  c #2F424D",
"6  c #314443",
"7  c #324846",
"8  c #364749",
"9  c #324C5A",
"0  c #384D55",
"q  c #36545E",
"w  c #365465",
"e  c #3B5C6D",
"r  c #3E6466",
"t  c #3C667B",
"y  c #434343",
"u  c #4A4A49",
"i  c #454C4A",
"p  c #504F4C",
"a  c #5A4C53",
"s  c #44545D",
"d  c #515151",
"f  c #5D5D5D",
"g  c #535758",
"h  c #78424F",
"j  c #6C4F53",
"k  c #63484C",
"l  c #465A63",
"z  c #565F62",
"x  c #6F5863",
"c  c #7E5865",
"v  c #5F6061",
"b  c #416C74",
"n  c #4C7B78",
"m  c #5D7A7F",
"M  c #636362",
"N  c #686664",
"B  c #6E6E6E",
"V  c #666A6A",
"C  c #74686B",
"Z  c #726F70",
"A  c #697777",
"S  c #707070",
"D  c #7D7D7D",
"F  c #7A7476",
"G  c #8D3955",
"H  c #843750",
"J  c #983D5B",
"K  c #AC3F64",
"L  c #844A56",
"P  c #97425E",
"I  c #875159",
"U  c #8E4A61",
"Y  c #9D4261",
"T  c #855565",
"R  c #975962",
"E  c #9A5E77",
"W  c #BC436C",
"Q  c #BA506E",
"!  c #876368",
"~  c #887A7E",
"^  c #B46A75",
"/  c #CA4773",
"(  c #D64B78",
")  c #DE4F7D",
"_  c #C05572",
"`  c #DF517E",
"'  c #E0527F",
"]  c #C56D7B",
"[  c #D6627F",
"{  c #4C827D",
"}  c #81847F",
"|  c #3E6A81",
" . c #406D85",
".. c #46788C",
"X. c #467C91",
"o. c #4A7E93",
"O. c #567A8D",
"+. c #B46384",
"@. c #E25781",
"#. c #C5678C",
"$. c #D17482",
"%. c #E96788",
"&. c #EC6D8B",
"*. c #E66A88",
"=. c #E37C8C",
"-. c #E07288",
";. c #F37C92",
":. c #F07790",
">. c #4A8395",
",. c #4D8A9A",
"<. c #4D8799",
"1. c #588697",
"2. c #569893",
"3. c #589C96",
"4. c #51919F",
"5. c #589C99",
"6. c #55948F",
"7. c #7E8386",
"8. c #689F9C",
"9. c #7C9E9E",
"0. c #5294A1",
"q. c #5499A4",
"w. c #579EA8",
"e. c #5E9AA6",
"r. c #7D9FAB",
"t. c #59A3AB",
"y. c #5DA9AA",
"u. c #5EADB2",
"i. c #61A6AD",
"p. c #74A1A7",
"a. c #60B2B5",
"s. c #64BABB",
"d. c #67B4B7",
"f. c #6BAEB4",
"g. c #67C0BF",
"h. c #69C3BE",
"j. c #70C1BF",
"k. c #6AC5C2",
"l. c #6DCBC5",
"z. c #6DCDC8",
"x. c #77CBC6",
"c. c #6FD0C9",
"v. c #72D5CD",
"b. c #7BD3CD",
"n. c #878786",
"m. c #888681",
"M. c gray54",
"N. c #94878B",
"B. c #9D9D9D",
"V. c #989791",
"C. c #95928D",
"Z. c #A29E99",
"A. c #A9A59F",
"S. c #8198A3",
"D. c #88A6AD",
"F. c #8AA4B0",
"G. c #94A8B3",
"H. c #9AB0B8",
"J. c #91BABE",
"K. c #95AAA4",
"L. c #AAABAB",
"P. c #A4A4A4",
"I. c #B3ACAE",
"U. c #B6B2AB",
"Y. c #A6B6BA",
"T. c #B3B3B3",
"R. c #BABBBB",
"E. c #EF8292",
"W. c #F78597",
"Q. c #C9C5BD",
"!. c #A5BCC1",
"~. c #8AC9C7",
"^. c #9BC3C2",
"/. c #82DAD1",
"(. c #A3D2CA",
"). c #A8D8D2",
"_. c #B7CECE",
"`. c #B9E3DB",
"'. c #C2C2C2",
"]. c #CBC8C3",
"[. c #D1D2CD",
"{. c #CCD6D4",
"}. c #D6DDD5",
"|. c #DDE1D9",
" X c #E5E4DD",
".X c #EBE6DD",
"XX c #C4E9E0",
"oX c #ECEAE2",
"OX c #F2EDE4",
"+X c None",
/* pixels */
"+X+X+X+X+X+X+X+X+X+X+X+X+X+X+X+X+X+X+X+X+X+X+X+X+X+X+X+X+X+X+X+X+X+X+X+X+X+X+X+X+X+X+X+X+X+X+X+X+X+X",
"+X+X+X+X+X+X+X+X+X+X+X+X+X+X+X+X+X+X+X+X+X+X+X+X+X+X+X+X+X+X+X+X+X+X+X+X+X+X+X+X+X+X+X+X+X+X+X+X+X+X",
"+X+X+X+X+X+X+X+X+X+X+X+X+X+X+X+X+X+X+X+X+X+X+X+X+X+X+X+X+X+X+X+X+X+X+X+X+X+X+X+X+X+X+X+X+X+X+X+X+X+X",
"+X+X+X+X+X+X+X+X+X+X+X+X+X+X+X+X+X+X+X+X+X+X+X+X+X+X+X+X+X+X+X+X+X+X+X+X+X+X+X+X+X+X+X+X+X+X+X+X+X+X",
"+X+X+X+X+X+X+X+X+X+X+X+X+X+X+X+X+X+X+X+X+X+X+X+X+XL.n.n.n.n.n.n.n.n.n.n.n.T.+X+X+X+X+X+X+X+X+X+X+X+X",
"+X+X+X+X+X+X+X+X+X+X+X+X+X+X+X+X+X+X+X+X+X+X+X+X+XB & - - & & & & & & & & F +X+X+X+X+X+X+X+X+X+X+X+X",
"+X+X+X+X+X+X+X+X+X+X+X+X+X+X+X+X+X+X+X+X+X+X+XI.N.! I I I I I I L L 3 4 3 T n.T.+X+X+X+X+X+X+X+X+X+X",
"+X+X+X+X+X+X+X+X+X+X+X+X+X+X+X+X+X+X+X+X+X+X'.N k ^ E.=.=.=.=.=.-.$./ / / J , Z +X+X+X+X+X+X+X+X+X+X",
"+X+X+X+X+X+X+X+X+X+X+X+X+X+X+X+X+X+X+X+X+XT.N.T R $.W.W.W.:.&.&.*.Q P G G H 4 c C.L.+X+X+X+X+X+X+X+X",
"+X+X+X+X+X+X+X+X+X+X+X+X+X+X+X+X+X+X+X+XR.M j ^ =.E.W.W.;.%.' @.( J : o o 2 K Y 1 ; +X+X+X+X+X+X+X+X",
"+X+X+X+X+X+X+X+X+X+X+X+X+X+X+X+X+X+X+X+XT.u 1 ] W.W.W.:.&.@.( W J T C B B T U U C C +X+X+X+X+X+X+X+X",
"+X+X+X+X+X+X+X+X+X+X+X+X+X+X+X+X+X+X+X+XT.u k ] W.W.;.%.@.) / G , ~ ].+X+XZ.k x I.+X+X+X+X+X+X+X+X+X",
"+X+X+X+X+X+X+X+X+X+X+X+X+X+X+X+X'.'.'.'.M.= ; R ] -.&.@.( K K < O B T.+X+X+XD C.+X+X+X+X+X+X+X+X+X+X",
"+X+X+X+X+X+X+X+X+X+X+X+X+X+XP.M f f f f y . O ; 3 Q @.) / G : o X = f B.+X+X+X+X+X+X+X+X+X+X+X+X+X+X",
"+X+X+X+X+X+X+X+X+X+X+X+X+X+XM.% - u u p i 8 7 7 g E #.#.^ x 8 8 6 # . D +X+X+X+X+X+X+X+X+X+X+X+X+X+X",
"+X+X+X+X+X+X+X+X+X+X+X+X+X+XM.- N A.U.U.K.8.3.5.8.D.G.G.F.r.3.3.6.r # D +X+X+X+X+X+X+X+X+X+X+X+X+X+X",
"+X+X+X+X+X+X+X+X+X+X+X+X+X+XD - D [.|. X`.x.k.k.k.l.k.k.l.c.v.v.l.{ $ ~ +X+X+X+X+X+X+X+X+X+X+X+X+X+X",
"+X+X+X+X+X+X+X+X+X+XL.F F Z u + z r.F.F.r.e.0.q.q.q.q.q.w.s.v.v.c.{ $ { +X+X+X+X+X+X+X+X+X+X+X+X+X+X",
"+X+X+X+X+X+X+X+X+X+XS . % = - = s ......X.X.X.X.X.X.X...X.u.v.v.h.{ * D +X+X+X+X+X+X+X+X+X+X+X+X+X+X",
"+X+X+X+X+X+X+X+X+X+XS . N C.V.C.9.i.y.u.t.t.u.u.t.u.w.o.X.u.v.v.l.{ $ D +X+X+X+X+X+X+X+X+X+X+X+X+X+X",
"+X+X+X+X+X+X+X+X+X+XS = V..X.X X).b.z.z.z.z.z.z.z.z.g.4.X.u.v.v.l.{ * D +X+X+X+X+X+X+X+X+X+X+X+X+X+X",
"+X+X+X+X+X+X+X+X+X+XS = Z.oX{.!.~.b.g.u.d.z.k.a.u.k.k.0.X.u.v.v.l.{ $ D +X+X+X+X+X+X+X+X+X+X+X+X+X+X",
"+X+X+X+X+X+X+X+X+X+XS = Z.oX!.1.i.l.u.>.q.k.s.,.4.s.k.0.X.u.v.v.l.{ - ~ +X+X+X+X+X+X+X+X+X+X+X+X+X+X",
"+X+X+X+X+X+X+X+X+X+XS = Z. XH.o.w.l.u.o.0.k.s.<.<.s.g.4.X.u.v.v.z.{ - ~ +X+X+X+X+X+X+X+X+X+X+X+X+X+X",
"+X+X+X+X+X+X+X+X+X+XS = Z. XH.O.w.z.a.X.0.g.s.<.<.s.g.0.X.u.c.v.l.{ * { +X+X+X+X+X+X+X+X+X+X+X+X+X+X",
"+X+X+X+X+X+X+X+X+X+XS = Z. XH.o.w.k.a.<.0.g.s.,.>.s.k.0.X.u.c.v.l.{ $ D +X+X+X+X+X+X+X+X+X+X+X+X+X+X",
"+X+X+X+X+X+X+X+X+X+XZ = Z..XH.o.t.z.u.| 0.k.s.,.<.s.k.0.X.u.v.v.l.{ - } +X+X+X+X+X+X+X+X+X+X+X+X+X+X",
"+X+X+X+X+X+X+X+X+X+XZ = Z..X_.r.d.z.s.0.t.z.g.w.w.g.k.0.| u.v.v.l.{ % ~ +X+X+X+X+X+X+X+X+X+X+X+X+X+X",
"+X+X+X+X+X+X+X+X+X+XS - Z.OX X{.).b.z.s.k.v.z.g.g.z.k.q.<.u.v.v.l.{ $ ~ +X+X+X+X+X+X+X+X+X+X+X+X+X+X",
"+X+X+X+X+X+X+X+X+X+XS - m.Q.].].^.k.g.g.g.g.g.g.g.g.a.q.X.u.v.v.l.{ $ { +X+X+X+X+X+X+X+X+X+X+X+X+X+X",
"+X+X+X+X+X+X+X+X+X+XZ X u x N V O.4.4.4.0.0.4.0.0.0.,.| | u.v.v.l.{ $ D +X+X+X+X+X+X+X+X+X+X+X+X+X+X",
"+X+X+X+X+X+X+X+X+X+Xm.8 y = O X s O.o.o.X.X.X.<.,.| >.>.0.a.v.v.l.{ $ ~ +X+X+X+X+X+X+X+X+X+X+X+X+X+X",
"+X+X+X+X+X+X+X+X+X+X+XL.L.B.M % B Y.J.f.u.u.u.u.u.u.u.a.a.k.v.v.z.{ $ D +X+X+X+X+X+X+X+X+X+X+X+X+X+X",
"+X+X+X+X+X+X+X+X+X+X+X+X+X+Xn.= } }.`.x.l.l.l.l.l.l.l.l.l.l.l.z.g.n $ D +X+X+X+X+X+X+X+X+X+X+X+X+X+X",
"+X+X+X+X+X+X+X+X+X+X+X+X+X+XM.* A (.~.i.t.w.w.w.w.w.w.w.w.w.w.w.q.r # D +X+X+X+X+X+X+X+X+X+X+X+X+X+X",
"+X+X+X+X+X+X+X+X+X+X+X+X+X+Xn.* n x.d.,.X.X.X.X.X.X.X.X.X.X.X.X...q + D +X+X+X+X+X+X+X+X+X+X+X+X+X+X",
"+X+X+X+X+X+X+X+X+X+X+X+X+X+XM.* A (.~.i.t.w.t.t.t.w.t.t.t.t.t.t.q.r # D +X+X+X+X+X+X+X+X+X+X+X+X+X+X",
"+X+X+X+X+X+X+X+X+X+X+X+X+X+XM.= } |.`.b.z.z.z.z.z.z.z.c.l.z.z.c.k.n $ D +X+X+X+X+X+X+X+X+X+X+X+X+X+X",
"+X+X+X+X+X+X+X+X+X+X+X+X+X+XM.= m. XXX/.v.v.v.v.v.v.v.v.v.v.v.v.l.{ $ D +X+X+X+X+X+X+X+X+X+X+X+X+X+X",
"+X+X+X+X+X+X+X+X+X+X+X+X+X+XM.= m. XXX/.v.v.v.v.v.v.v.v.v.v.v.v.l.{ $ D +X+X+X+X+X+X+X+X+X+X+X+X+X+X",
"+X+X+X+X+X+X+X+X+X+X+X+X+X+XM.* B Y.^.f.i.5.3.2.2.2.2.2.3.y.a.a.i.b ; { +X+X+X+X+X+X+X+X+X+X+X+X+X+X",
"+X+X+X+X+X+X+X+X+X+X+X+X+X+XM.% s 1.1.<.b 0 6 6 6 6 6 6 8 t >.>.o.q % D +X+X+X+X+X+X+X+X+X+X+X+X+X+X",
"+X+X+X+X+X+X+X+X+X+X+X+X+X+XL.V l e | | w @ % d f M v v f l e t t 0 + ~ +X+X+X+X+X+X+X+X+X+X+X+X+X+X",
"+X+X+X+X+X+X+X+X+X+X+X+X+X+X+X'.7.8 9 | w @ g B.+X+X+X+XT.A > w t 9 + D +X+X+X+X+X+X+X+X+X+X+X+X+X+X",
"+X+X+X+X+X+X+X+X+X+X+X+X+X+X+X+XL.M s l 9 + M +X+X+X+X+X+XB.g l e 5 . D +X+X+X+X+X+X+X+X+X+X+X+X+X+X",
"+X+X+X+X+X+X+X+X+X+X+X+X+X+X+X+X+XR.7.0 @ X M +X+X+X+X+X+X+XL.A 7 @ . D +X+X+X+X+X+X+X+X+X+X+X+X+X+X",
"+X+X+X+X+X+X+X+X+X+X+X+X+X+X+X+X+X+XP.=     M +X+X+X+X+X+X+X+XM.+   X D +X+X+X+X+X+X+X+X+X+X+X+X+X+X",
"+X+X+X+X+X+X+X+X+X+X+X+X+X+X+X+X+X+X+X+X+X+X+X+X+X+X+X+X+X+X+X+X+X+X+X+X+X+X+X+X+X+X+X+X+X+X+X+X+X+X",
"+X+X+X+X+X+X+X+X+X+X+X+X+X+X+X+X+X+X+X+X+X+X+X+X+X+X+X+X+X+X+X+X+X+X+X+X+X+X+X+X+X+X+X+X+X+X+X+X+X+X",
"+X+X+X+X+X+X+X+X+X+X+X+X+X+X+X+X+X+X+X+X+X+X+X+X+X+X+X+X+X+X+X+X+X+X+X+X+X+X+X+X+X+X+X+X+X+X+X+X+X+X"
};
