/* XPM */
static char *_bb78985f1d24b69c509e417fdbaf241rCJZ3Vedb1hEtOKK[] = {
/* columns rows colors chars-per-pixel */
"50 50 190 2 ",
"   c None",
".  c #222323",
"X  c #2B2C2C",
"o  c #282828",
"O  c #39272D",
"+  c #322C2D",
"@  c #292F31",
"#  c #273034",
"$  c #2D3435",
"%  c #2F3838",
"&  c #333434",
"*  c #3B3334",
"=  c #363939",
"-  c #3B3B3A",
";  c #393837",
":  c #4D3639",
">  c #4D2B36",
",  c #303F47",
"<  c #573A44",
"1  c #612F40",
"2  c #603F44",
"3  c #6A3144",
"4  c #7A364C",
"5  c #743349",
"6  c #2F424D",
"7  c #314443",
"8  c #324846",
"9  c #364749",
"0  c #324C5A",
"q  c #384D55",
"w  c #36545E",
"e  c #365465",
"r  c #3B5C6D",
"t  c #3E6466",
"y  c #3C667B",
"u  c #434343",
"i  c #4A4A49",
"p  c #454C4A",
"a  c #504F4C",
"s  c #5A4C53",
"d  c #44545D",
"f  c #515151",
"g  c #5D5D5D",
"h  c #535758",
"j  c #78424F",
"k  c #6C4F53",
"l  c #63484C",
"z  c #465A63",
"x  c #565F62",
"c  c #6F5863",
"v  c #7E5865",
"b  c #5F6061",
"n  c #416C74",
"m  c #4C7B78",
"M  c #5D7A7F",
"N  c #636362",
"B  c #686664",
"V  c #6E6E6E",
"C  c #666A6A",
"Z  c #74686B",
"A  c #726F70",
"S  c #697777",
"D  c #707070",
"F  c #7D7D7D",
"G  c #7A7476",
"H  c #8D3955",
"J  c #843750",
"K  c #983D5B",
"L  c #AC3F64",
"P  c #844A56",
"I  c #97425E",
"U  c #875159",
"Y  c #8E4A61",
"T  c #9D4261",
"R  c #855565",
"E  c #975962",
"W  c #9A5E77",
"Q  c #BC436C",
"!  c #BA506E",
"~  c #876368",
"^  c #887A7E",
"/  c #B46A75",
"(  c #CA4773",
")  c #D64B78",
"_  c #DE4F7D",
"`  c #C05572",
"'  c #DF517E",
"]  c #E0527F",
"[  c #C56D7B",
"{  c #D6627F",
"}  c #4C827D",
"|  c #81847F",
" . c #3E6A81",
".. c #406D85",
"X. c #46788C",
"o. c #467C91",
"O. c #4A7E93",
"+. c #567A8D",
"@. c #B46384",
"#. c #E25781",
"$. c #C5678C",
"%. c #D17482",
"&. c #E96788",
"*. c #EC6D8B",
"=. c #E66A88",
"-. c #E37C8C",
";. c #E07288",
":. c #F37C92",
">. c #F07790",
",. c #4A8395",
"<. c #4D8A9A",
"1. c #4D8799",
"2. c #588697",
"3. c #569893",
"4. c #589C96",
"5. c #51919F",
"6. c #589C99",
"7. c #55948F",
"8. c #7E8386",
"9. c #689F9C",
"0. c #7C9E9E",
"q. c #5294A1",
"w. c #5499A4",
"e. c #579EA8",
"r. c #5E9AA6",
"t. c #7D9FAB",
"y. c #59A3AB",
"u. c #5DA9AA",
"i. c #5EADB2",
"p. c #61A6AD",
"a. c #74A1A7",
"s. c #60B2B5",
"d. c #64BABB",
"f. c #67B4B7",
"g. c #6BAEB4",
"h. c #67C0BF",
"j. c #69C3BE",
"k. c #70C1BF",
"l. c #6AC5C2",
"z. c #6DCBC5",
"x. c #6DCDC8",
"c. c #77CBC6",
"v. c #6FD0C9",
"b. c #72D5CD",
"n. c #7BD3CD",
"m. c #878786",
"M. c #888681",
"N. c gray54",
"B. c #94878B",
"V. c #9D9D9D",
"C. c #989791",
"Z. c #95928D",
"A. c #A29E99",
"S. c #A9A59F",
"D. c #8198A3",
"F. c #88A6AD",
"G. c #8AA4B0",
"H. c #94A8B3",
"J. c #9AB0B8",
"K. c #91BABE",
"L. c #95AAA4",
"P. c #AAABAB",
"I. c #A4A4A4",
"U. c #B3ACAE",
"Y. c #B6B2AB",
"T. c #A6B6BA",
"R. c #B3B3B3",
"E. c #BABBBB",
"W. c #EF8292",
"Q. c #F78597",
"!. c #C9C5BD",
"~. c #A5BCC1",
"^. c #8AC9C7",
"/. c #9BC3C2",
"(. c #82DAD1",
"). c #A3D2CA",
"_. c #A8D8D2",
"`. c #B7CECE",
"'. c #B9E3DB",
"]. c #C2C2C2",
"[. c #CBC8C3",
"{. c #D1D2CD",
"}. c #CCD6D4",
"|. c #D6DDD5",
" X c #DDE1D9",
".X c #E5E4DD",
"XX c #EBE6DD",
"oX c #C4E9E0",
"OX c #ECEAE2",
"+X c #F2EDE4",
/* pixels */
"                                                                                                    ",
"                                                                                                    ",
"                                                                                                    ",
"                                                                                                    ",
"                        R.m.m.m.m.m.m.m.m.m.m.m.P.                                                  ",
"                        G * * * * * * * * * * * V                                                   ",
"                    R.B.R 4 4 4 P U U U U U U U ~ B.P.                                              ",
"                    A < I ( ( ( { -.-.-.-.-.-.-./ l B ].                                            ",
"                I.B.v 5 J H H K ` =.*.*.>.Q.Q.Q.%.E ~ B.R.                                          ",
"                - < T L 3 O O > H ) ' ] &.:.Q.Q.W.-./ k N E.                                        ",
"                V Z Y I v V V Z R I Q ) #.*.>.Q.Q.Q.[ 2 i R.                                        ",
"                  U.c s A.    [.^ < H ( _ #.&.:.Q.Q.[ 2 i R.                                        ",
"                    N.F       R.V + 1 K Q ) #.*.;.[ E : - N.].].].].                                ",
"                            V.g - o O > H ( _ #.! j : + X u g g g g N P.                            ",
"                            F X $ 7 8 9 c @.$.$.W s 8 8 9 p a a i & & N.                            ",
"                            F $ t 7.4.4.a.G.H.H.F.9.4.4.9.L.Y.Y.S.N & N.                            ",
"                            F % } z.b.b.v.z.l.l.l.l.l.l.^.'..X.X{.F - F                             ",
"                            F % } z.b.b.d.e.w.w.w.w.w.w.r.a.G.G.D.x X i D F F P.                    ",
"                            F % } z.b.b.i.o.X.o.o.o.o.o.o.o.o.o.X.z - ; - & X D                     ",
"                            F % } z.b.b.i.o.,.e.u.u.u.u.u.u.u.u.p.0.C.C.Z.B + D                     ",
"                            F % } z.b.b.i.o.q.d.x.z.z.x.x.z.z.x.n._. XXXXXC.- D                     ",
"                            F % } z.b.b.i.o.q.l.l.s.s.l.x.f.i.l.b.^.~.}.OXA.- D                     ",
"                            F % } z.b.b.i.o.q.l.d.<.<.d.l.w.,.i.z.p.2.T..XA.- D                     ",
"                            F % } z.b.b.i.o.q.l.d.1.1.d.l.q.o.i.z.y.O.J..XA.- D                     ",
"                            F % } z.b.b.i.o.q.l.d.1.1.d.l.q.o.i.z.y.O.J..XA.- D                     ",
"                            F % } z.b.b.i.o.q.l.d.1.1.d.l.q.o.i.z.y.O.J..XA.- D                     ",
"                            F % } z.b.b.i.o.q.l.d.1.1.d.l.q.o.i.z.y.O.J..XA.- D                     ",
"                            F % } z.b.b.i.o.q.l.h.e.e.h.z.u.q.f.v.g.t.`.OXA.- D                     ",
"                            F % } z.b.b.i.o.q.l.x.l.l.x.b.l.d.z.n._.}..X+XA.- D                     ",
"                            F % } z.b.b.i.o.<.s.h.h.h.h.h.h.h.h.k./.[.[.!.M.& D                     ",
"                            F % } z.b.b.i.o.o.1.5.5.5.5.5.5.5.5.5.M C B N i X D                     ",
"                            F % } z.b.b.s.1.o.o.o.o.o.o.o.o.o.2.+.q o & - u u m.                    ",
"                            F % } z.b.b.l.s.i.i.i.i.i.i.i.i.f.K.T.C & N V.P.P.                      ",
"                            F % m j.x.x.z.z.z.z.z.z.z.z.z.z.n.'.|.| - N.                            ",
"                            F $ t q.e.e.e.e.e.e.e.e.e.e.e.e.p.^.).S = N.                            ",
"                            F # w X.o.o.o.o.o.o.o.o.o.o.o.o.1.f.c.m = N.                            ",
"                            F $ t w.y.y.y.y.y.y.y.y.y.y.y.y.p.^.).S = N.                            ",
"                            F % m j.x.x.x.x.x.x.x.x.x.x.x.x.n.'. X| - N.                            ",
"                            F % } z.b.b.b.b.b.b.b.b.b.b.b.b.(.oX.XM.- N.                            ",
"                            F % } z.b.b.b.b.b.b.b.b.b.b.b.b.(.oX.XM.- N.                            ",
"                            F % n u.s.s.u.4.3.3.3.3.3.3.6.u.f./.T.V = N.                            ",
"                            F $ w o.,.,.n 9 7 7 7 7 7 7 q n ,.2.2.d & N.                            ",
"                            F @ 0  .y r z x g g g g f & # e ..y r z C P.                            ",
"                            F @ 0 y e , S R.        V.f # e  .0 9 8.].                              ",
"                            F X 6 r z h C.            N @ 0 r d b P.                                ",
"                            F X @ 9 S P.              N o # q 8.E.                                  ",
"                            F X . X N.                N . . - I.                                    ",
"                                                                                                    ",
"                                                                                                    ",
"                                                                                                    "
};
