/* XPM */
static char *result[] = {
/* columns rows colors chars-per-pixel */
"50 50 186 2 ",
"   c #222222",
".  c #2B2C2C",
"X  c #292627",
"o  c #3A2A2E",
"O  c #30302F",
"+  c #272E32",
"@  c #342D30",
"#  c #2D3333",
"$  c #2F3837",
"%  c #2F3938",
"&  c #333333",
"*  c #333B3B",
"=  c #3A3A39",
"-  c #393737",
";  c #592E3D",
":  c #403C3D",
">  c #553A3D",
",  c #41403F",
"<  c #2C3A42",
"1  c #2D3E48",
"2  c #303F46",
"3  c #5F3E49",
"4  c #4D3E43",
"5  c #643343",
"6  c #603F44",
"7  c #683144",
"8  c #72374A",
"9  c #2F424D",
"0  c #36504E",
"q  c #3A565A",
"w  c #395A69",
"e  c #3B5F72",
"r  c #3A6073",
"t  c #3D6267",
"y  c #464646",
"u  c #5F4A51",
"i  c #4B5458",
"p  c #515050",
"a  c #5D5C5C",
"s  c #52434C",
"d  c #624B4F",
"f  c #6C4A57",
"g  c #794B52",
"h  c #734B58",
"j  c #645D5E",
"k  c #6E545C",
"l  c #72575B",
"z  c #435A66",
"x  c #7A5963",
"c  c #5B656A",
"v  c #497777",
"b  c #40676C",
"n  c #6A6A6A",
"m  c #636666",
"M  c #74726F",
"N  c #667D79",
"B  c #717171",
"V  c #7D7D7D",
"C  c #656E73",
"Z  c #883853",
"A  c #963B59",
"S  c #AA3F63",
"D  c #894558",
"F  c #95435E",
"G  c #8B535C",
"H  c #964761",
"J  c #9D5470",
"K  c #864E61",
"L  c #A34262",
"P  c #BD5878",
"I  c #A25E68",
"U  c #85636C",
"Y  c #88747B",
"T  c #AE6873",
"R  c #C1446E",
"E  c #C74771",
"W  c #D54977",
"Q  c #DC517D",
"!  c #C75876",
"~  c #C46E7B",
"^  c #D1607C",
"/  c #4C827D",
"(  c #82837E",
")  c #487689",
"_  c #467C91",
"`  c #4D7D93",
"'  c #CC5E87",
"]  c #E15681",
"[  c #E35B82",
"{  c #CD7280",
"}  c #DD7988",
"|  c #D77585",
" . c #EA6B89",
".. c #EE718D",
"X. c #E5778B",
"o. c #F27C92",
"O. c #53908B",
"+. c #4A8295",
"@. c #4D8799",
"#. c #4C8899",
"$. c #508E9D",
"%. c #52929F",
"&. c #4F8985",
"*. c #62938E",
"=. c #658C9C",
"-. c #719597",
";. c #658C8E",
":. c #5CA49E",
">. c #5294A1",
",. c #5599A5",
"<. c #579EA8",
"1. c #5D9EA6",
"2. c #7297A5",
"3. c #5AA4AC",
"4. c #5DA7A2",
"5. c #5DACB1",
"6. c #5FB0B4",
"7. c #61B1AF",
"8. c #65AAB1",
"9. c #6DAEB4",
"0. c #61B2B4",
"q. c #64BABB",
"w. c #64B5B8",
"e. c #70BCBD",
"r. c #63A1AB",
"t. c #67C0BE",
"y. c #6AC5BF",
"u. c #6AC5C3",
"i. c #6DCAC5",
"p. c #6ECEC9",
"a. c #7ACEC9",
"s. c #74C9C4",
"d. c #6FD0CA",
"f. c #72D5CD",
"g. c #78D4CD",
"h. c #838383",
"j. c #898683",
"k. c #8A8A8A",
"l. c #878984",
"z. c #95898B",
"x. c #9A8F91",
"c. c #959595",
"v. c #9A9A9A",
"b. c #9D9595",
"n. c #919893",
"m. c #A29F9A",
"M. c #A2979B",
"N. c #A7A49D",
"B. c #989EAC",
"V. c #869AA3",
"C. c #A89EA1",
"Z. c #9EA1A2",
"A. c #80A8B1",
"S. c #98ACB4",
"D. c #9AB0B8",
"F. c #8AAAB1",
"G. c #ABACAC",
"H. c #B5B5B5",
"J. c #BBBBBB",
"K. c #B8B4B5",
"L. c #A6B8BE",
"P. c #EB8090",
"I. c #F68596",
"U. c #AEBEC3",
"Y. c #84C9C6",
"T. c #97CAC9",
"R. c #9CD0CB",
"E. c #82DAD1",
"W. c #B4C3C4",
"Q. c #BFCECE",
"!. c #A9D2CB",
"~. c #B9DDD7",
"^. c #ADD7D0",
"/. c #B7E2DA",
"(. c #C1C1C1",
"). c #D6D5CD",
"_. c #D5DBD5",
"`. c #DDDCD4",
"'. c #E3DED5",
"]. c #DDE0DC",
"[. c #E6E4DD",
"{. c #E8E6DF",
"}. c #C4E9E0",
"|. c #ECE9E2",
" X c #F1ECE4",
".X c None",
/* pixels */
".X.X.X.X.X.X.X.X.X.X.X.X.X.X.X.X.X.X.X.X.X.X.X.X.X.X.X.X.X.X.X.X.X.X.X.X.X.X.X.X.X.X.X.X.X.X.X.X.X.X",
".X.X.X.X.X.X.X.X.X.X.X.X.X.X.X.X.X.X.X.X.X.X.X.X.X.X.X.X.X.X.X.X.X.X.X.X.X.X.X.X.X.X.X.X.X.X.X.X.X.X",
".X.X.X.X.X.X.X.X.X.X.X.X.X.X.X.X.X.X.X.X.X.X.X.X.X.X.X.X.X.X.X.X.X.X.X.X.X.X.X.X.X.X.X.X.X.X.X.X.X.X",
".X.X.X.X.X.X.X.X.X.X.X.X.X.X.X.X.X.X.X.X.X.X.X.X.X.X.X.X.X.X.X.X.X.X.X.X.X.X.X.X.X.X.X.X.X.X.X.X.X.X",
".X.X.X.X.X.X.X.X.X.X.X.X.X.X.X.X.X.X.X.X.X.X.X.X.X.X.X.X.X.X.X.X.X.X.X.X.X.X.X.X.X.X.X.X.X.X.X.X.X.X",
".X.X.X.X.X.X.X.X.X.X.X.X.X.X.X.X.X.X.X.X.X.X.X.X.X.X.X.X.X.X.X.X.X.X.X.X.X.X.X.X.X.X.X.X.X.X.X.X.X.X",
".X.X.X.X.X.X.X.X.X.X.X.X.X.X.X.X.X.X.X.X.X.X.X.X.XH.b.c.c.c.c.c.b.c.b.(..X.X.X.X.X.X.X.X.X.X.X.X.X.X",
".X.X.X.X.X.X.X.X.X.X.X.X.X.X.X.X.X.X.X.X.X.X.X.X.XB - - - = - = - - : z..X.X.X.X.X.X.X.X.X.X.X.X.X.X",
".X.X.X.X.X.X.X.X.X.X.X.X.X.X.X.X.X.X.X.X.X.X.XJ.x.U g g g g g g g 8 8 U M..X.X.X.X.X.X.X.X.X.X.X.X.X",
".X.X.X.X.X.X.X.X.X.X.X.X.X.X.X.X.X.X.X.X.X.X.Xn d T } } X.} } } | ^ P Z 4 h..X.X.X.X.X.X.X.X.X.X.X.X",
".X.X.X.X.X.X.X.X.X.X.X.X.X.X.X.X.X.X.X.X.X(.x.x G { I.I.I.o.....X.! S Z 7 x C..X.X.X.X.X.X.X.X.X.X.X",
".X.X.X.X.X.X.X.X.X.X.X.X.X.X.X.X.X.X.X.X(.B l T | P.I.I.I. .] [ Q A ; 8 S F u ;..X.X.X.X.X.X.X.X.X.X",
".X.X.X.X.X.X.X.X.X.X.X.X.X.X.X.X.X.X.X.XH.y 3 ~ I.I.I.o. .[ W R L K j K S Z 5 x C.(..X.X.X.X.X.X.X.X",
".X.X.X.X.X.X.X.X.X.X.X.X.X.X.X.X.X.X.X.XH.y 6 ~ I.I.o. .] Q W A 5 Y K.z.3 8 A H k a .X.X.X.X.X.X.X.X",
".X.X.X.X.X.X.X.X.X.X.X.X.X.X.X.X.X.X.X.Xn., > I | X...[ W R S 5 @ B U.v.a h L H d p .X.X.X.X.X.X.X.X",
".X.X.X.X.X.X.X.X.X.X.X.X.X.XH.B n n n n p . o > D P ] Q W A ; o X 4 n k.G.z.f x M.J..X.X.X.X.X.X.X.X",
".X.X.X.X.X.X.X.X.X.X.X.X.X.Xl.O O : , , * % % < s J ' ' P f 2 % * . . ( .X(.x V .X.X.X.X.X.X.X.X.X.X",
".X.X.X.X.X.X.X.X.X.X.X.X.X.Xk.- a b.N.N.n.*.O.O.*.V.B.B.B.-.O.O.&.q # / .X.XJ.(..X.X.X.X.X.X.X.X.X.X",
".X.X.X.X.X.X.X.X.X.X.X.X.X.X( = V ).{.{._.a.u.i.i.i.i.i.i.d.f.f.y./ $ V .X.X.X.X.X.X.X.X.X.X.X.X.X.X",
".X.X.X.X.X.X.X.X.X.XH.l.l.( p & c F.S.S.9.r.<.,.3.<.<.<.3.q.f.f.y./ $ V .X.X.X.X.X.X.X.X.X.X.X.X.X.X",
".X.X.X.X.X.X.X.X.X.XV . & - & = q ) ` ` ` _ _ _ _ _ _ _ +.5.f.f.p./ $ V .X.X.X.X.X.X.X.X.X.X.X.X.X.X",
".X.X.X.X.X.X.X.X.X.XB . j ( ( ( -.1.<.3.<.3.3.3.<.3.>._ _ 5.f.f.y./ $ ( .X.X.X.X.X.X.X.X.X.X.X.X.X.X",
".X.X.X.X.X.X.X.X.X.XB - x.[.[.[.!.s.i.i.i.i.p.i.i.p.q.>._ 5.f.f.p./ = Y .X.X.X.X.X.X.X.X.X.X.X.X.X.X",
".X.X.X.X.X.X.X.X.X.XB - m.{._.W.T.g.u.0.q.p.i.w.w.u.u.>._ 5.f.f.p./ * ( .X.X.X.X.X.X.X.X.X.X.X.X.X.X",
".X.X.X.X.X.X.X.X.X.XB = N.{.L.=.5.p.6.#.<.i.q.>.>.q.u.>._ 5.f.f.i./ $ Y .X.X.X.X.X.X.X.X.X.X.X.X.X.X",
".X.X.X.X.X.X.X.X.X.XB = m.{.D.` <.i.5._ >.u.6.#.#.q.u.>._ 5.f.f.i./ $ / .X.X.X.X.X.X.X.X.X.X.X.X.X.X",
".X.X.X.X.X.X.X.X.X.XB = m.[.D.` <.i.5._ >.u.q.#.#.6.u.>._ 5.d.f.i./ * V .X.X.X.X.X.X.X.X.X.X.X.X.X.X",
".X.X.X.X.X.X.X.X.X.XB = v.[.D.+.<.i.5._ >.u.q.#.#.w.u.>._ 5.f.f.i./ $ V .X.X.X.X.X.X.X.X.X.X.X.X.X.X",
".X.X.X.X.X.X.X.X.X.XB = M.[.D.` <.i.5._ >.u.q.#.#.6.i.>._ 5.d.f.i./ $ V .X.X.X.X.X.X.X.X.X.X.X.X.X.X",
".X.X.X.X.X.X.X.X.X.Xn = M.|.U.2.w.p.w.$.<.i.q.,.<.q.u.>._ 5.f.f.i./ $ V .X.X.X.X.X.X.X.X.X.X.X.X.X.X",
".X.X.X.X.X.X.X.X.X.XB = N. X`.Q.R.g.u.q.q.d.d.6.q.d.i.>._ 5.f.f.i./ % V .X.X.X.X.X.X.X.X.X.X.X.X.X.X",
".X.X.X.X.X.X.X.X.X.XB - k.).`._.!.s.i.u.i.i.i.u.i.i.6.$._ 5.f.f.i./ % V .X.X.X.X.X.X.X.X.X.X.X.X.X.X",
".X.X.X.X.X.X.X.X.X.XB . p M M M ;.%.%.%.1.%.,.,.,.,.$._ _ 5.d.f.i.v % / .X.X.X.X.X.X.X.X.X.X.X.X.X.X",
".X.X.X.X.X.X.X.X.X.XV = = = & # q ` ` ` _ _ _ +._ _ _ _ #.5.f.f.i.&.: Y .X.X.X.X.X.X.X.X.X.X.X.X.X.X",
".X.X.X.X.X.X.X.X.X.XJ.v.v.k.a O c S.F.7.3.3.3.3.3.5.3.3.5.u.f.f.s./ = Y .X.X.X.X.X.X.X.X.X.X.X.X.X.X",
".X.X.X.X.X.X.X.X.X.X.X.X.X.Xh.= ( _./.Y.p.i.p.i.i.i.i.i.i.p.d.p.y./ : / .X.X.X.X.X.X.X.X.X.X.X.X.X.X",
".X.X.X.X.X.X.X.X.X.X.X.X.X.Xk.= / Q.R.7.3.3.3.3.3.3.3.3.3.3.3.3.1.b # V .X.X.X.X.X.X.X.X.X.X.X.X.X.X",
".X.X.X.X.X.X.X.X.X.X.X.X.X.Xk.* C y.7.@._ _ +._ _ _ _ _ _ _ _ _ ) q # V .X.X.X.X.X.X.X.X.X.X.X.X.X.X",
".X.X.X.X.X.X.X.X.X.X.X.X.X.Xk.* V !.Y.r.<.,.<.,.<.,.,.,.<.,.,.,.%.b O V .X.X.X.X.X.X.X.X.X.X.X.X.X.X",
".X.X.X.X.X.X.X.X.X.X.X.X.X.Xk.= / ].~.a.i.i.i.i.i.i.i.i.i.i.i.i.q.v $ V .X.X.X.X.X.X.X.X.X.X.X.X.X.X",
".X.X.X.X.X.X.X.X.X.X.X.X.X.Xk.= j.[.}.E.f.f.f.f.f.f.f.f.f.f.f.f.i./ $ V .X.X.X.X.X.X.X.X.X.X.X.X.X.X",
".X.X.X.X.X.X.X.X.X.X.X.X.X.Xk.= j.[.}.E.f.f.f.f.f.f.f.f.f.f.f.f.i./ $ V .X.X.X.X.X.X.X.X.X.X.X.X.X.X",
".X.X.X.X.X.X.X.X.X.X.X.X.X.Xk.= B W.T.e.7.:.:.:.4.:.:.:.4.0.q.q.0.v $ V .X.X.X.X.X.X.X.X.X.X.X.X.X.X",
".X.X.X.X.X.X.X.X.X.X.X.X.X.Xk.& i =.=.$.) q 0 0 0 0 0 0 q v #.#.+.q # V .X.X.X.X.X.X.X.X.X.X.X.X.X.X",
".X.X.X.X.X.X.X.X.X.X.X.X.X.Xk.& 1 w e r z i p p p p p p p z e r w 9 + V .X.X.X.X.X.X.X.X.X.X.X.X.X.X",
".X.X.X.X.X.X.X.X.X.X.X.X.X.Xk.# + < < < c Z.H.J.J.J.H.H.G.C 1 < < + . V .X.X.X.X.X.X.X.X.X.X.X.X.X.X",
".X.X.X.X.X.X.X.X.X.X.X.X.X.Xk..         B .X.X.X.X.X.X.X.XV .       X V .X.X.X.X.X.X.X.X.X.X.X.X.X.X",
".X.X.X.X.X.X.X.X.X.X.X.X.X.X.X.X.X.X.X.X.X.X.X.X.X.X.X.X.X.X.X.X.X.X.X.X.X.X.X.X.X.X.X.X.X.X.X.X.X.X",
".X.X.X.X.X.X.X.X.X.X.X.X.X.X.X.X.X.X.X.X.X.X.X.X.X.X.X.X.X.X.X.X.X.X.X.X.X.X.X.X.X.X.X.X.X.X.X.X.X.X",
".X.X.X.X.X.X.X.X.X.X.X.X.X.X.X.X.X.X.X.X.X.X.X.X.X.X.X.X.X.X.X.X.X.X.X.X.X.X.X.X.X.X.X.X.X.X.X.X.X.X"
};
