/* XPM */
static char *ba4cee5ad6de440ba54760921199f5dfExexIXDvsDkHcJck[] = {
/* columns rows colors chars-per-pixel */
"50 50 186 2 ",
"   c None",
".  c #222222",
"X  c #2B2C2C",
"o  c #292627",
"O  c #3A2A2E",
"+  c #30302F",
"@  c #272E32",
"#  c #342D30",
"$  c #2D3333",
"%  c #2F3837",
"&  c #2F3938",
"*  c #333333",
"=  c #333B3B",
"-  c #3A3A39",
";  c #393737",
":  c #592E3D",
">  c #403C3D",
",  c #553A3D",
"<  c #41403F",
"1  c #2C3A42",
"2  c #2D3E48",
"3  c #303F46",
"4  c #5F3E49",
"5  c #4D3E43",
"6  c #643343",
"7  c #603F44",
"8  c #683144",
"9  c #72374A",
"0  c #2F424D",
"q  c #36504E",
"w  c #3A565A",
"e  c #395A69",
"r  c #3B5F72",
"t  c #3A6073",
"y  c #3D6267",
"u  c #464646",
"i  c #5F4A51",
"p  c #4B5458",
"a  c #515050",
"s  c #5D5C5C",
"d  c #52434C",
"f  c #624B4F",
"g  c #6C4A57",
"h  c #794B52",
"j  c #734B58",
"k  c #645D5E",
"l  c #6E545C",
"z  c #72575B",
"x  c #435A66",
"c  c #7A5963",
"v  c #5B656A",
"b  c #497777",
"n  c #40676C",
"m  c #6A6A6A",
"M  c #636666",
"N  c #74726F",
"B  c #667D79",
"V  c #717171",
"C  c #7D7D7D",
"Z  c #656E73",
"A  c #883853",
"S  c #963B59",
"D  c #AA3F63",
"F  c #894558",
"G  c #95435E",
"H  c #8B535C",
"J  c #964761",
"K  c #9D5470",
"L  c #864E61",
"P  c #A34262",
"I  c #BD5878",
"U  c #A25E68",
"Y  c #85636C",
"T  c #88747B",
"R  c #AE6873",
"E  c #C1446E",
"W  c #C74771",
"Q  c #D54977",
"!  c #DC517D",
"~  c #C75876",
"^  c #C46E7B",
"/  c #D1607C",
"(  c #4C827D",
")  c #82837E",
"_  c #487689",
"`  c #467C91",
"'  c #4D7D93",
"]  c #CC5E87",
"[  c #E15681",
"{  c #E35B82",
"}  c #CD7280",
"|  c #DD7988",
" . c #D77585",
".. c #EA6B89",
"X. c #EE718D",
"o. c #E5778B",
"O. c #F27C92",
"+. c #53908B",
"@. c #4A8295",
"#. c #4D8799",
"$. c #4C8899",
"%. c #508E9D",
"&. c #52929F",
"*. c #4F8985",
"=. c #62938E",
"-. c #658C9C",
";. c #719597",
":. c #658C8E",
">. c #5CA49E",
",. c #5294A1",
"<. c #5599A5",
"1. c #579EA8",
"2. c #5D9EA6",
"3. c #7297A5",
"4. c #5AA4AC",
"5. c #5DA7A2",
"6. c #5DACB1",
"7. c #5FB0B4",
"8. c #61B1AF",
"9. c #65AAB1",
"0. c #6DAEB4",
"q. c #61B2B4",
"w. c #64BABB",
"e. c #64B5B8",
"r. c #70BCBD",
"t. c #63A1AB",
"y. c #67C0BE",
"u. c #6AC5BF",
"i. c #6AC5C3",
"p. c #6DCAC5",
"a. c #6ECEC9",
"s. c #7ACEC9",
"d. c #74C9C4",
"f. c #6FD0CA",
"g. c #72D5CD",
"h. c #78D4CD",
"j. c #838383",
"k. c #898683",
"l. c #8A8A8A",
"z. c #878984",
"x. c #95898B",
"c. c #9A8F91",
"v. c #959595",
"b. c #9A9A9A",
"n. c #9D9595",
"m. c #919893",
"M. c #A29F9A",
"N. c #A2979B",
"B. c #A7A49D",
"V. c #989EAC",
"C. c #869AA3",
"Z. c #A89EA1",
"A. c #9EA1A2",
"S. c #80A8B1",
"D. c #98ACB4",
"F. c #9AB0B8",
"G. c #8AAAB1",
"H. c #ABACAC",
"J. c #B5B5B5",
"K. c #BBBBBB",
"L. c #B8B4B5",
"P. c #A6B8BE",
"I. c #EB8090",
"U. c #F68596",
"Y. c #AEBEC3",
"T. c #84C9C6",
"R. c #97CAC9",
"E. c #9CD0CB",
"W. c #82DAD1",
"Q. c #B4C3C4",
"!. c #BFCECE",
"~. c #A9D2CB",
"^. c #B9DDD7",
"/. c #ADD7D0",
"(. c #B7E2DA",
"). c #C1C1C1",
"_. c #D6D5CD",
"`. c #D5DBD5",
"'. c #DDDCD4",
"]. c #E3DED5",
"[. c #DDE0DC",
"{. c #E6E4DD",
"}. c #E8E6DF",
"|. c #C4E9E0",
" X c #ECE9E2",
".X c #F1ECE4",
/* pixels */
"                                                                                                    ",
"                                                                                                    ",
"                                                                                                    ",
"                                                                                                    ",
"                                                                                                    ",
"                                                                                                    ",
"                            ).b.v.v.v.v.v.v.v.v.L.                                                  ",
"                            k.> ; ; ; ; ; ; ; ; V                                                   ",
"                          n.Y 9 9 h h h h h h h Y c.K.                                              ",
"                        j.5 F W /  .| | | | | | R f m                                               ",
"                      N.c 8 A P ~ ..X.X.O.U.U.U.} H c n.).                                          ",
"                    j.i G D 9 : G ! [ [ ..U.U.U.I. .R z m ).                                        ",
"                ).Z.c 6 A P c k L P E Q { X.O.U.U.U.^ 7 u J.                                        ",
"                s l J S 9 4 x.L.T 6 S Q ! [ ..O.U.U.^ 7 u J.                                        ",
"                a g J P j s b.K.V # 6 D W Q { X.o. .U , u v.                                        ",
"                L.N.c g x.H.l.M u o O : S W ! { I F , # X a m m m m V J.                            ",
"                    C M K.  C X X & & = g I ] ] K d & & = - < < - + * l.                            ",
"                    ).K.    C $ w *.+.+.;.V.V.V.C.=.+.+.=.m.B.B.n.k ; l.                            ",
"                            C % ( i.g.g.a.p.p.p.p.p.p.p.T.^.}.}._.C ; j.                            ",
"                            C & ( p.g.g.w.4.1.1.1.1.1.1.t.S.D.D.C.v $ a C j.j.J.                    ",
"                            C & ( p.g.g.6.@.` ` ` ` ` ` ` ' ' ' _ w * ; ; ; X V                     ",
"                            C & ( p.g.g.6.` @.<.4.4.4.4.4.4.4.4.2.;.z.k.) s X V                     ",
"                            C & ( p.g.g.6.` &.w.p.p.p.p.p.p.p.p.s./.'.{.].c.; V                     ",
"                            C & ( p.g.g.6.` ,.i.p.e.e.p.a.w.q.i.h.R.Q.`..XM.; V                     ",
"                            C & ( p.g.g.6.` ,.i.w.&.,.w.i.<.#.q.p.9.-.P.}.M.; V                     ",
"                            C & ( p.g.g.6.` ,.i.w.$.$.w.i.,.` 6.p.4.' F.}.M.; V                     ",
"                            C & ( p.g.g.6.` ,.i.w.$.$.w.i.,.` 6.p.4.' F.{.M.; V                     ",
"                            C & ( p.g.g.6.` ,.i.w.$.$.w.i.,.` 6.p.4.' F.}.M.; V                     ",
"                            C & ( p.g.g.6.` ,.i.w.$.$.w.i.,.` 6.p.4.' F.}.M.; V                     ",
"                            C & ( p.g.g.6.` ,.i.w.<.<.w.i.4.%.e.a.0.3.Y. XM.; V                     ",
"                            C & ( p.g.g.6.` ,.i.p.w.w.p.f.y.w.p.h.E.!.[..XM.; V                     ",
"                            C & ( p.g.g.6.` %.w.i.i.i.i.i.i.i.i.d.~._.'._.l.; V                     ",
"                            C & ( p.g.g.6.` ` &.<.<.<.<.<.<.<.<.,.:.V V N a X V                     ",
"                            C & ( p.g.g.7.@.` ` ` ` ` ` ` ` ' ' _ w X * ; ; ; C                     ",
"                            C & ( p.g.g.i.6.4.4.4.4.4.4.4.4.9.G.D.M * s l.b.b.K.                    ",
"                            C % b u.a.a.a.p.p.p.p.p.p.p.p.p.s.^.`.) ; j.                            ",
"                            C $ n 1.4.4.4.4.4.4.4.4.4.4.4.4.9.R.~.B ; l.                            ",
"                            C $ w _ ` ` ` ` ` ` ` ` ` ` ` ` #.e.d.b - l.                            ",
"                            C $ y &.<.<.<.<.<.<.<.<.<.<.<.<.4.T.E.B - l.                            ",
"                            C $ b y.p.p.p.p.p.p.p.p.p.p.p.p.s.(.`.) ; l.                            ",
"                            C & ( p.g.g.g.g.g.g.g.g.g.g.g.g.W.|.{.k.; l.                            ",
"                            C & ( p.g.g.g.g.g.g.g.g.g.g.g.g.W.|.{.k.; l.                            ",
"                            C $ b q.w.w.8.5.>.>.>.>.>.>.5.q.r.R.Q.V ; l.                            ",
"                            C $ e @.$.$.b w q q q q q q w _ %.-.-.p * l.                            ",
"                            C X 0 e t r x p a a a a a a p x t t e 2 * l.                            ",
"                            C X @ 1 1 3 Z H.L.L.L.L.L.L.A.v 1 1 1 @ $ l.                            ",
"                            C X . . . X C                 V . . . . X l.                            ",
"                                                                                                    ",
"                                                                                                    ",
"                                                                                                    "
};
