/* XPM */
static char *_472da71b4d34e25d292747872fd3df6CU3E3zqXqgORxdF2[] = {
/* columns rows colors chars-per-pixel */
"50 50 194 2 ",
"   c None",
".  c black",
"X  c #0A0909",
"o  c #0B0B0C",
"O  c #170605",
"+  c #130D0D",
"@  c #190E0E",
"#  c #00150D",
"$  c #190F10",
"%  c #0C1915",
"&  c #141314",
"*  c #1A1112",
"=  c #1F1917",
"-  c #1D171A",
";  c #141C1B",
":  c #1C1B1B",
">  c #281116",
",  c #211E1D",
"<  c #341E1F",
"1  c #14221D",
"2  c #1B211F",
"3  c #1D1F20",
"4  c #201F20",
"5  c #222323",
"6  c #2A2527",
"7  c #262A2B",
"8  c #2C2D2D",
"9  c #36292D",
"0  c #30302F",
"q  c #252C30",
"w  c #293233",
"e  c #29353C",
"r  c #323130",
"t  c #5C1E30",
"y  c #482A34",
"u  c #552D3B",
"i  c #473336",
"p  c #4B3639",
"a  c #613338",
"s  c #2E3E43",
"d  c #603342",
"f  c #6B3245",
"g  c #76344A",
"h  c #2F444E",
"j  c #314956",
"k  c #344A59",
"l  c #375665",
"z  c #385A6B",
"x  c #27627E",
"c  c #3B6379",
"v  c #357D73",
"b  c #444342",
"n  c #4F4C4A",
"m  c #595855",
"M  c #6C444B",
"N  c #7A4C53",
"B  c #68645F",
"V  c #405865",
"C  c #497975",
"Z  c #717171",
"A  c #797675",
"S  c #8C3954",
"D  c #973B5A",
"F  c #A02A50",
"G  c #AA3961",
"H  c #D33168",
"J  c #9E4A5C",
"K  c #925760",
"L  c #B44268",
"P  c #BA496D",
"I  c #BD5071",
"U  c #827D79",
"Y  c #BB6C76",
"T  c #BF6C79",
"R  c #BD727B",
"E  c #C1436E",
"W  c #CB4473",
"Q  c #DA4378",
"!  c #D64978",
"~  c #DD5676",
"^  c #E4457D",
"/  c #FB437D",
"(  c #3E8179",
")  c #4D827C",
"_  c #82817B",
"`  c #3C6581",
"'  c #376A86",
"]  c #3E6A86",
"[  c #406E87",
"{  c #416F88",
"}  c #43738B",
"|  c #4A758D",
" . c #547A8A",
".. c #477793",
"X. c #467C92",
"o. c #507F99",
"O. c #E65A84",
"+. c #F95288",
"@. c #CB7684",
"#. c #F1648B",
"$. c #E5788C",
"%. c #FF6996",
"&. c #F37691",
"*. c #3E8898",
"=. c #3E91A0",
"-. c #568783",
";. c #528F8A",
":. c #53918B",
">. c #4A8496",
",. c #4B8699",
"<. c #418B9E",
"1. c #4E8C9C",
"2. c #58859B",
"3. c #508E9D",
"4. c #46919E",
"5. c #559591",
"6. c #51909E",
"7. c #738D8B",
"8. c #528DA8",
"9. c #4C93A1",
"0. c #5395A1",
"q. c #559BA5",
"w. c #589EAA",
"e. c #638EA0",
"r. c #4AA3AB",
"t. c #5BA3AB",
"y. c #5CA8AD",
"u. c #4BAFB1",
"i. c #56AAB3",
"p. c #5EADB2",
"a. c #59B3B8",
"s. c #61B1B5",
"d. c #63B6BA",
"f. c #69B4BD",
"g. c #66BDBD",
"h. c #5FC8C4",
"j. c #6AC5C2",
"k. c #65C8C7",
"l. c #6CCAC5",
"z. c #6FCFC8",
"x. c #63D1C9",
"c. c #6FD1CA",
"v. c #72D4CD",
"b. c #77D8CF",
"n. c #69D9D1",
"m. c #76DED4",
"M. c #7ADDD2",
"N. c #6BE9DC",
"B. c #77E1D6",
"V. c #79E5DA",
"C. c #79E6DA",
"Z. c #7DEEE3",
"A. c #7EF1E5",
"S. c #8F9292",
"D. c #A49A93",
"F. c #A79E99",
"G. c #BCA39B",
"H. c #869EAD",
"J. c #9A95A2",
"K. c #BB9BB2",
"L. c #8FA5B3",
"P. c #A9A6A0",
"I. c #F58596",
"U. c #FE869C",
"Y. c #F68B9C",
"T. c #FE8B9E",
"R. c #FF8DA2",
"E. c #FF95A6",
"W. c #FF98AA",
"Q. c #FFA4B7",
"!. c #CFC5BA",
"~. c #96BFC7",
"^. c #A9BAC6",
"/. c #94D3D5",
"(. c #BBC5CB",
"). c #A5D2CF",
"_. c #BDC9D1",
"`. c #8FE6DB",
"'. c #A7E5DD",
"]. c #BFD1E0",
"[. c #83FBEC",
"{. c #86FFF7",
"}. c #B2EEE3",
"|. c #D1CAC1",
" X c #CCDEDF",
".X c #E6E5DD",
"XX c #CEFDF2",
"oX c #EAE9E7",
"OX c #F6F5EF",
"+X c #FDF7ED",
"@X c #ECF7F7",
"#X c #FEFDF4",
"$X c #F5F8F8",
"%X c #FEFFFD",
/* pixels */
"                                                                                                    ",
"                                                                                                    ",
"                                                                                                    ",
"                                                                                                    ",
"                                                5 5 5 5 5 5 5 5 5 5 5 5 5                           ",
"                                                i p p p p p p p y y y y 9                           ",
"                                            # 9 K R T Y Y Y R R I P W W g 5                         ",
"                                            6 N $.W.E.R.T.U.R.U.#.! Q ! D u 6                       ",
"                                        ; i K @.I.E.E.R.&.#.%.%.I g u f S L S 9 5                   ",
"                                        ; M I.W.R.I.U.&.O.Q H E f 3 # % f ! L y 5                   ",
"                                        ; N I.Q.E.I.$.#.+.^ G d 6       9 g f 9                     ",
"                                        ; M @.Y.Y.&.O.H O.H d ;           2 :                       ",
"                            3 & o o o X + < a J ~ / / H F t > o %                                   ",
"                          5 5 6 5 7 7 5 5 1 1 u L +.+.P d 2 1 5 5 5 5                               ",
"                          & 7 B D.D.D.S.) v v ) S.K.K.J.-.v ( C h 5 -                               ",
"                          o 0 D.+X%XOX}./.x.c.v.b.b.v.b.v.c.Z.l.C 5 *                               ",
"                        o . 3 Z _.]._.~.f.a.a.p.u.u.u.a.n.Z.{.V.) 5 @                               ",
"                  5 5 3 - + 2 k | o.| } } { } } } } ] 1.d.m.A.v.C 5 $                               ",
"                  5 r m A U _ -.*.4.<.9.1.6.0.0.0.>.c } p.B.A.z.C 5 *                               ",
"                  5 b P.oXOX.X'.l.k.v.z.l.z.v.v.v.s.>.} p.B.A.z.C 5 *                               ",
"                  5 n |.%X$X X'.B.k.g.l.V.v.j.l.V.l.,.} p.m.A.z.C 5 $                               ",
"                  5 n !.#X^.2.a.m.p.>.t.v.g.,.0.l.l.,.} p.m.A.z.C 5 *                               ",
"                  5 n !.OXH.' =.v.q.` 6.v.d.[ X.j.l.,.} p.m.A.v.C 5 *                               ",
"                  5 n !.OXL.' u.v.i.] 0.v.d.} ,.j.l.,...p.m.A.z.C 5 $                               ",
"                  5 n !.OXL.' r.v.t.] 6.v.d.} ,.j.l.,.} p.B.A.z.C 5 *                               ",
"                  5 n !.OXH.x r.v.t.] 6.z.d.[ X.j.l.,.} a.M.A.z.C 5 *                               ",
"                  5 n !.%X^.e.g.m.p.,.y.v.g.1.q.l.l.1.} p.B.A.z.C 5 *                               ",
"                  5 n |.%X%X X'.B.x.j.z.B.b.l.z.V.l.,.} p.M.A.z.C 5 *                               ",
"                  5 b F..XoX.X).k.h.z.l.l.l.z.v.v.p.X.} y.B.A.v.C 5 *                               ",
"                  5 w m Z Z A  .] 9.3.1.,.1.6.6.1.X.c } p.B.A.z.C 5 *                               ",
"                  5 : - $ . ; k  .o.X.] } } } } } } { 1.d.B.A.c.C 5 *                               ",
"                          . : A (.).s.a.p.a.s.s.p.s.s.g.v.V.[.M.C 5 *                               ",
"                          o 0 F.#XXXb.x.v.c.v.v.v.v.v.v.c.c.V.l.C 5 *                               ",
"                          + w 7.}./.t.9.t.q.w.w.w.q.w.q.q.9.w.5.l 5 =                               ",
"                          $ 8 :.v.a.] ] } ] ] ] } ] { { { { ..] j 5 -                               ",
"                          + 8 7.}./.q.9.q.q.q.q.q.q.q.q.q.q.p.0.l 5 =                               ",
"                          o 0 D.+XXXb.x.v.v.c.v.v.v.c.v.c.v.V.c.C 5 *                               ",
"                          o 0 G.%X@X`.N.Z.A.A.A.A.A.A.A.Z.V.[.B.) 5 $                               ",
"                          o 0 F.#XXXB.n.m.m.m.m.B.m.m.m.m.m.Z.v.C 5 *                               ",
"                          + 5 S._./.a.9.5.;.:.;.;.;.-.5.y.d.k.y.V 7 *                               ",
"                          = 7 z ,.8.X.z e 7 w w w w 7 s c ,.8.} j 5 ,                               ",
"                            5 e j ' ] k - O @ @ * @ @ - s l ] ] j 3 =                               ",
"                              4 q l ..z 5 =             3 q c ..l 5 =                               ",
"                                - s z j 7 :               3 h l h 5 ,                               ",
"                                  q w q 5 ,                 7 w 7 5 5                               ",
"                                    5 5 5 5                 5 5 5 5 5                               ",
"                                                                                                    ",
"                                                                                                    ",
"                                                                                                    ",
"                                                                                                    "
};
