/* XPM */
static char *result[] = {
/* columns rows colors chars-per-pixel */
"50 50 203 2 ",
"   c black",
".  c #0B0B0C",
"X  c #0A0909",
"o  c #130D0D",
"O  c #190E0E",
"+  c #170605",
"@  c #00150D",
"#  c #190F10",
"$  c #0C1915",
"%  c #141314",
"&  c #1A1112",
"*  c #1F1917",
"=  c #141C1B",
"-  c #1C1B1B",
";  c #1D171A",
":  c #211E1D",
">  c #281116",
",  c #341E1F",
"<  c #14221D",
"1  c #1B211F",
"2  c #1D1F20",
"3  c #201F20",
"4  c #1F323D",
"5  c #222323",
"6  c #262A2B",
"7  c #2C2D2D",
"8  c #2A2527",
"9  c #36292D",
"0  c #30302F",
"q  c #252C30",
"w  c #293233",
"e  c #29353C",
"r  c #323130",
"t  c #5C1E30",
"y  c #482A34",
"u  c #552D3B",
"i  c #4B3639",
"p  c #473336",
"a  c #613338",
"s  c #2E3E43",
"d  c #652E42",
"f  c #6B3245",
"g  c #603342",
"h  c #76344A",
"j  c #2F444E",
"k  c #314956",
"l  c #344A59",
"z  c #304F58",
"x  c #385A6B",
"c  c #375665",
"v  c #27627E",
"b  c #3B6379",
"n  c #357D73",
"m  c #396E6A",
"M  c #4F4C4A",
"N  c #444342",
"B  c #595855",
"V  c #7A4C53",
"C  c #6C444B",
"Z  c #68645F",
"A  c #405865",
"S  c #497975",
"D  c #497975",
"F  c #797675",
"G  c #717171",
"H  c #973B5A",
"J  c #8C3954",
"K  c #A02A50",
"L  c #AA3961",
"P  c #D33168",
"I  c #9E4A5C",
"U  c #925760",
"Y  c #B44268",
"T  c #BA496D",
"R  c #BD5071",
"E  c #827D79",
"W  c #BB6C76",
"Q  c #BF6C79",
"!  c #BD727B",
"~  c #C1436E",
"^  c #CB4473",
"/  c #DA4378",
"(  c #D64978",
")  c #DD5676",
"_  c #E4457D",
"`  c #FB437D",
"'  c #CC717F",
"]  c #3E8179",
"[  c #4D827C",
"{  c #82817B",
"}  c #3C6581",
"|  c #3E6A86",
" . c #376A86",
".. c #406E87",
"X. c #416F88",
"o. c #43738B",
"O. c #4A758D",
"+. c #547A8A",
"@. c #467C92",
"#. c #477793",
"$. c #507F99",
"%. c #E65A84",
"&. c #F95288",
"*. c #CB7684",
"=. c #E5788C",
"-. c #FF6996",
";. c #F37691",
":. c #F1648B",
">. c #3E8898",
",. c #3E91A0",
"<. c #528F8A",
"1. c #568783",
"2. c #53918B",
"3. c #4A8496",
"4. c #4B8699",
"5. c #4E8C9C",
"6. c #418B9E",
"7. c #508E9D",
"8. c #58859B",
"9. c #46919E",
"0. c #51909E",
"q. c #559591",
"w. c #738D8B",
"e. c #4C93A1",
"r. c #5395A1",
"t. c #559BA5",
"y. c #589EAA",
"u. c #528DA8",
"i. c #638EA0",
"p. c #4AA3AB",
"a. c #5BA3AB",
"s. c #5CA8AD",
"d. c #4BAFB1",
"f. c #5EADB2",
"g. c #56AAB3",
"h. c #59B3B8",
"j. c #61B1B5",
"k. c #63B6BA",
"l. c #66BDBD",
"z. c #69B4BD",
"x. c #5FC8C4",
"c. c #6AC5C2",
"v. c #6CCAC5",
"b. c #6FCFC8",
"n. c #65C8C7",
"m. c #63D1C9",
"M. c #6FD1CA",
"N. c #72D4CD",
"B. c #77D8CF",
"V. c #69D9D1",
"C. c #76DED4",
"Z. c #7ADDD2",
"A. c #77E1D6",
"S. c #79E6DA",
"D. c #79E5DA",
"F. c #6BE9DC",
"G. c #7DEEE3",
"H. c #7EF1E5",
"J. c #8F9292",
"K. c #A49A93",
"L. c #A79E99",
"P. c #BCA39B",
"I. c #869EAD",
"U. c #9A95A2",
"Y. c #BB9BB2",
"T. c #8FA5B3",
"R. c #A9A6A0",
"E. c #F58596",
"W. c #FE869C",
"Q. c #FE8B9E",
"!. c #F68B9C",
"~. c #FF8DA2",
"^. c #FF95A6",
"/. c #FF98AA",
"(. c #FFA4B7",
"). c #CFC5BA",
"_. c #D0C6BA",
"`. c #96BFC7",
"'. c #A9BAC6",
"]. c #94D3D5",
"[. c #BBC5CB",
"{. c #BDC9D1",
"}. c #A5D2CF",
"|. c #8FE6DB",
" X c #A7E5DD",
".X c #BFD1E0",
"XX c #83FBEC",
"oX c #86FFF7",
"OX c #B2EEE3",
"+X c #D1CAC1",
"@X c #CCDEDF",
"#X c #C3E7DE",
"$X c #E6E5DD",
"%X c #CEFDF2",
"&X c #D6F2ED",
"*X c #EAE9E7",
"=X c #F6F5EF",
"-X c #FDF7ED",
";X c #FEFDF4",
":X c #FEFFFD",
">X c #F5F8F8",
",X c #ECF7F7",
"<X c None",
/* pixels */
"<X<X<X<X<X<X<X<X<X<X<X<X<X<X<X<X<X<X<X<X<X<X<X<X<X<X<X<X<X<X<X<X<X<X<X<X<X<X<X<X<X<X<X<X<X<X<X<X<X<X",
"<X<X<X<X<X<X<X<X<X<X<X<X<X<X<X<X<X<X<X<X<X<X<X<X<X<X<X<X<X<X<X<X<X<X<X<X<X<X<X<X<X<X<X<X<X<X<X<X<X<X",
"<X<X<X<X<X<X<X<X<X<X<X<X<X<X<X<X<X<X<X<X<X<X<X<X<X<X<X<X<X<X<X<X<X<X<X<X<X<X<X<X<X<X<X<X<X<X<X<X<X<X",
"<X<X<X<X<X<X<X<X<X<X<X<X<X<X<X<X<X<X<X<X<X<X<X<X<X<X<X<X<X<X<X<X<X<X<X<X<X<X<X<X<X<X<X<X<X<X<X<X<X<X",
"<X<X<X<X<X<X<X<X<X<X<X<X<X5 5 5 5 5 5 5 5 5 5 5 5 5 <X<X<X<X<X<X<X<X<X<X<X<X<X<X<X<X<X<X<X<X<X<X<X<X",
"<X<X<X<X<X<X<X<X<X<X<X<X<X9 y y y y i i i i i i i p <X<X<X<X<X<X<X<X<X<X<X<X<X<X<X<X<X<X<X<X<X<X<X<X",
"<X<X<X<X<X<X<X<X<X<X<X<X5 h ^ ^ T R ! ! W W W Q ! U 9 @ <X<X<X<X<X<X<X<X<X<X<X<X<X<X<X<X<X<X<X<X<X<X",
"<X<X<X<X<X<X<X<X<X<X<X8 u H ( / ( :.W.~.W.Q.~.^./.=.V 8 <X<X<X<X<X<X<X<X<X<X<X<X<X<X<X<X<X<X<X<X<X<X",
"<X<X<X<X<X<X<X<X<X5 9 J Y J f u h R -.-.:.;.~.^.^.E.*.U p = <X<X<X<X<X<X<X<X<X<X<X<X<X<X<X<X<X<X<X<X",
"<X<X<X<X<X<X<X<X<X5 y Y ( f $ @ 2 f ~ P / %.;.W.E.~./.E.C = <X<X<X<X<X<X<X<X<X<X<X<X<X<X<X<X<X<X<X<X",
"<X<X<X<X<X<X<X<X<X<X9 f h 9 <X<X<X8 g L _ &.:.=.E.^.(.E.V = <X<X<X<X<X<X<X<X<X<X<X<X<X<X<X<X<X<X<X<X",
"<X<X<X<X<X<X<X<X<X<X<X- 1 <X<X<X<X<X= g P %.P %.;.!.!.*.C = <X<X<X<X<X<X<X<X<X<X<X<X<X<X<X<X<X<X<X<X",
"<X<X<X<X<X<X<X<X<X<X<X<X<X<X<X<X<X$ . > t K P ` ` ) I a , o X . . . % 2 <X<X<X<X<X<X<X<X<X<X<X<X<X<X",
"<X<X<X<X<X<X<X<X<X<X<X<X<X<X<X5 5 5 5 < 1 g T &.&.Y u < < 5 5 6 6 5 8 5 5 <X<X<X<X<X<X<X<X<X<X<X<X<X",
"<X<X<X<X<X<X<X<X<X<X<X<X<X<X<X; 5 j D ] n 1.U.Y.Y.J.[ n n [ J.K.K.K.Z 6 % <X<X<X<X<X<X<X<X<X<X<X<X<X",
"<X<X<X<X<X<X<X<X<X<X<X<X<X<X<X& 5 S v.G.M.N.B.N.B.B.N.M.m.].OX=X:X-XK.0 . <X<X<X<X<X<X<X<X<X<X<X<X<X",
"<X<X<X<X<X<X<X<X<X<X<X<X<X<X<XO 5 [ D.oXG.V.h.d.d.d.f.h.h.z.`.{..X{.G 2   . <X<X<X<X<X<X<X<X<X<X<X<X",
"<X<X<X<X<X<X<X<X<X<X<X<X<X<X<X# 5 D N.H.C.k.5.| o.o.o.o.X.o.o.O.$.O.l 1 o ; 2 5 5 <X<X<X<X<X<X<X<X<X",
"<X<X<X<X<X<X<X<X<X<X<X<X<X<X<X& 5 D b.H.A.f.o.b 3.r.r.r.0.5.e.6.9.>.1.{ E F B r 5 <X<X<X<X<X<X<X<X<X",
"<X<X<X<X<X<X<X<X<X<X<X<X<X<X<X& 5 D b.H.A.f.o.3.j.N.N.N.b.v.b.N.n.v. X$X=X*XR.N 5 <X<X<X<X<X<X<X<X<X",
"<X<X<X<X<X<X<X<X<X<X<X<X<X<X<X# 5 D b.H.C.f.o.4.v.D.v.c.N.D.v.l.n.A. X@X>X:X+XM 5 <X<X<X<X<X<X<X<X<X",
"<X<X<X<X<X<X<X<X<X<X<X<X<X<X<X& 5 D b.H.C.f.o.4.v.v.r.4.l.N.a.3.f.C.h.8.'.;X).M 5 <X<X<X<X<X<X<X<X<X",
"<X<X<X<X<X<X<X<X<X<X<X<X<X<X<X& 5 D N.H.C.f.o.4.v.c.@...k.N.0.} t.N.,. .I.=X).M 5 <X<X<X<X<X<X<X<X<X",
"<X<X<X<X<X<X<X<X<X<X<X<X<X<X<X# 5 D b.H.C.f.#.4.v.c.4.o.k.N.r.| g.N.d. .T.=X).M 5 <X<X<X<X<X<X<X<X<X",
"<X<X<X<X<X<X<X<X<X<X<X<X<X<X<X& 5 S b.H.A.f.o.4.v.c.4.o.k.N.0.| a.N.p. .T.=X).M 5 <X<X<X<X<X<X<X<X<X",
"<X<X<X<X<X<X<X<X<X<X<X<X<X<X<X& 5 S b.H.Z.h.o.4.v.c.@...k.b.0.| a.N.p.v I.=X).M 5 <X<X<X<X<X<X<X<X<X",
"<X<X<X<X<X<X<X<X<X<X<X<X<X<X<X& 5 S b.H.A.f.o.5.v.v.t.5.l.N.s.4.f.C.l.i.'.:X).M 5 <X<X<X<X<X<X<X<X<X",
"<X<X<X<X<X<X<X<X<X<X<X<X<X<X<X& 5 S b.H.Z.f.o.4.v.D.b.v.B.A.b.c.m.A. X@X:X:X+XM 5 <X<X<X<X<X<X<X<X<X",
"<X<X<X<X<X<X<X<X<X<X<X<X<X<X<X& 5 S N.H.A.s.o.@.f.N.N.b.v.v.v.b.x.n.}.$X*X$XL.N 5 <X<X<X<X<X<X<X<X<X",
"<X<X<X<X<X<X<X<X<X<X<X<X<X<X<X& 5 S b.H.A.f.o.b @.5.0.0.5.4.5.7.e.| +.F G G B w 5 <X<X<X<X<X<X<X<X<X",
"<X<X<X<X<X<X<X<X<X<X<X<X<X<X<X& 5 S M.H.A.k.5.X.o.o.o.o.o.o.| @.$.+.l =   # ; - 5 <X<X<X<X<X<X<X<X<X",
"<X<X<X<X<X<X<X<X<X<X<X<X<X<X<X& 5 S Z.XXD.N.l.j.j.f.j.j.h.f.h.j.}.[.F -   <X<X<X<X<X<X<X<X<X<X<X<X<X",
"<X<X<X<X<X<X<X<X<X<X<X<X<X<X<X& 5 S v.S.M.M.N.N.N.N.N.N.M.N.m.B.%X;XL.0 . <X<X<X<X<X<X<X<X<X<X<X<X<X",
"<X<X<X<X<X<X<X<X<X<X<X<X<X<X<X* 5 c q.y.e.t.t.y.t.y.y.y.t.a.e.a.].OXw.w o <X<X<X<X<X<X<X<X<X<X<X<X<X",
"<X<X<X<X<X<X<X<X<X<X<X<X<X<X<X; 5 k | #.X.X.X.X.| o.| | | o.| | h.N.2.7 # <X<X<X<X<X<X<X<X<X<X<X<X<X",
"<X<X<X<X<X<X<X<X<X<X<X<X<X<X<X* 5 c r.f.t.t.t.t.t.t.t.t.t.t.e.t.].OXw.7 o <X<X<X<X<X<X<X<X<X<X<X<X<X",
"<X<X<X<X<X<X<X<X<X<X<X<X<X<X<X& 5 D M.S.N.M.N.M.N.N.N.M.N.N.m.B.%X-XK.0 . <X<X<X<X<X<X<X<X<X<X<X<X<X",
"<X<X<X<X<X<X<X<X<X<X<X<X<X<X<X# 5 [ A.XXS.G.H.H.H.H.H.H.H.G.F.|.,X:XP.0 . <X<X<X<X<X<X<X<X<X<X<X<X<X",
"<X<X<X<X<X<X<X<X<X<X<X<X<X<X<X& 5 S N.G.C.C.C.C.C.A.C.C.C.C.V.A.%X;XL.0 . <X<X<X<X<X<X<X<X<X<X<X<X<X",
"<X<X<X<X<X<X<X<X<X<X<X<X<X<X<X& 6 A s.n.k.s.q.1.<.<.<.2.<.q.e.h.].{.J.5 o <X<X<X<X<X<X<X<X<X<X<X<X<X",
"<X<X<X<X<X<X<X<X<X<X<X<X<X<X<X: 5 k o.u.4.b s 6 w w w w 6 e x @.u.4.x 6 * <X<X<X<X<X<X<X<X<X<X<X<X<X",
"<X<X<X<X<X<X<X<X<X<X<X<X<X<X<X* 2 k | | c s ; O O & O O + ; l |  .k e 5 <X<X<X<X<X<X<X<X<X<X<X<X<X<X",
"<X<X<X<X<X<X<X<X<X<X<X<X<X<X<X* 5 c #.b q 2 <X<X<X<X<X<X* 5 x #.c q 3 <X<X<X<X<X<X<X<X<X<X<X<X<X<X<X",
"<X<X<X<X<X<X<X<X<X<X<X<X<X<X<X: 5 j c j 2 <X<X<X<X<X<X<X- 6 k x s ; <X<X<X<X<X<X<X<X<X<X<X<X<X<X<X<X",
"<X<X<X<X<X<X<X<X<X<X<X<X<X<X<X5 5 6 w 6 <X<X<X<X<X<X<X<X: 5 q w q <X<X<X<X<X<X<X<X<X<X<X<X<X<X<X<X<X",
"<X<X<X<X<X<X<X<X<X<X<X<X<X<X<X5 5 5 5 5 <X<X<X<X<X<X<X<X5 5 5 5 <X<X<X<X<X<X<X<X<X<X<X<X<X<X<X<X<X<X",
"<X<X<X<X<X<X<X<X<X<X<X<X<X<X<X<X<X<X<X<X<X<X<X<X<X<X<X<X<X<X<X<X<X<X<X<X<X<X<X<X<X<X<X<X<X<X<X<X<X<X",
"<X<X<X<X<X<X<X<X<X<X<X<X<X<X<X<X<X<X<X<X<X<X<X<X<X<X<X<X<X<X<X<X<X<X<X<X<X<X<X<X<X<X<X<X<X<X<X<X<X<X",
"<X<X<X<X<X<X<X<X<X<X<X<X<X<X<X<X<X<X<X<X<X<X<X<X<X<X<X<X<X<X<X<X<X<X<X<X<X<X<X<X<X<X<X<X<X<X<X<X<X<X",
"<X<X<X<X<X<X<X<X<X<X<X<X<X<X<X<X<X<X<X<X<X<X<X<X<X<X<X<X<X<X<X<X<X<X<X<X<X<X<X<X<X<X<X<X<X<X<X<X<X<X"
};
