/* XPM */
static char *a2cfa4bbab08412b8297a50e5665aa7eWRuU2giSA9gjUBv1[] = {
/* columns rows colors chars-per-pixel */
"8 14 82 1 ",
"  c black",
". c #222222",
"X c #021311",
"o c #F18494",
"O c #1F1E1E",
"+ c #3D5F5D",
"@ c #416864",
"# c #416865",
"$ c #3E6261",
"% c #3A595B",
"& c #545C59",
"* c #385558",
"= c #555A5C",
"- c #283238",
"; c #222B30",
": c #0A1C16",
"> c #001510",
", c #000F0C",
"< c #532C39",
"1 c #74364A",
"2 c #95515F",
"3 c #955861",
"4 c #624045",
"5 c #592E3C",
"6 c #5A2E3D",
"7 c #A94563",
"8 c #874F57",
"9 c #040C0A",
"0 c #1B1A1A",
"q c black",
"w c #263634",
"e c None",
"r c #707776",
"t c gray19",
"y c #050506",
"u c #344B49",
"i c #7C8381",
"p c #3E3C3A",
"a c #595552",
"s c #504C4A",
"d c #324746",
"f c #4E5251",
"g c #2A2828",
"h c #2F4142",
"j c #4A4F4D",
"k c #2F3F41",
"l c #518B87",
"z c #4E8784",
"x c #424345",
"c c #262C30",
"v c #2C3B45",
"b c #180B0E",
"n c #232528",
"m c #2A3B44",
"M c #202629",
"N c #ED6F8B",
"B c #567476",
"V c #948598",
"C c #63B7B4",
"Z c #55A1AB",
"A c #5FACB3",
"S c #6FAAB0",
"D c #62B3B0",
"F c #5AA5AD",
"G c #5CAAB0",
"H c #5DAAB1",
"J c #95AFB2",
"K c #62B4B0",
"L c #59A3AC",
"P c #5FB0B4",
"I c #64B1B5",
"U c #9AAAAA",
"Y c #60AEAD",
"T c #58A2AB",
"R c #6CA0A5",
"E c #589FA3",
"W c #61B3B7",
"Q c #60B2B7",
"! c #82B7B5",
"~ c #508D92",
"^ c #6B9398",
"/ c white",
/* pixels */
"        ",
"        ",
"......  ",
" :>, X. ",
"<1234o..",
"567N890O",
"qwBVerty",
"+uCZASip",
"@uDFGHJa",
"#uKLPIUs",
"$dYLTRfg",
"%hEWQ!j&",
"*k~lz^x=",
"-cvbnmM;"
};
