/* XPM */
static char *result[] = {
/* columns rows colors chars-per-pixel */
"50 50 31 1 ",
"  c #1E1F1F",
". c #1E1F20",
"X c #1F2020",
"o c #232323",
"O c #292626",
"+ c #2A2827",
"@ c #2D2929",
"# c #322D2C",
"$ c #37302F",
"% c #38312F",
"& c #373030",
"* c #3C3332",
"= c #413635",
"- c #443837",
"; c #463A39",
": c #4A3C3B",
"> c #4E403D",
", c #51423F",
"< c #544441",
"1 c #584743",
"2 c #5C4945",
"3 c #604C47",
"4 c #644F4A",
"5 c #66504C",
"6 c #6A534D",
"7 c #6F5750",
"8 c #705751",
"9 c #745A53",
"0 c #795E56",
"q c #7C5F58",
"w c #7C6058",
/* pixels */
"00qw04-@#>60w0000000qqqqqq92-@&<80w0000000qqq81*O ",
"999082=@#>600999999999999982*@&:69099999999097<*o ",
"666651*@#;26666757765566775<*O#:46666666666674:&O.",
"22221:%O@*<2222122212222221;#O#=<222221221223<:#o ",
"::>::=#OO&;>>>>>::::>::::::*#OO*;>>::>>>::::>:&@oo",
":;:::*@OO$=;;;--**=;;::;:::*@O@#=:::;;;;:::-=*#Oo.",
"::::;*#OO$=:::-*&#&-::;:::;*@OO*-::;;;>;::-*&@+Ooo",
";;::-*@OO%=::;=%@@&*;:;;::;*@O+#-;::;:;;::=*@Ooo.o",
"=*==*%@OO@%=***@Oo@#**====*#@OO#*====*%==*%#Oo oo.",
"#@###@OoXO@#$#$OoXOO###@###OO..O@##########Oo o oo",
"++++OooooOOOOOOoooOOOOOOOOOOo.oOo+OOOOOOOOOoooo oo",
"#@+OoOO#@##@OooO@@#@####@##@#####@Ooo+@######@+Ooo",
"::*#OO%;>,>=%O+$->,>,>:>>>:,:,,>>-#OO$->:>>,::-#o ",
"65,*O@:46662=@@*,6665556565565566,=@+=25565564:$o ",
"962=#%,58983;@@;368888888888888973-@#-48988986:&O.",
"64<;%*>36651=@@*,4654445454545555,*@@=15555554:&o ",
"<<>;--:,<<<:*OO%:,<<<<<<<<<,<<<<,:#OO*:,<<<<<,=@o ",
";:;:;;;::::=#OO#=::::::;:;::;::::=#OO#=::;-:;-*@o ",
":;;:::::::;=#OO#=-:::-:-;;;;;-;:-=@OO#-:=&&*--*@oo",
";:;::::::::=#OO#=::::-:::;:::::::*#OO#=-*##&--&@o.",
";;;;-----;-*#OO@*---;-:-;-;----:=*#OO#*=#@O#*=#@o.",
"&&&&&&&&&&&&OooO#$*&&&&&&&&&&&&&%#OOO@#$@ooO###Ooo",
"@OOO+++++++OooooOO@+@+@@@@@OO+@+OOoXooOOO..o+++Ooo",
"OOOOOOOO++OOOOOOOOO+OOOoOOOO+O++OOOOOOOOOOOOOooooo",
"====**=**=**==*=*=*=*#OoO#*==*=%*=*==*=*==%$Oo oo ",
"22222222222222222223,-#O#-1222232122222234,;#o ooo",
"888878778788777788886,$+&<68988877888889885:#oo oo",
"666668665777677667865>#O&<58866676786666864:$o  .o",
"23222322222222222122<-#O#:1222222223332233,;#o.o o",
"::::::::::>:::::>>>>:*@O@=::>:>:::::::::::;=@oo.oo",
";:-;-:::;-*=;;;:;:::-&+o@*-::;:::-:-::;:::-$@oo.oo",
":;::::::-*##*;;::;::;&@O@*-::;:;:-:::-:;:;-%+o oo.",
";;;;:::-=#+@$=::;;;;-%@o@$-;--:-:-:--;;;:;-%@o ooo",
"====*=*=&#oO@&=======#OO@$================%#+oo o ",
"&@@@####@O..OO@##@##@Oo o@@@@#######@##@@@@+o  ooo",
"OOOOoOOOOooooOOOOOOOOoooooo@OOOOOOOOOOOO+O+ooo ooo",
"@#####OoO+@########$#$####$###@Ooo+@######@###+Oo.",
",::,:=#OO%;,::,::::::::,::::::=@OO%-,:>:::,,,:%@oo",
"55754<*+@;35656556566655665675,=O@-36666665664:%oo",
"888982=+#:499988888888889888973=@#:48988778996,%o ",
"55554,*O@-35545454544445455554,*O#=25555445653:$oo",
",<<,,:#O@%:,,1,,<<<<<<<<<<<<,,:#OO*><<,,,,,,,,=#o ",
"::::;=#O+$-;::::::::;;;=;;;:::=@OO&=:;-:;;:::-%@o.",
";;;;:*@O+$=;::::;;;;;==&*=-:;:=#OO&=-=**=-;::-*@oo",
";;::;=@OO&=::::-;;::==#@#==:::*@OO&-=*@@&=:::-&@oo",
";;;;=*@OO#=-----;;;;=&OO@*=;:-*@oO&==#OO#*=::=$@o.",
"&****#OoO@&&*&*&&&&*&#OoO#***&#OoO@&&@ooO$&**$@Oo ",
"@@@O@OOooO@@@@@@@@@@OOoooO@O@@OOooOOOOooOO@@@OOOoo",
"ooooooooooooooooooooooo.oooooooooooooooooooooooooo",
".oo.o..ooo...o.o.o.oooooo..oo..oooo..oo.o..o.o.o.o"
};
